<?xml version="1.0" encoding="UTF-8" standalone="no"?>
<!-- Created with Inkscape (http://www.inkscape.org/) -->

<svg
   xmlns:dc="http://purl.org/dc/elements/1.1/"
   xmlns:cc="http://creativecommons.org/ns#"
   xmlns:rdf="http://www.w3.org/1999/02/22-rdf-syntax-ns#"
   xmlns:svg="http://www.w3.org/2000/svg"
   xmlns="http://www.w3.org/2000/svg"
   xmlns:sodipodi="http://sodipodi.sourceforge.net/DTD/sodipodi-0.dtd"
   xmlns:inkscape="http://www.inkscape.org/namespaces/inkscape"
   width="1920"
   height="1080"
   viewBox="0 0 507.99999 285.75001"
   version="1.1"
   id="svg8"
   inkscape:version="0.92.2 (5c3e80d, 2017-08-06)"
   sodipodi:docname="fb-banner2.svg">
  <defs
     id="defs2" />
  <sodipodi:namedview
     id="base"
     pagecolor="#ffffff"
     bordercolor="#666666"
     borderopacity="1.0"
     inkscape:pageopacity="0.0"
     inkscape:pageshadow="2"
     inkscape:zoom="0.35"
     inkscape:cx="1015.0843"
     inkscape:cy="438.01956"
     inkscape:document-units="mm"
     inkscape:current-layer="layer2"
     showgrid="false"
     inkscape:window-width="1920"
     inkscape:window-height="1004"
     inkscape:window-x="0"
     inkscape:window-y="0"
     inkscape:window-maximized="1"
     units="px"
     inkscape:showpageshadow="false"
     inkscape:pagecheckerboard="true"
     inkscape:snap-page="false"
     showguides="false"
     inkscape:guide-bbox="true"
     inkscape:measure-start="-4.54747e-13,1042.5"
     inkscape:measure-end="-2.0203,832.366">
    <sodipodi:guide
       position="-1.2031856e-13,275.82813"
       orientation="0,1"
       id="guide1402"
       inkscape:locked="false" />
    <sodipodi:guide
       position="-1.2031856e-13,9.9218699"
       orientation="0,1"
       id="guide1404"
       inkscape:locked="false" />
    <sodipodi:guide
       position="0,65.767858"
       orientation="0,1"
       id="guide2811"
       inkscape:locked="false" />
    <sodipodi:guide
       position="-1.20318e-13,275.828"
       inkscape:color="rgb(167,0,255)"
       inkscape:label=""
       orientation="-0,1"
       id="guide2827"
       inkscape:locked="false" />
    <sodipodi:guide
       position="-0.534538,220.23"
       inkscape:color="rgb(167,0,255)"
       inkscape:label="End"
       orientation="-0,1"
       id="guide2831"
       inkscape:locked="false" />
    <sodipodi:guide
       position="72.162773,65.767858"
       orientation="1,0"
       id="guide2835"
       inkscape:locked="false" />
    <sodipodi:guide
       position="443.13288,113.32228"
       orientation="1,0"
       id="guide2837"
       inkscape:locked="false" />
  </sodipodi:namedview>
  <metadata
     id="metadata5">
    <rdf:RDF>
      <cc:Work
         rdf:about="">
        <dc:format>image/svg+xml</dc:format>
        <dc:type
           rdf:resource="http://purl.org/dc/dcmitype/StillImage" />
        <dc:title></dc:title>
      </cc:Work>
    </rdf:RDF>
  </metadata>
  <g
     inkscape:label="Background"
     inkscape:groupmode="layer"
     id="layer1"
     transform="translate(0,-11.249964)"
     sodipodi:insensitive="true"
     style="display:inline">
    <rect
       style="display:inline;opacity:1;vector-effect:none;fill:#ffffff;fill-opacity:1;stroke:none;stroke-width:5.23070097;stroke-linecap:butt;stroke-linejoin:miter;stroke-miterlimit:4;stroke-dasharray:none;stroke-dashoffset:0;stroke-opacity:1"
       id="rect1400"
       width="508"
       height="265.90625"
       x="-1.2031856e-13"
       y="21.171839"
       inkscape:label="Cropped"
       sodipodi:insensitive="true" />
    <rect
       style="display:inline;opacity:1;vector-effect:none;fill:#201f1d;fill-opacity:1;stroke:none;stroke-width:5.01920319;stroke-linecap:butt;stroke-linejoin:miter;stroke-miterlimit:4;stroke-dasharray:none;stroke-dashoffset:0;stroke-opacity:1"
       id="rect1379"
       width="508"
       height="285.75"
       x="0"
       y="11.249964"
       inkscape:label="Uncropped"
       sodipodi:insensitive="true" />
  </g>
  <g
     inkscape:groupmode="layer"
     id="layer2"
     inkscape:label="Titel">
    <text
       xml:space="preserve"
       style="font-style:normal;font-variant:normal;font-weight:normal;font-stretch:normal;font-size:44.3094902px;line-height:1.25;font-family:sans-serif;-inkscape-font-specification:sans-serif;letter-spacing:14.62213135px;word-spacing:0px;display:inline;fill:#000000;fill-opacity:1;stroke:none;stroke-width:1.10773718"
       x="69.30452"
       y="229.11389"
       id="text2455"><tspan
         sodipodi:role="line"
         id="tspan2453"
         x="69.30452"
         y="229.11389"
         style="font-style:normal;font-variant:normal;font-weight:normal;font-stretch:normal;font-family:'Futura XBlk BT';-inkscape-font-specification:'Futura XBlk BT';letter-spacing:-1.15608895px;fill:#ffffff;stroke-width:1.10773718">BottleBats </tspan></text>
    <text
       xml:space="preserve"
       style="font-style:normal;font-variant:normal;font-weight:normal;font-stretch:normal;font-size:44.3094902px;line-height:1.25;font-family:sans-serif;-inkscape-font-specification:sans-serif;letter-spacing:14.62213135px;word-spacing:0px;display:inline;fill:#000000;fill-opacity:1;stroke:none;stroke-width:1.10773718"
       x="311.72653"
       y="228.41321"
       id="text2455-3"><tspan
         sodipodi:role="line"
         id="tspan2453-6"
         x="311.72653"
         y="228.41321"
         style="font-style:normal;font-variant:normal;font-weight:normal;font-stretch:normal;font-family:'Futura XBlk BT';-inkscape-font-specification:'Futura XBlk BT';letter-spacing:-1.15608895px;fill:#ffffff;stroke-width:1.10773718"><tspan
           style="fill:#de8d47;fill-opacity:1;stroke-width:1.10773718"
           id="tspan2463-7">2.</tspan><tspan
           style="letter-spacing:-4.33338547px;fill:#de8d47;fill-opacity:1;stroke-width:1.10773718"
           id="tspan2457-5">018</tspan></tspan></text>
    <g
       style="display:inline"
       id="g1845"
       inkscape:label="Win"
       transform="matrix(1.1625774,0,0,1.1625774,113.75104,-109.46995)">
      <rect
         ry="10.378895"
         y="143.15164"
         x="209.04961"
         height="85.534279"
         width="65.656593"
         id="rect4555-8-0"
         style="opacity:1;vector-effect:none;fill:none;fill-opacity:1;stroke:#de8d47;stroke-width:2;stroke-linecap:round;stroke-linejoin:miter;stroke-miterlimit:4;stroke-dasharray:none;stroke-dashoffset:0;stroke-opacity:1" />
      <text
         id="text8889-0-2"
         y="215.69804"
         x="229.14105"
         style="font-style:normal;font-variant:normal;font-weight:normal;font-stretch:normal;font-size:11.62436199px;line-height:1.25;font-family:sans-serif;-inkscape-font-specification:sans-serif;letter-spacing:0px;word-spacing:-2.52539277px;fill:#000000;fill-opacity:1;stroke:none;stroke-width:0.29060906"
         xml:space="preserve"><tspan
           style="font-size:13.94923496px;fill:#ffffff;fill-opacity:1;stroke-width:0.29060906"
           y="215.69804"
           x="229.14105"
           id="tspan8887-4-9"
           sodipodi:role="line">Win</tspan></text>
      <path
         style="opacity:1;vector-effect:none;fill:#ffffff;fill-opacity:1;stroke-width:0.02205498;stroke-linecap:butt;stroke-linejoin:miter;stroke-miterlimit:4;stroke-dasharray:none;stroke-dashoffset:0;stroke-opacity:1"
         inkscape:connector-curvature="0"
         d="m 232.19278,174.53664 q -1.91631,-4.54205 -1.91631,-10.40189 h -6.62939 v 2.69159 q 0,2.18692 2.44718,4.54207 2.44718,2.35515 6.09852,3.16823 z m 27.91594,-7.7103 v -2.69159 h -6.62939 q 0,5.85984 -1.9163,10.40189 3.65134,-0.81308 6.09852,-3.16823 2.44717,-2.35515 2.44717,-4.54207 z m 3.3147,-3.58879 v 3.58879 q 0,1.99066 -1.07469,4.00936 -1.07468,2.01871 -2.90036,3.64487 -1.82567,1.62618 -4.48002,2.73366 -2.65434,1.10747 -5.58058,1.24766 -1.08764,1.51402 -2.46013,2.66357 -0.98406,0.95327 -1.35954,2.03271 -0.3755,1.07945 -0.3755,2.50936 0,1.51402 0.78982,2.55141 0.78984,1.03739 2.52487,1.03739 1.94221,0 3.45712,1.27569 1.51492,1.27571 1.51492,3.2103 v 1.79439 q 0,0.39253 -0.23306,0.64487 -0.23307,0.25234 -0.5956,0.25234 h -21.54553 q -0.36254,0 -0.5956,-0.25234 -0.23307,-0.25234 -0.23307,-0.64487 v -1.79439 q 0,-1.93459 1.51493,-3.2103 1.51491,-1.27569 3.45711,-1.27569 1.73504,0 2.52486,-1.03739 0.78984,-1.03739 0.78984,-2.55141 0,-1.42991 -0.3755,-2.50936 -0.37549,-1.07944 -1.35954,-2.03271 -1.37248,-1.14955 -2.46013,-2.66357 -2.92625,-0.14019 -5.58059,-1.24766 -2.65435,-1.10748 -4.48002,-2.73366 -1.82567,-1.62616 -2.90036,-3.64487 -1.07468,-2.0187 -1.07468,-4.00936 v -3.58879 q 0,-1.1215 0.72509,-1.90655 0.72509,-0.78505 1.76093,-0.78505 h 7.45806 v -2.6916 q 0,-1.85047 1.21712,-3.16824 1.21711,-1.31775 2.92625,-1.31775 h 14.91613 q 1.70914,0 2.92624,1.31775 1.21712,1.31777 1.21712,3.16824 v 2.6916 h 7.45806 q 1.03585,0 1.76094,0.78505 0.72509,0.78505 0.72509,1.90655 z"
         id="path8818" />
    </g>
    <g
       style="display:inline"
       id="g1839"
       inkscape:label="Play"
       transform="matrix(1.1625774,0,0,1.1625774,76.237992,-109.09558)">
      <rect
         ry="10.378895"
         y="142.82962"
         x="119.83445"
         height="85.534279"
         width="65.656593"
         id="rect4555-8"
         style="opacity:1;vector-effect:none;fill:none;fill-opacity:1;stroke:#de8d47;stroke-width:2;stroke-linecap:round;stroke-linejoin:miter;stroke-miterlimit:4;stroke-dasharray:none;stroke-dashoffset:0;stroke-opacity:1" />
      <path
         style="opacity:1;vector-effect:none;fill:#ffffff;fill-opacity:1;stroke:#de8d47;stroke-width:0.0168963;stroke-linecap:butt;stroke-linejoin:miter;stroke-miterlimit:4;stroke-dasharray:none;stroke-dashoffset:0;stroke-opacity:1"
         inkscape:connector-curvature="0"
         d="m 168.02287,162.13341 q 0,-1.037 -0.72591,-1.7629 -0.72588,-0.7259 -1.76289,-0.7259 -1.037,0 -1.76291,0.7259 -0.72589,0.7259 -0.72589,1.7629 0,1.03699 0.72589,1.7629 0.72591,0.7259 1.76291,0.7259 1.03701,0 1.76289,-0.7259 0.72591,-0.72591 0.72591,-1.7629 z m 5.8072,-7.4664 q 0,6.45532 -1.95733,11.16072 -1.95735,4.70538 -6.57199,9.34595 -2.09993,2.07401 -5.05538,4.56281 l -0.51851,9.82557 q -0.0518,0.4148 -0.41478,0.67405 l -9.9552,5.80719 q -0.18149,0.10371 -0.41481,0.10371 -0.31111,0 -0.59627,-0.23333 l -1.65921,-1.6592 q -0.33703,-0.36294 -0.20739,-0.8296 l 2.20363,-7.1553 -7.28494,-7.28492 -7.15529,2.20363 q -0.0778,0.0259 -0.23333,0.0259 -0.36295,0 -0.59628,-0.23333 l -1.6592,-1.6592 q -0.44072,-0.49257 -0.12962,-1.01108 l 5.8072,-9.9552 q 0.25925,-0.36295 0.67404,-0.41478 l 9.82559,-0.51852 q 2.48879,-2.95545 4.56279,-5.05537 4.87391,-4.84796 9.28115,-6.68865 4.40725,-1.84067 11.17368,-1.84067 0.36294,0 0.62221,0.24628 0.25924,0.24629 0.25924,0.58332 z"
         id="path8807" />
      <text
         id="text8889-0"
         y="215.37602"
         x="137.63736"
         style="font-style:normal;font-variant:normal;font-weight:normal;font-stretch:normal;font-size:11.62436199px;line-height:1.25;font-family:sans-serif;-inkscape-font-specification:sans-serif;letter-spacing:0px;word-spacing:-2.52539277px;fill:#000000;fill-opacity:1;stroke:none;stroke-width:0.29060906;stroke-opacity:1"
         xml:space="preserve"><tspan
           style="font-size:13.94923496px;fill:#ffffff;fill-opacity:1;stroke:none;stroke-width:0.29060906;stroke-opacity:1"
           y="215.37602"
           x="137.63736"
           id="tspan8887-4"
           sodipodi:role="line">Play</tspan></text>
    </g>
    <g
       style="display:inline"
       id="g1833"
       inkscape:label="Code"
       transform="matrix(1.1625774,0,0,1.1625774,44.24629,-110.656)">
      <rect
         ry="10.378895"
         y="144.17184"
         x="25.870071"
         height="85.534279"
         width="65.656593"
         id="rect4555"
         style="fill:none;fill-opacity:1;stroke:#de8d47;stroke-width:2;stroke-linecap:round;stroke-linejoin:miter;stroke-miterlimit:4;stroke-dasharray:none;stroke-opacity:1" />
      <path
         style="fill:#ffffff;fill-opacity:1;stroke-width:0.02635053"
         inkscape:connector-curvature="0"
         d="m 49.660133,188.82988 -1.317532,1.31753 q -0.263509,0.2635 -0.606067,0.2635 -0.342547,0 -0.606056,-0.2635 L 34.851136,177.86805 q -0.263509,-0.26351 -0.263509,-0.60606 0,-0.34256 0.263509,-0.60606 l 12.279342,-12.27936 q 0.263509,-0.26351 0.606056,-0.26351 0.342558,0 0.606067,0.26351 l 1.317532,1.31753 q 0.263498,0.2635 0.263498,0.60606 0,0.34256 -0.263498,0.60606 l -10.355765,10.35577 10.355765,10.35576 q 0.263498,0.2635 0.263498,0.60606 0,0.34256 -0.263498,0.60607 z m 15.573165,-28.11604 -9.828749,34.01856 q -0.105443,0.34256 -0.408438,0.51383 -0.303028,0.17128 -0.619236,0.0659 l -1.63373,-0.44796 q -0.342558,-0.10544 -0.513837,-0.40842 -0.171279,-0.30303 -0.0659,-0.64559 l 9.828741,-34.01855 q 0.105443,-0.34256 0.408438,-0.51385 0.303039,-0.17126 0.619244,-0.0658 l 1.633719,0.44797 q 0.342558,0.10544 0.513837,0.40843 0.171279,0.30302 0.0659,0.64558 z m 17.3123,17.15421 -12.27935,12.27936 q -0.263498,0.2635 -0.606067,0.2635 -0.342547,0 -0.606056,-0.2635 l -1.317522,-1.31753 q -0.263508,-0.26351 -0.263508,-0.60607 0,-0.34256 0.263508,-0.60606 L 78.092359,177.26199 67.736603,166.90622 q -0.263508,-0.2635 -0.263508,-0.60606 0,-0.34256 0.263508,-0.60606 l 1.317522,-1.31753 q 0.263509,-0.26351 0.606056,-0.26351 0.342569,0 0.606067,0.26351 l 12.27935,12.27936 q 0.263509,0.2635 0.263509,0.60606 0,0.34255 -0.263509,0.60606 z"
         id="path8796" />
      <text
         id="text8889"
         y="216.71825"
         x="40.819096"
         style="font-style:normal;font-variant:normal;font-weight:normal;font-stretch:normal;font-size:11.62436199px;line-height:1.25;font-family:sans-serif;-inkscape-font-specification:sans-serif;letter-spacing:0px;word-spacing:-2.52539277px;fill:#000000;fill-opacity:1;stroke:none;stroke-width:0.29060906"
         xml:space="preserve"><tspan
           style="font-size:13.94923496px;fill:#ffffff;fill-opacity:1;stroke-width:0.29060906"
           y="216.71825"
           x="40.819096"
           id="tspan8887"
           sodipodi:role="line">Code</tspan></text>
    </g>
  </g>
</svg>
