<?xml version="1.0" encoding="UTF-8" standalone="no"?>
<!-- Created with Inkscape (http://www.inkscape.org/) -->

<svg
   xmlns:dc="http://purl.org/dc/elements/1.1/"
   xmlns:cc="http://creativecommons.org/ns#"
   xmlns:rdf="http://www.w3.org/1999/02/22-rdf-syntax-ns#"
   xmlns:svg="http://www.w3.org/2000/svg"
   xmlns="http://www.w3.org/2000/svg"
   xmlns:sodipodi="http://sodipodi.sourceforge.net/DTD/sodipodi-0.dtd"
   xmlns:inkscape="http://www.inkscape.org/namespaces/inkscape"
   width="1920"
   height="1080"
   viewBox="0 0 507.99999 285.75001"
   version="1.1"
   id="svg8"
   inkscape:version="0.92.2 (5c3e80d, 2017-08-06)"
   sodipodi:docname="fb-banner2.svg"
   inkscape:export-filename="/home/wout/data/Graphics/Projects/Zeus/BattleBots/fb-banner.png"
   inkscape:export-xdpi="96"
   inkscape:export-ydpi="96">
  <defs
     id="defs2">
    <clipPath
       clipPathUnits="userSpaceOnUse"
       id="clipPath16">
      <path
         inkscape:connector-curvature="0"
         d="M 0,446.264 H 719.68 V 0 H 0 Z"
         id="path18" />
    </clipPath>
  </defs>
  <sodipodi:namedview
     id="base"
     pagecolor="#ffffff"
     bordercolor="#666666"
     borderopacity="1.0"
     inkscape:pageopacity="0.0"
     inkscape:pageshadow="2"
     inkscape:zoom="0.49497475"
     inkscape:cx="1192.8958"
     inkscape:cy="699.19108"
     inkscape:document-units="mm"
     inkscape:current-layer="layer2"
     showgrid="false"
     inkscape:window-width="1920"
     inkscape:window-height="1004"
     inkscape:window-x="0"
     inkscape:window-y="0"
     inkscape:window-maximized="1"
     units="px"
     inkscape:showpageshadow="false"
     inkscape:pagecheckerboard="true"
     inkscape:snap-page="false"
     showguides="false"
     inkscape:guide-bbox="true"
     inkscape:measure-start="-4.54747e-13,1042.5"
     inkscape:measure-end="-2.0203,832.366"
     inkscape:snap-grids="true"
     inkscape:snap-to-guides="true"
     inkscape:snap-others="false">
    <sodipodi:guide
       position="-1.2031856e-13,275.82813"
       orientation="0,1"
       id="guide1402"
       inkscape:locked="false" />
    <sodipodi:guide
       position="-1.2031856e-13,9.9218699"
       orientation="0,1"
       id="guide1404"
       inkscape:locked="false" />
    <sodipodi:guide
       position="0,65.767858"
       orientation="0,1"
       id="guide2811"
       inkscape:locked="false" />
    <sodipodi:guide
       position="-1.20318e-13,275.828"
       inkscape:color="rgb(167,0,255)"
       inkscape:label=""
       orientation="-0,1"
       id="guide2827"
       inkscape:locked="false" />
    <sodipodi:guide
       position="-0.534538,220.23"
       inkscape:color="rgb(167,0,255)"
       inkscape:label="End"
       orientation="-0,1"
       id="guide2831"
       inkscape:locked="false" />
    <sodipodi:guide
       position="72.162773,65.767858"
       orientation="1,0"
       id="guide2835"
       inkscape:locked="false" />
    <sodipodi:guide
       position="443.13288,113.32228"
       orientation="1,0"
       id="guide2837"
       inkscape:locked="false" />
  </sodipodi:namedview>
  <metadata
     id="metadata5">
    <rdf:RDF>
      <cc:Work
         rdf:about="">
        <dc:format>image/svg+xml</dc:format>
        <dc:type
           rdf:resource="http://purl.org/dc/dcmitype/StillImage" />
        <dc:title></dc:title>
      </cc:Work>
    </rdf:RDF>
  </metadata>
  <g
     inkscape:label="Background"
     inkscape:groupmode="layer"
     id="layer1"
     transform="translate(0,-11.249964)"
     sodipodi:insensitive="true"
     style="display:inline">
    <rect
       style="display:inline;opacity:1;vector-effect:none;fill:#ffffff;fill-opacity:1;stroke:none;stroke-width:5.23070097;stroke-linecap:butt;stroke-linejoin:miter;stroke-miterlimit:4;stroke-dasharray:none;stroke-dashoffset:0;stroke-opacity:1"
       id="rect1400"
       width="508"
       height="265.90625"
       x="-1.2031856e-13"
       y="21.171839"
       inkscape:label="Cropped"
       sodipodi:insensitive="true" />
    <rect
       style="display:inline;opacity:1;vector-effect:none;fill:#201f1d;fill-opacity:1;stroke:none;stroke-width:5.01920319;stroke-linecap:butt;stroke-linejoin:miter;stroke-miterlimit:4;stroke-dasharray:none;stroke-dashoffset:0;stroke-opacity:1"
       id="rect1379"
       width="508"
       height="285.75"
       x="0"
       y="11.249964"
       inkscape:label="Uncropped"
       sodipodi:insensitive="true" />
  </g>
  <g
     inkscape:groupmode="layer"
     id="layer2"
     inkscape:label="Titel">
    <text
       xml:space="preserve"
       style="font-style:normal;font-variant:normal;font-weight:normal;font-stretch:normal;font-size:44.3094902px;line-height:1.25;font-family:sans-serif;-inkscape-font-specification:sans-serif;letter-spacing:14.62213135px;word-spacing:0px;display:inline;fill:#000000;fill-opacity:1;stroke:none;stroke-width:1.10773718"
       x="69.30452"
       y="229.11389"
       id="text2455"><tspan
         sodipodi:role="line"
         id="tspan2453"
         x="69.30452"
         y="229.11389"
         style="font-style:normal;font-variant:normal;font-weight:normal;font-stretch:normal;font-family:'Futura XBlk BT';-inkscape-font-specification:'Futura XBlk BT';letter-spacing:-1.15608895px;fill:#ffffff;stroke-width:1.10773718">BottleBats </tspan></text>
    <text
       xml:space="preserve"
       style="font-style:normal;font-variant:normal;font-weight:normal;font-stretch:normal;font-size:44.3094902px;line-height:1.25;font-family:sans-serif;-inkscape-font-specification:sans-serif;letter-spacing:14.62213135px;word-spacing:0px;display:inline;fill:#000000;fill-opacity:1;stroke:none;stroke-width:1.10773718"
       x="311.72653"
       y="228.41321"
       id="text2455-3"><tspan
         sodipodi:role="line"
         id="tspan2453-6"
         x="311.72653"
         y="228.41321"
         style="font-style:normal;font-variant:normal;font-weight:normal;font-stretch:normal;font-family:'Futura XBlk BT';-inkscape-font-specification:'Futura XBlk BT';letter-spacing:-1.15608895px;fill:#ffffff;stroke-width:1.10773718"><tspan
           style="fill:#de8d47;fill-opacity:1;stroke-width:1.10773718"
           id="tspan2463-7">2.</tspan><tspan
           style="letter-spacing:-4.33338547px;fill:#de8d47;fill-opacity:1;stroke-width:1.10773718"
           id="tspan2457-5">018</tspan></tspan></text>
    <g
       style="display:inline"
       id="g1845"
       inkscape:label="Win"
       transform="matrix(1.1625774,0,0,1.1625774,113.75104,-109.46995)">
      <rect
         ry="10.378895"
         y="143.15164"
         x="209.04961"
         height="85.534279"
         width="65.656593"
         id="rect4555-8-0"
         style="opacity:1;vector-effect:none;fill:none;fill-opacity:1;stroke:#de8d47;stroke-width:2;stroke-linecap:round;stroke-linejoin:miter;stroke-miterlimit:4;stroke-dasharray:none;stroke-dashoffset:0;stroke-opacity:1" />
      <text
         id="text8889-0-2"
         y="215.69804"
         x="229.14105"
         style="font-style:normal;font-variant:normal;font-weight:normal;font-stretch:normal;font-size:11.62436199px;line-height:1.25;font-family:sans-serif;-inkscape-font-specification:sans-serif;letter-spacing:0px;word-spacing:-2.52539277px;fill:#000000;fill-opacity:1;stroke:none;stroke-width:0.29060906"
         xml:space="preserve"><tspan
           style="font-size:13.94923496px;fill:#ffffff;fill-opacity:1;stroke-width:0.29060906"
           y="215.69804"
           x="229.14105"
           id="tspan8887-4-9"
           sodipodi:role="line">Win</tspan></text>
      <path
         style="opacity:1;vector-effect:none;fill:#ffffff;fill-opacity:1;stroke-width:0.02205498;stroke-linecap:butt;stroke-linejoin:miter;stroke-miterlimit:4;stroke-dasharray:none;stroke-dashoffset:0;stroke-opacity:1"
         inkscape:connector-curvature="0"
         d="m 232.19278,174.53664 q -1.91631,-4.54205 -1.91631,-10.40189 h -6.62939 v 2.69159 q 0,2.18692 2.44718,4.54207 2.44718,2.35515 6.09852,3.16823 z m 27.91594,-7.7103 v -2.69159 h -6.62939 q 0,5.85984 -1.9163,10.40189 3.65134,-0.81308 6.09852,-3.16823 2.44717,-2.35515 2.44717,-4.54207 z m 3.3147,-3.58879 v 3.58879 q 0,1.99066 -1.07469,4.00936 -1.07468,2.01871 -2.90036,3.64487 -1.82567,1.62618 -4.48002,2.73366 -2.65434,1.10747 -5.58058,1.24766 -1.08764,1.51402 -2.46013,2.66357 -0.98406,0.95327 -1.35954,2.03271 -0.3755,1.07945 -0.3755,2.50936 0,1.51402 0.78982,2.55141 0.78984,1.03739 2.52487,1.03739 1.94221,0 3.45712,1.27569 1.51492,1.27571 1.51492,3.2103 v 1.79439 q 0,0.39253 -0.23306,0.64487 -0.23307,0.25234 -0.5956,0.25234 h -21.54553 q -0.36254,0 -0.5956,-0.25234 -0.23307,-0.25234 -0.23307,-0.64487 v -1.79439 q 0,-1.93459 1.51493,-3.2103 1.51491,-1.27569 3.45711,-1.27569 1.73504,0 2.52486,-1.03739 0.78984,-1.03739 0.78984,-2.55141 0,-1.42991 -0.3755,-2.50936 -0.37549,-1.07944 -1.35954,-2.03271 -1.37248,-1.14955 -2.46013,-2.66357 -2.92625,-0.14019 -5.58059,-1.24766 -2.65435,-1.10748 -4.48002,-2.73366 -1.82567,-1.62616 -2.90036,-3.64487 -1.07468,-2.0187 -1.07468,-4.00936 v -3.58879 q 0,-1.1215 0.72509,-1.90655 0.72509,-0.78505 1.76093,-0.78505 h 7.45806 v -2.6916 q 0,-1.85047 1.21712,-3.16824 1.21711,-1.31775 2.92625,-1.31775 h 14.91613 q 1.70914,0 2.92624,1.31775 1.21712,1.31777 1.21712,3.16824 v 2.6916 h 7.45806 q 1.03585,0 1.76094,0.78505 0.72509,0.78505 0.72509,1.90655 z"
         id="path8818" />
    </g>
    <g
       style="display:inline"
       id="g1839"
       inkscape:label="Play"
       transform="matrix(1.1625774,0,0,1.1625774,76.237992,-109.09558)">
      <rect
         ry="10.378895"
         y="142.82962"
         x="119.83445"
         height="85.534279"
         width="65.656593"
         id="rect4555-8"
         style="opacity:1;vector-effect:none;fill:none;fill-opacity:1;stroke:#de8d47;stroke-width:2;stroke-linecap:round;stroke-linejoin:miter;stroke-miterlimit:4;stroke-dasharray:none;stroke-dashoffset:0;stroke-opacity:1" />
      <path
         style="opacity:1;vector-effect:none;fill:#ffffff;fill-opacity:1;stroke:#de8d47;stroke-width:0.0168963;stroke-linecap:butt;stroke-linejoin:miter;stroke-miterlimit:4;stroke-dasharray:none;stroke-dashoffset:0;stroke-opacity:1"
         inkscape:connector-curvature="0"
         d="m 168.02287,162.13341 q 0,-1.037 -0.72591,-1.7629 -0.72588,-0.7259 -1.76289,-0.7259 -1.037,0 -1.76291,0.7259 -0.72589,0.7259 -0.72589,1.7629 0,1.03699 0.72589,1.7629 0.72591,0.7259 1.76291,0.7259 1.03701,0 1.76289,-0.7259 0.72591,-0.72591 0.72591,-1.7629 z m 5.8072,-7.4664 q 0,6.45532 -1.95733,11.16072 -1.95735,4.70538 -6.57199,9.34595 -2.09993,2.07401 -5.05538,4.56281 l -0.51851,9.82557 q -0.0518,0.4148 -0.41478,0.67405 l -9.9552,5.80719 q -0.18149,0.10371 -0.41481,0.10371 -0.31111,0 -0.59627,-0.23333 l -1.65921,-1.6592 q -0.33703,-0.36294 -0.20739,-0.8296 l 2.20363,-7.1553 -7.28494,-7.28492 -7.15529,2.20363 q -0.0778,0.0259 -0.23333,0.0259 -0.36295,0 -0.59628,-0.23333 l -1.6592,-1.6592 q -0.44072,-0.49257 -0.12962,-1.01108 l 5.8072,-9.9552 q 0.25925,-0.36295 0.67404,-0.41478 l 9.82559,-0.51852 q 2.48879,-2.95545 4.56279,-5.05537 4.87391,-4.84796 9.28115,-6.68865 4.40725,-1.84067 11.17368,-1.84067 0.36294,0 0.62221,0.24628 0.25924,0.24629 0.25924,0.58332 z"
         id="path8807" />
      <text
         id="text8889-0"
         y="215.37602"
         x="137.63736"
         style="font-style:normal;font-variant:normal;font-weight:normal;font-stretch:normal;font-size:11.62436199px;line-height:1.25;font-family:sans-serif;-inkscape-font-specification:sans-serif;letter-spacing:0px;word-spacing:-2.52539277px;fill:#000000;fill-opacity:1;stroke:none;stroke-width:0.29060906;stroke-opacity:1"
         xml:space="preserve"><tspan
           style="font-size:13.94923496px;fill:#ffffff;fill-opacity:1;stroke:none;stroke-width:0.29060906;stroke-opacity:1"
           y="215.37602"
           x="137.63736"
           id="tspan8887-4"
           sodipodi:role="line">Play</tspan></text>
    </g>
    <g
       style="display:inline"
       id="g1833"
       inkscape:label="Code"
       transform="matrix(1.1625774,0,0,1.1625774,44.24629,-110.656)">
      <rect
         ry="10.378895"
         y="144.17184"
         x="25.870071"
         height="85.534279"
         width="65.656593"
         id="rect4555"
         style="fill:none;fill-opacity:1;stroke:#de8d47;stroke-width:2;stroke-linecap:round;stroke-linejoin:miter;stroke-miterlimit:4;stroke-dasharray:none;stroke-opacity:1" />
      <path
         style="fill:#ffffff;fill-opacity:1;stroke-width:0.02635053"
         inkscape:connector-curvature="0"
         d="m 49.660133,188.82988 -1.317532,1.31753 q -0.263509,0.2635 -0.606067,0.2635 -0.342547,0 -0.606056,-0.2635 L 34.851136,177.86805 q -0.263509,-0.26351 -0.263509,-0.60606 0,-0.34256 0.263509,-0.60606 l 12.279342,-12.27936 q 0.263509,-0.26351 0.606056,-0.26351 0.342558,0 0.606067,0.26351 l 1.317532,1.31753 q 0.263498,0.2635 0.263498,0.60606 0,0.34256 -0.263498,0.60606 l -10.355765,10.35577 10.355765,10.35576 q 0.263498,0.2635 0.263498,0.60606 0,0.34256 -0.263498,0.60607 z m 15.573165,-28.11604 -9.828749,34.01856 q -0.105443,0.34256 -0.408438,0.51383 -0.303028,0.17128 -0.619236,0.0659 l -1.63373,-0.44796 q -0.342558,-0.10544 -0.513837,-0.40842 -0.171279,-0.30303 -0.0659,-0.64559 l 9.828741,-34.01855 q 0.105443,-0.34256 0.408438,-0.51385 0.303039,-0.17126 0.619244,-0.0658 l 1.633719,0.44797 q 0.342558,0.10544 0.513837,0.40843 0.171279,0.30302 0.0659,0.64558 z m 17.3123,17.15421 -12.27935,12.27936 q -0.263498,0.2635 -0.606067,0.2635 -0.342547,0 -0.606056,-0.2635 l -1.317522,-1.31753 q -0.263508,-0.26351 -0.263508,-0.60607 0,-0.34256 0.263508,-0.60606 L 78.092359,177.26199 67.736603,166.90622 q -0.263508,-0.2635 -0.263508,-0.60606 0,-0.34256 0.263508,-0.60606 l 1.317522,-1.31753 q 0.263509,-0.26351 0.606056,-0.26351 0.342569,0 0.606067,0.26351 l 12.27935,12.27936 q 0.263509,0.2635 0.263509,0.60606 0,0.34255 -0.263509,0.60606 z"
         id="path8796" />
      <text
         id="text8889"
         y="216.71825"
         x="40.819096"
         style="font-style:normal;font-variant:normal;font-weight:normal;font-stretch:normal;font-size:11.62436199px;line-height:1.25;font-family:sans-serif;-inkscape-font-specification:sans-serif;letter-spacing:0px;word-spacing:-2.52539277px;fill:#000000;fill-opacity:1;stroke:none;stroke-width:0.29060906"
         xml:space="preserve"><tspan
           style="font-size:13.94923496px;fill:#ffffff;fill-opacity:1;stroke-width:0.29060906"
           y="216.71825"
           x="40.819096"
           id="tspan8887"
           sodipodi:role="line">Code</tspan></text>
    </g>
    <g
       transform="matrix(0.08825726,0,0,0.08825726,407.5447,235.03453)"
       style="display:inline;opacity:0.98999999;fill:#ffffff;fill-opacity:1"
       id="g4421"
       inkscape:label="Intel">
      <g
         id="g8457"
         style="fill:#ffffff;fill-opacity:1">
        <path
           d="m 88.79854,84.35368 v 48.12215 H 73.47991 v -60.4873 l 31.62545,0.0314 c 13.43261,0 18.00847,9.47252 18.00847,18.07669 v 42.37928 h -15.29098 v -42.3 c 0,-3.60428 -1.86574,-5.82215 -6.36602,-5.82215 H 88.79854 Z m 104.16449,-0.7227 c -5.23588,0 -9.28815,2.69169 -10.9806,6.34574 -1.00293,2.19391 -1.34768,3.87529 -1.46567,6.56144 h 23.56698 c -0.30235,-6.56144 -3.27795,-12.90718 -11.12071,-12.90718 m -12.44627,23.33285 c 0,7.83538 4.87084,13.60222 13.56719,13.60222 6.76608,0 10.12884,-1.87496 14.041,-5.76684 l 9.46146,9.03373 c -6.05813,5.98071 -12.41493,9.61264 -23.61492,9.61264 -14.66415,0 -28.69778,-7.99578 -28.69778,-31.29913 0,-19.91109 12.2527,-31.18297 28.35302,-31.18297 16.31972,0 25.74799,13.19662 25.74799,30.4824 v 5.51795 h -38.85796 m -28.17419,25.43641 c -12.47946,0 -17.77434,-8.68713 -17.77434,-17.26733 V 55.50842 h 15.29467 v 16.48011 h 11.52999 V 84.35368 H 149.8629 v 29.82054 c 0,3.51394 1.65926,5.46449 5.30778,5.46449 h 6.22221 v 12.76153 h -9.05032 M 59.85003,63.62956 H 44.42632 V 48.97832 h 15.42371 z m 0.0388,69.48232 C 48.33856,132.00202 44.40981,124.99627 44.40981,116.912 l 0.0167,-44.92347 h 15.46244 v 61.12335 z m 183.82912,-1.29238 c -11.52631,-1.1117 -15.43662,-8.10639 -15.43662,-16.1796 V 46.89318 h 15.43662 z M 297.68253,56.82845 C 283.69314,-11.37625 151.29731,-15.694 65.95986,36.25734 v 5.7355 c 85.2508,-43.81176 206.15719,-43.55366 217.17282,19.26582 3.68539,20.77206 -8.01975,42.42906 -28.92455,54.87717 v 16.28654 c 25.16172,-9.20519 50.96686,-39.05523 43.47439,-75.59392 M 142.55855,176.16037 C 83.66229,181.60458 22.28821,173.05572 13.70063,127.03347 9.49718,104.34589 19.83251,80.29588 33.54351,65.35703 v -7.9884 c -24.68238,21.64409 -38.07812,49.0458 -30.36626,81.42344 9.84309,41.51829 62.51713,65.04656 142.91552,57.2333 31.80981,-3.10465 73.44426,-13.33305 102.38908,-29.21952 v -22.56957 c -26.2642,15.63941 -69.72568,28.57239 -105.9233,31.92409"
           id="path4423"
           inkscape:connector-curvature="0"
           style="fill:#ffffff;fill-opacity:1" />
        <path
           d="m 261.56171,51.45816 c 0,-0.74851 -0.43694,-0.98633 -1.43618,-0.98633 h -0.96421 v 2.11831 c 0.14011,0 0.84069,0.0258 0.96421,0.0258 0.99924,0 1.43618,-0.33369 1.43618,-1.03427 v -0.12344 z m 1.50439,5.25247 h -1.14304 c -0.10324,0 -0.19358,-0.0646 -0.23783,-0.15117 l -1.5597,-2.64375 c -0.0277,-0.0534 -0.16224,-0.118 -0.2157,-0.118 h -0.70058 v 2.62163 c 0,0.14012 -0.0959,0.29129 -0.28023,0.29129 h -1.03427 c -0.12905,0 -0.2581,-0.15117 -0.2581,-0.29129 v -6.6315 c 0,-0.38347 0.14933,-0.54386 0.47381,-0.59364 0.36503,-0.0479 1.3569,-0.0811 1.89155,-0.0811 1.89893,0 3.0475,0.56046 3.0475,2.34508 v 0.12345 c 0,1.10433 -0.5494,1.68691 -1.40115,1.97267 l 1.61686,2.73409 c 0.0103,0.0553 0.0479,0.13097 0.0479,0.19542 0,0.10693 -0.0646,0.22677 -0.24705,0.22677 m -2.7138,-8.79406 c -2.81337,0 -5.08839,2.32296 -5.08839,5.11973 0,2.80045 2.27502,5.08654 5.08839,5.08654 2.79861,0 5.09576,-2.28609 5.09576,-5.08654 0,-2.79677 -2.29715,-5.11973 -5.09576,-5.11973 m 0,11.26082 c -3.41807,0 -6.14479,-2.75805 -6.14479,-6.14109 0,-3.37751 2.72672,-6.14294 6.14479,-6.14294 3.3812,0 6.15953,2.76543 6.15953,6.14294 0,3.38304 -2.77833,6.14109 -6.15953,6.14109"
           id="path4425"
           inkscape:connector-curvature="0"
           style="fill:#ffffff;fill-opacity:1" />
      </g>
    </g>
    <text
       xml:space="preserve"
       style="font-style:normal;font-variant:normal;font-weight:normal;font-stretch:normal;font-size:13.42659378px;line-height:1.25;font-family:sans-serif;-inkscape-font-specification:sans-serif;letter-spacing:1.34601605px;word-spacing:0px;fill:#000000;fill-opacity:1;stroke:none;stroke-width:0.33566484"
       x="310.43817"
       y="248.60069"
       id="text2012"><tspan
         sodipodi:role="line"
         id="tspan2010"
         x="310.43817"
         y="248.60069"
         style="letter-spacing:1.34601605px;fill:#ffffff;stroke-width:0.33566484">powered by</tspan></text>
    <path
       style="opacity:1;vector-effect:none;fill:#de8d47;fill-opacity:1;stroke:none;stroke-width:80.29033661;stroke-linecap:butt;stroke-linejoin:round;stroke-miterlimit:4;stroke-dasharray:none;stroke-dashoffset:0;stroke-opacity:1"
       d="m 443.13288,-2.3962391e-7 h 64.86713 V 64.867139 Z"
       id="rect2020"
       inkscape:connector-curvature="0"
       sodipodi:nodetypes="cccc" />
    <g
       id="g10"
       transform="matrix(0.04034848,0,0,-0.04034848,475.16761,33.503097)"
       inkscape:label="Zeus"
       style="display:inline;opacity:0.98999999;fill:#ffffff;fill-opacity:1">
      <g
         id="g12"
         style="fill:#ffffff;fill-opacity:1">
        <g
           id="g14"
           clip-path="url(#clipPath16)"
           style="fill:#ffffff;fill-opacity:1">
          <g
             id="g20"
             transform="translate(2.1416,386.5537)"
             style="fill:#ffffff;fill-opacity:1">
            <path
               d="M 2.389056e-5,5.9047548e-5 H 159.74202 L -3.1439761,-195.09895 v -46.891 H 260.84302 v 59.714 H 93.212024 L 257.70202,12.822058 v 46.889 H 2.389056e-5 Z M 609.68405,-336.26895 h 40.855 v 131.994 h -40.855 z m -72.188,103.709 c 9.177,0 16.151,-3.236 20.962,-9.68 4.808,-6.411 7.228,-15.745 7.228,-28.032 0,-12.29 -2.42,-21.653 -7.228,-28.097 -4.811,-6.409 -11.785,-9.616 -20.962,-9.616 -9.146,0 -16.153,3.237 -21.058,9.711 -4.871,6.505 -7.321,15.808 -7.321,28.002 0,12.192 2.45,21.496 7.321,28.001 4.905,6.474 11.913,9.711 21.058,9.711 m -28.378,-84.852 c 5.906,-7.543 12.414,-13.073 19.548,-16.655 7.134,-3.554 15.336,-5.345 24.639,-5.345 16.467,0 29.981,6.441 40.509,19.357 10.593,12.887 15.871,29.48 15.871,49.782 0,20.302 -5.278,36.895 -15.871,49.778 -10.526,12.918 -24.042,19.359 -40.509,19.359 -9.303,0 -17.505,-1.791 -24.639,-5.342 -7.134,-3.584 -13.642,-9.113 -19.548,-16.656 v 18.856 h -40.855 v -182.278 h 40.855 z m -207.51403,-18.857 h 45.664 l 21.937,90.762 22.062,-90.762 h 45.66403 l 34.477,131.993 h -40.667 l -22.03,-90.069 -21.96803,90.069 h -34.946 l -22.062,-90.981 -21.937,90.983 h -40.667 z m 402.36103,323.699008 c -13.388,3.2360011 -25.802,5.6250011 -37.21,7.1330011 -11.408,1.541 -22.281,2.294 -32.621,2.294 -26.367,0 -45.946,-4.557 -58.738,-13.6390011 -12.758,-9.081 -19.138,-23.035 -19.138,-41.861 0,-17.41 5.248,-30.39 15.714,-38.968 10.465,-8.549008 28.755,-14.426008 54.81,-17.600008 l 9.333,-1.227 c 10.748,-1.319 17.944,-3.206 21.56,-5.625 3.613,-2.419 5.437,-6.097 5.437,-11 0,-5.907 -2.797,-10.339 -8.358,-13.324 -5.562,-2.985 -13.828,-4.463 -24.827,-4.463 -12.194,0 -24.199,1.321 -36.016,3.929 -11.785,2.608 -23.287,6.537 -34.508,11.785 v -43.998 c 13.105,-3.144 25.864,-5.5 38.311,-7.072 12.445,-1.569 24.45,-2.355 36.078,-2.355 27.467,0 48.115,4.684 61.974,14.079 13.859,9.429 20.773,23.506 20.773,42.208 0,17.851 -4.902,30.986 -14.739,39.314008 -9.773,8.359 -28.881,14.361 -57.26,18.039 l -9.334,1.353 c -9.585,1.193 -16.248,3.017 -19.956,5.467 -3.708,2.452 -5.562,5.972 -5.562,10.561 0,5.688 2.482,9.898 7.479,12.602 4.966,2.734 12.57,4.085 22.814,4.085 9.556,0 19.737,-1.319 30.485,-3.927 10.779,-2.609 21.936,-6.537 33.501,-11.785 z M 380.26702,-117.15995 c 0,-23.256 5.248,-40.948 15.776,-53.142 10.52803,-12.162 25.83303,-18.26 45.94603,-18.26 11.281,0 21.652,2.545 31.05,7.668 9.396,5.092 18.259,13.012 26.649,23.759 v -28.285 h 56.568 V -9.4279409 h -56.568 V -96.543942 c 0,-16.060008 -3.3,-28.630008 -9.867,-37.648008 -6.537,-9.021 -15.59,-13.515 -27.122,-13.515 -4.714,0 -8.895,1.005 -12.57,2.984 -3.614,2.012 -6.568,4.841 -8.831,8.518 -1.729,2.828 -2.954,7.386 -3.677,13.576 -0.725,6.254 -1.069,16.468 -1.069,30.643008 0,4.87 0.032,14.487 0.126,28.943 0.094,14.425 0.157,26.431 0.157,35.983 v 17.6320011 h -56.56803 z m -128.223,41.736008 c 1.696,11.155 6.034,19.705 13.011,25.645 6.979,5.939 16.061,8.925 27.216,8.925 10.277,0 18.605,-3.174 24.985,-9.522 6.379,-6.35 9.585,-14.708 9.585,-25.048 z m 131.366,-18.605 c 0,27.592 -8.297,49.654 -24.891,66.122 -16.562,16.53 -38.654,24.7640011 -66.248,24.7640011 -30.358,0 -54.181,-8.2330011 -71.497,-24.7640011 -17.285,-16.468 -25.928,-39.127 -25.928,-67.945 0,-29.320008 8.769,-52.105008 26.272,-68.353008 17.506,-16.248 42.051,-24.355 73.666,-24.355 13.168,0 26.366,1.318 39.565,3.991 13.23,2.64 26.432,6.536 39.63,11.722 v 43.997 c -13.043,-7.384 -25.708,-12.917 -38.059,-16.562 -12.352,-3.613 -24.419,-5.438 -36.172,-5.438 -14.614,0 -25.99,3.395 -34.13,10.214 -8.14,6.82 -12.853,17.033 -14.205,30.642 h 131.995 v 15.965008 z"
               id="path22"
               inkscape:connector-curvature="0"
               style="fill:#ffffff;fill-opacity:1" />
          </g>
        </g>
      </g>
    </g>
  </g>
</svg>
