<?xml version="1.0" encoding="utf-8"?>
<!-- Generator: Adobe Illustrator 16.0.0, SVG Export Plug-In . SVG Version: 6.00 Build 0)  -->
<!DOCTYPE svg PUBLIC "-//W3C//DTD SVG 1.1//EN" "http://www.w3.org/Graphics/SVG/1.1/DTD/svg11.dtd">
<svg version="1.1" xmlns="http://www.w3.org/2000/svg" xmlns:xlink="http://www.w3.org/1999/xlink" x="0px" y="0px" width="670px"
	 height="257px" viewBox="0 0 670 257" enable-background="new 0 0 670 257" xml:space="preserve">
<g id="Background">
	<rect x="-7.87" y="-5.403" fill="#F2F2F2" width="683.966" height="269.987"/>
</g>
<g id="mozaic">
	<g>
		<g>
			<path fill="#FF8F09" d="M263.223,235.591v-39.111L376.016,57.173H275.967V20.845h157.178v33.691L315.518,199.409h122.168v36.182
				H263.223z"/>
		</g>
	</g>
	<g>
		<g>
			<path fill="#5D5D5D" d="M105.62,181.749V74.376h32.446l19.482,73.242l19.263-73.242h32.52v107.373h-20.142V97.228l-21.313,84.521
				h-20.874l-21.24-84.521v84.521H105.62z"/>
		</g>
		<path fill="#5D5D5D" d="M324.118,73.748h-8.931h-85.505v0.349H229v107.085h3.11h17.623h7.192L340,73.748H324.118z
			 M249.732,158.393V91.188h51.968L249.732,158.393z"/>
		<rect x="481" y="73.664" fill="#5D5D5D" width="20.732" height="108.084"/>
		<polygon fill="#5D5D5D" points="580.408,94.248 580.408,73.516 537.732,73.516 537.732,73.339 517,73.339 517,181.424 
			517.823,181.424 517.823,181.748 580.408,181.748 580.408,161.016 537.732,161.016 537.732,94.248 		"/>
		<path fill="#5D5D5D" d="M459.89,73.748h-17.623h-7.192L352,181.182h15.882h8.931h0.278l13.25-17.439h-0.043l16.336-21.125
			l35.633-0.188v21.313h-0.101v17.439h20.151v-0.348H463V73.748H459.89z M420.739,124.377l21.528-27.84v27.727L420.739,124.377z"/>
	</g>
</g>
<g id="Pattern_1_">
	<g>
		<g>
			<g enable-background="new    ">
				<g>
					<path fill="#7F7F7F" d="M120.676,164.461l4.977,8.631L120.676,164.461z"/>
				</g>
				<g>
					<path fill="#7F7F7F" d="M105.727,173.092l4.986-8.631L105.727,173.092z"/>
				</g>
				<g>
					<path fill="#7F7F7F" d="M110.713,164.461h9.963H110.713z"/>
				</g>
				<g>
					<polygon fill="#7F7F7F" points="120.676,164.461 125.653,173.092 120.676,181.723 110.713,181.723 105.727,173.092 
						110.713,164.461 					"/>
				</g>
			</g>
		</g>
	</g>
	<g>
		<g>
			<g enable-background="new    ">
				<g>
					<path fill="#7F7F7F" d="M122.881,181.75l2.88-5.166L122.881,181.75z"/>
				</g>
				<g>
					<polygon fill="#7F7F7F" points="125.761,176.584 125.734,181.795 122.881,181.75 					"/>
				</g>
			</g>
		</g>
	</g>
	<g>
		<g>
			<g enable-background="new    ">
				<g>
					<path fill="#7F7F7F" d="M105.61,176.566l2.871,5.166L105.61,176.566z"/>
				</g>
				<g>
					<polygon fill="#7F7F7F" points="105.61,176.566 108.481,181.732 105.637,181.768 					"/>
				</g>
			</g>
		</g>
	</g>
	<g>
		<g>
			<g enable-background="new    ">
				<g>
					<path fill="#7F7F7F" d="M105.799,132.952l19.935-36.063L105.799,132.952z"/>
				</g>
				<g>
					<polygon fill="#7F7F7F" points="125.734,96.889 125.734,134.986 119.74,130.018 119.461,129.784 119.371,129.847 
						108.913,138.568 105.799,132.952 					"/>
				</g>
			</g>
		</g>
	</g>
	<g>
		<g>
			<g enable-background="new    ">
				<g>
					<path fill="#7F7F7F" d="M119.461,131.908l6.273,5.211L119.461,131.908z"/>
				</g>
				<g>
					<path fill="#7F7F7F" d="M109.714,140.017l9.747-8.108L109.714,140.017z"/>
				</g>
				<g>
					<polygon fill="#7F7F7F" points="119.461,131.908 125.734,137.119 125.734,168.997 109.714,140.017 					"/>
				</g>
			</g>
		</g>
	</g>
	<g>
		<g>
			<g enable-background="new    ">
				<g>
					<path fill="#7F7F7F" d="M105.7,157.765l3.105,5.625L105.7,157.765z"/>
				</g>
				<g>
					<polygon fill="#7F7F7F" points="105.7,157.765 108.805,163.39 105.7,169.006 					"/>
				</g>
			</g>
		</g>
	</g>
	<g>
		<g>
			<g enable-background="new    ">
				<g>
					<path fill="#7F7F7F" d="M111.091,147.748l8.91,14.904L111.091,147.748z"/>
				</g>
				<g>
					<polygon fill="#7F7F7F" points="111.091,147.748 120.001,162.652 111.181,162.769 					"/>
				</g>
			</g>
		</g>
	</g>
	<g>
		<g>
			<g enable-background="new    ">
				<g>
					<path fill="#7F7F7F" d="M105.718,137.911l3.816,7.785L105.718,137.911z"/>
				</g>
				<g>
					<polygon fill="#7F7F7F" points="105.718,137.911 109.534,145.696 109.48,145.831 109.48,161.185 105.655,153.391 
						105.718,153.265 					"/>
				</g>
			</g>
		</g>
	</g>
	<g>
		<g>
			<g enable-background="new    ">
				<g>
					<path fill="#7F7F7F" d="M105.718,91.453l4.752,8.01L105.718,91.453z"/>
				</g>
				<g>
					<polygon fill="#7F7F7F" points="105.718,91.453 110.47,99.463 105.664,102.271 					"/>
				</g>
			</g>
		</g>
	</g>
	<g>
		<g>
			<g enable-background="new    ">
				<g>
					<path fill="#7F7F7F" d="M111.136,100.606l4.923,8.307L111.136,100.606z"/>
				</g>
				<g>
					<path fill="#7F7F7F" d="M105.664,103.873l5.472-3.267L105.664,103.873z"/>
				</g>
				<g>
					<polygon fill="#7F7F7F" points="111.136,100.606 116.059,108.913 105.538,127.831 105.664,103.873 					"/>
				</g>
			</g>
		</g>
	</g>
	<g>
		<g>
			<g enable-background="new    ">
				<g>
					<path fill="#7F7F7F" d="M105.799,74.227l29.313,0.432L105.799,74.227z"/>
				</g>
				<g>
					<polygon fill="#7F7F7F" points="105.799,74.227 135.112,74.659 116.824,107.563 105.727,88.519 					"/>
				</g>
			</g>
		</g>
	</g>
	<g>
		<g>
			<g enable-background="new    ">
				<g>
					<path fill="#7F7F7F" d="M138.19,74.362l2.862,11.457L138.19,74.362z"/>
				</g>
				<g>
					<path fill="#7F7F7F" d="M141.178,85.846l2.115,8.181L141.178,85.846z"/>
				</g>
				<g>
					<path fill="#7F7F7F" d="M126.814,101.452l2.718-10.359L126.814,101.452z"/>
				</g>
				<g>
					<path fill="#7F7F7F" d="M129.532,91.093l4.284-4.644L129.532,91.093z"/>
				</g>
				<g>
					<path fill="#7F7F7F" d="M133.816,86.449l1.17-1.269L133.816,86.449z"/>
				</g>
				<g>
					<path fill="#7F7F7F" d="M134.986,85.18l3.204-10.818L134.986,85.18z"/>
				</g>
				<g>
					<polygon fill="#7F7F7F" points="138.19,74.362 141.052,85.819 141.178,85.846 143.293,94.027 140.557,104.386 134.599,110.848 
						128.911,109.633 127.876,105.61 126.814,101.452 129.532,91.093 133.816,86.449 134.986,85.18 					"/>
				</g>
			</g>
		</g>
	</g>
	<g>
		<g>
			<g enable-background="new    ">
				<g>
					<path fill="#7F7F7F" d="M144.49,98.977l7.263,27.945L144.49,98.977z"/>
				</g>
				<g>
					<path fill="#7F7F7F" d="M140.134,115.024l4.356-16.047L140.134,115.024z"/>
				</g>
				<g>
					<polygon fill="#7F7F7F" points="144.49,98.977 151.753,126.922 140.134,115.024 					"/>
				</g>
			</g>
		</g>
	</g>
	<g>
		<g>
			<g enable-background="new    ">
				<g>
					<path fill="#7F7F7F" d="M136.588,111.334l3.258-3.438L136.588,111.334z"/>
				</g>
				<g>
					<polygon fill="#7F7F7F" points="139.846,107.896 138.784,111.937 136.588,111.334 					"/>
				</g>
			</g>
		</g>
	</g>
	<g>
		<g>
			<g enable-background="new    ">
				<g>
					<path fill="#7F7F7F" d="M129.784,112.09l8.451,2.043L129.784,112.09z"/>
				</g>
				<g>
					<polygon fill="#7F7F7F" points="129.784,112.09 138.235,114.133 134.239,129.883 					"/>
				</g>
			</g>
		</g>
	</g>
	<g>
		<g>
			<g enable-background="new    ">
				<g>
					<path fill="#7F7F7F" d="M142.591,164.146h11.088H142.591z"/>
				</g>
				<g>
					<polygon fill="#7F7F7F" points="153.679,164.146 145.399,175.162 142.591,164.146 					"/>
				</g>
			</g>
		</g>
	</g>
	<g>
		<g>
			<g enable-background="new    ">
				<g>
					<path fill="#7F7F7F" d="M134.545,130.756h16.173H134.545z"/>
				</g>
				<g>
					<polygon fill="#7F7F7F" points="134.545,130.756 150.718,130.756 137.758,144.193 					"/>
				</g>
			</g>
		</g>
	</g>
	<g>
		<g>
			<g enable-background="new    ">
				<g>
					<path fill="#7F7F7F" d="M139.567,117.517l11.844,11.169L139.567,117.517z"/>
				</g>
				<g>
					<path fill="#7F7F7F" d="M136.624,128.686l2.943-11.169L136.624,128.686z"/>
				</g>
				<g>
					<polygon fill="#7F7F7F" points="139.567,117.517 151.411,128.686 136.624,128.686 					"/>
				</g>
			</g>
		</g>
	</g>
	<g>
		<g>
			<g enable-background="new    ">
				<g>
					<path fill="#7F7F7F" d="M139.963,153.139l10.116,1.989L139.963,153.139z"/>
				</g>
				<g>
					<polygon fill="#7F7F7F" points="139.963,153.139 150.079,155.128 142.609,162.94 					"/>
				</g>
			</g>
		</g>
	</g>
	<g>
		<g>
			<g enable-background="new    ">
				<g>
					<path fill="#7F7F7F" d="M152.986,130.756l4.491,16.642L152.986,130.756z"/>
				</g>
				<g>
					<path fill="#7F7F7F" d="M138.118,146.299l14.868-15.543L138.118,146.299z"/>
				</g>
				<g>
					<polygon fill="#7F7F7F" points="152.986,130.756 157.477,147.397 151.213,153.949 139.558,151.654 138.118,146.299 					"/>
				</g>
			</g>
		</g>
	</g>
	<g>
		<g>
			<g enable-background="new    ">
				<g>
					<path fill="#7F7F7F" d="M151.942,155.812l3.204,6.858L151.942,155.812z"/>
				</g>
				<g>
					<path fill="#7F7F7F" d="M145.102,162.67l6.84-6.858L145.102,162.67z"/>
				</g>
				<g>
					<polygon fill="#7F7F7F" points="151.942,155.812 155.146,162.67 145.102,162.67 					"/>
				</g>
			</g>
		</g>
	</g>
	<g>
		<g>
			<g enable-background="new    ">
				<g>
					<path fill="#7F7F7F" d="M157.513,149.971l12.636,12.699L157.513,149.971z"/>
				</g>
				<g>
					<path fill="#7F7F7F" d="M153.013,154.48l4.5-4.51L153.013,154.48z"/>
				</g>
				<g>
					<polygon fill="#7F7F7F" points="157.513,149.971 170.149,162.67 156.838,162.67 153.013,154.48 					"/>
				</g>
			</g>
		</g>
	</g>
	<g>
		<g>
			<g enable-background="new    ">
				<g>
					<path fill="#464646" d="M153.013,154.723l3.717,7.947L153.013,154.723z"/>
				</g>
				<g>
					<path fill="#3F3E3E" d="M151.942,155.812l1.071-1.089L151.942,155.812z"/>
				</g>
				<g>
					<polygon fill="#555555" points="153.013,154.723 156.73,162.67 155.146,162.67 151.942,155.812 					"/>
				</g>
			</g>
		</g>
	</g>
	<g>
		<g>
			<g enable-background="new    ">
				<g>
					<path fill="#1A1A1A" d="M153.769,163.201l0.801,0.603L153.769,163.201z"/>
				</g>
				<g>
					<path fill="#1A1A1A" d="M153.283,163.849l0.486-0.647L153.283,163.849z"/>
				</g>
				<g>
					
						<rect x="153.425" y="163.422" transform="matrix(-0.7991 -0.6012 0.6012 -0.7991 178.4234 387.2823)" fill="#1A1A1A" width="1.002" height="0.81"/>
				</g>
			</g>
		</g>
	</g>
	<g>
		<g>
			<g enable-background="new    ">
				<g>
					<path fill="#3F3E3E" d="M145.399,175.162l8.28-11.016L145.399,175.162z"/>
				</g>
				<g>
					<path fill="#424242" d="M153.679,164.146h1.602H153.679z"/>
				</g>
				<g>
					<polygon fill="#555555" points="155.281,164.146 145.813,176.746 145.399,175.162 153.679,164.146 					"/>
				</g>
			</g>
		</g>
	</g>
	<g>
		<g>
			<g enable-background="new    ">
				<g>
					<path fill="#1A1A1A" d="M154.876,163.858l0.864,0.513L154.876,163.858z"/>
				</g>
				<g>
					<polygon fill="#1A1A1A" points="154.876,163.858 155.74,164.371 155.686,164.443 					"/>
				</g>
			</g>
		</g>
	</g>
	<g>
		<g>
			<g enable-background="new    ">
				<g>
					<path fill="#7F7F7F" d="M159.511,164.146l9.36,12.888L159.511,164.146z"/>
				</g>
				<g>
					<path fill="#7F7F7F" d="M145.813,176.746l9.468-12.6L145.813,176.746z"/>
				</g>
				<g>
					<path fill="#7F7F7F" d="M155.281,164.146h4.23H155.281z"/>
				</g>
				<g>
					<polygon fill="#7F7F7F" points="159.511,164.146 168.871,177.034 167.701,181.624 147.046,181.624 145.813,176.746 
						155.281,164.146 					"/>
				</g>
			</g>
		</g>
	</g>
	<g>
		<g>
			<g enable-background="new    ">
				<g>
					<path fill="#7F7F7F" d="M161.149,164.146h11.007H161.149z"/>
				</g>
				<g>
					<polygon fill="#7F7F7F" points="172.156,164.146 169.402,174.982 169.303,175.36 161.149,164.146 					"/>
				</g>
			</g>
		</g>
	</g>
	<g>
		<g>
			<g enable-background="new    ">
				<g>
					<path fill="#7F7F7F" d="M193.603,165.424l14.427,9.513L193.603,165.424z"/>
				</g>
				<g>
					<path fill="#7F7F7F" d="M189.22,173.002l4.383-7.578L189.22,173.002z"/>
				</g>
				<g>
					<polygon fill="#7F7F7F" points="193.603,165.424 208.03,174.937 204.16,181.633 194.197,181.633 189.22,173.002 					"/>
				</g>
			</g>
		</g>
	</g>
	<g>
		<g>
			<g enable-background="new    ">
				<g>
					<path fill="#7F7F7F" d="M204.286,164.335l4.977,8.631L204.286,164.335z"/>
				</g>
				<g>
					<path fill="#7F7F7F" d="M195.097,164.335h9.189H195.097z"/>
				</g>
				<g>
					<polygon fill="#7F7F7F" points="204.286,164.335 209.263,172.966 208.966,173.488 195.097,164.335 					"/>
				</g>
			</g>
		</g>
	</g>
	<g>
		<g>
			<g enable-background="new    ">
				<g>
					<path fill="#7F7F7F" d="M189.193,176.458l2.871,5.166L189.193,176.458z"/>
				</g>
				<g>
					<polygon fill="#7F7F7F" points="189.193,176.458 192.064,181.624 189.22,181.669 					"/>
				</g>
			</g>
		</g>
	</g>
	<g>
		<g>
			<g enable-background="new    ">
				<g>
					<path fill="#7F7F7F" d="M206.473,181.768l2.871-5.166L206.473,181.768z"/>
				</g>
				<g>
					<polygon fill="#7F7F7F" points="209.344,176.602 209.317,181.813 206.473,181.768 					"/>
				</g>
			</g>
		</g>
	</g>
	<g>
		<g>
			<g enable-background="new    ">
				<g>
					<path fill="#7F7F7F" d="M189.391,162.571l2.61,1.719L189.391,162.571z"/>
				</g>
				<g>
					<polygon fill="#7F7F7F" points="189.391,162.571 192.001,164.29 189.391,168.997 					"/>
				</g>
			</g>
		</g>
	</g>
	<g>
		<g>
			<g enable-background="new    ">
				<g>
					<path fill="#7F7F7F" d="M189.391,96.889l19.926,36.063L189.391,96.889z"/>
				</g>
				<g>
					<polygon fill="#7F7F7F" points="189.391,96.889 209.317,132.952 192.793,162.85 189.391,160.609 					"/>
				</g>
			</g>
		</g>
	</g>
	<g>
		<g>
			<g enable-background="new    ">
				<g>
					<path fill="#7F7F7F" d="M206.149,163.516l3.105-5.625L206.149,163.516z"/>
				</g>
				<g>
					<polygon fill="#7F7F7F" points="209.254,157.891 209.254,169.132 206.149,163.516 					"/>
				</g>
			</g>
		</g>
	</g>
	<g>
		<g>
			<g enable-background="new    ">
				<g>
					<path fill="#7F7F7F" d="M195.124,162.652l8.901-14.904L195.124,162.652z"/>
				</g>
				<g>
					<polygon fill="#7F7F7F" points="204.025,147.748 203.935,162.769 195.124,162.652 					"/>
				</g>
			</g>
		</g>
	</g>
	<g>
		<g>
			<g enable-background="new    ">
				<g>
					<path fill="#7F7F7F" d="M205.501,145.912l3.816-7.794L205.501,145.912z"/>
				</g>
				<g>
					<polygon fill="#7F7F7F" points="209.317,138.118 209.317,153.472 209.38,153.607 205.564,161.392 205.564,146.038 
						205.501,145.912 					"/>
				</g>
			</g>
		</g>
	</g>
	<g>
		<g>
			<g enable-background="new    ">
				<g>
					<path fill="#7F7F7F" d="M180.013,74.659l15.966-0.225L180.013,74.659z"/>
				</g>
				<g>
					<polygon fill="#7F7F7F" points="195.979,74.434 188.068,89.158 180.013,74.659 					"/>
				</g>
			</g>
		</g>
	</g>
	<g>
		<g>
			<g enable-background="new    ">
				<g>
					<path fill="#7F7F7F" d="M189.868,89.248l7.974-14.85L189.868,89.248z"/>
				</g>
				<g>
					<path fill="#7F7F7F" d="M197.842,74.398l11.475-0.171L197.842,74.398z"/>
				</g>
				<g>
					<polygon fill="#7F7F7F" points="209.317,74.227 209.389,89.248 189.868,89.248 197.842,74.398 					"/>
				</g>
			</g>
		</g>
	</g>
	<g>
		<g>
			<g enable-background="new    ">
				<g>
					<path fill="#7F7F7F" d="M188.906,91.127h20.367H188.906z"/>
				</g>
				<g>
					<polygon fill="#7F7F7F" points="209.273,91.127 209.453,128.081 188.906,91.127 					"/>
				</g>
			</g>
		</g>
	</g>
	<g>
		<g>
			<g enable-background="new    ">
				<g>
					<path fill="#7F7F7F" d="M181.237,86.458l4.221,4.635L181.237,86.458z"/>
				</g>
				<g>
					<path fill="#7F7F7F" d="M185.458,91.093l2.682,10.359L185.458,91.093z"/>
				</g>
				<g>
					<path fill="#7F7F7F" d="M174.136,102.793l7.101-16.335L174.136,102.793z"/>
				</g>
				<g>
					<polygon fill="#7F7F7F" points="181.237,86.458 185.458,91.093 188.14,101.452 186.07,109.633 180.445,110.848 
						174.559,104.386 174.136,102.793 					"/>
				</g>
			</g>
		</g>
	</g>
	<g>
		<g>
			<g enable-background="new    ">
				<g>
					<path fill="#7F7F7F" d="M176.764,74.362l3.222,10.872L176.764,74.362z"/>
				</g>
				<g>
					<path fill="#7F7F7F" d="M171.661,94.027l2.115-8.181L171.661,94.027z"/>
				</g>
				<g>
					<path fill="#7F7F7F" d="M173.902,85.819l2.862-11.457L173.902,85.819z"/>
				</g>
				<g>
					<polygon fill="#7F7F7F" points="176.764,74.362 179.986,85.234 179.725,85.81 179.662,85.828 178.267,89.014 176.224,93.631 
						173.308,100.246 171.661,94.027 173.776,85.846 173.902,85.819 					"/>
				</g>
			</g>
		</g>
	</g>
	<g>
		<g>
			<g enable-background="new    ">
				<g>
					<path fill="#7F7F7F" d="M166.324,115.582l3.267,4.977L166.324,115.582z"/>
				</g>
				<g>
					<path fill="#7F7F7F" d="M163.372,126.922l2.952-11.34L163.372,126.922z"/>
				</g>
				<g>
					<polygon fill="#7F7F7F" points="166.324,115.582 169.591,120.559 163.372,126.922 					"/>
				</g>
			</g>
		</g>
	</g>
	<g>
		<g>
			<g enable-background="new    ">
				<g>
					<path fill="#7F7F7F" d="M170.626,98.977l4.365,16.056L170.626,98.977z"/>
				</g>
				<g>
					<path fill="#7F7F7F" d="M166.936,113.188l3.69-14.211L166.936,113.188z"/>
				</g>
				<g>
					<polygon fill="#7F7F7F" points="170.626,98.977 174.991,115.033 170.896,119.209 166.936,113.188 					"/>
				</g>
			</g>
		</g>
	</g>
	<g>
		<g>
			<g enable-background="new    ">
				<g>
					<path fill="#7F7F7F" d="M175.27,107.896l3.267,3.438L175.27,107.896z"/>
				</g>
				<g>
					<polygon fill="#7F7F7F" points="175.27,107.896 178.537,111.334 176.332,111.937 					"/>
				</g>
			</g>
		</g>
	</g>
	<g>
		<g>
			<g enable-background="new    ">
				<g>
					<path fill="#7F7F7F" d="M176.89,114.133l8.442-2.043L176.89,114.133z"/>
				</g>
				<g>
					<polygon fill="#7F7F7F" points="185.332,112.09 180.877,129.883 176.89,114.133 					"/>
				</g>
			</g>
		</g>
	</g>
	<g>
		<g>
			<g enable-background="new    ">
				<g>
					<path fill="#7F7F7F" d="M164.407,130.756h16.173H164.407z"/>
				</g>
				<g>
					<polygon fill="#7F7F7F" points="180.58,130.756 177.358,144.193 164.407,130.756 					"/>
				</g>
			</g>
		</g>
	</g>
	<g>
		<g>
			<g enable-background="new    ">
				<g>
					<path fill="#7F7F7F" d="M170.644,122.152l4.293,6.534L170.644,122.152z"/>
				</g>
				<g>
					<path fill="#7F7F7F" d="M163.714,128.686l6.93-6.534L163.714,128.686z"/>
				</g>
				<g>
					<polygon fill="#7F7F7F" points="170.644,122.152 174.937,128.686 163.714,128.686 					"/>
				</g>
			</g>
		</g>
	</g>
	<g>
		<g>
			<g enable-background="new    ">
				<g>
					<path fill="#7F7F7F" d="M175.549,117.517l2.952,11.169L175.549,117.517z"/>
				</g>
				<g>
					<path fill="#7F7F7F" d="M171.994,120.883l3.555-3.366L171.994,120.883z"/>
				</g>
				<g>
					<polygon fill="#7F7F7F" points="175.549,117.517 178.501,128.686 177.133,128.686 171.994,120.883 					"/>
				</g>
			</g>
		</g>
	</g>
	<g>
		<g>
			<g enable-background="new    ">
				<g>
					<path fill="#7F7F7F" d="M162.085,130.765l14.769,15.408L162.085,130.765z"/>
				</g>
				<g>
					<path fill="#7F7F7F" d="M157.621,147.271l4.464-16.506L157.621,147.271z"/>
				</g>
				<g>
					<polygon fill="#7F7F7F" points="162.085,130.765 176.854,146.173 172.39,162.679 157.621,147.271 					"/>
				</g>
			</g>
		</g>
	</g>
	<polygon fill="none" points="78.07,138.65 72.66,141.87 72.66,140.27 77.39,137.51 	"/>
	<g id="Lines">
	</g>
	<g>
		<g>
			<g enable-background="new    ">
				<g>
					<path fill="#7F7F7F" d="M129.838,89.212l5.868-11.646L129.838,89.212z"/>
				</g>
				<g>
					<polygon fill="#7F7F7F" points="135.706,77.566 134.032,84.019 132.601,85.801 129.928,89.104 129.838,89.212 					"/>
				</g>
			</g>
		</g>
	</g>
	<path fill="#808080" d="M236.31,121.59l13.42-6.45V95.6L236.31,121.59z M234.01,124.73l-5.01,2.4v29.17l8.61-22.109L234.01,124.73z
		 M236.31,121.59l13.42-6.45V95.6L236.31,121.59z M236.31,121.59l13.42-6.45V95.6L236.31,121.59z M235.66,123.93l3.27,8.57
		l10.8,1.26v-16.59L235.66,123.93z M236.31,121.59l13.42-6.45V95.6L236.31,121.59z M235.66,123.93l3.27,8.57l10.8,1.26v-16.59
		L235.66,123.93z M261.58,81.88l-0.1,0.31l0.53-0.17L261.58,81.88z M261.58,81.88l-0.1,0.31l0.53-0.17L261.58,81.88z M291.84,73.58
		h-42.82l13.69,8.65l-0.01,0.02l26.57,8.77h8.98L291.84,73.58z M293.3,73.58l6.41,17.44h1.99l-2.53,3.27l19.77,6.52L340,73.58H293.3
		z M235.85,143.76L229,161.35v2.521l18.2-8.44L235.85,143.76z M242.53,167.62L229,170.23v10.779h16.07L242.53,167.62z M243.9,167.35
		l1.12,5.92l3.91-6.89L243.9,167.35z M253.25,161.65l-7.82,13.77l1.03,5.41l-0.85,0.18h11.31l6.71-8.68L253.25,161.65z
		 M249.82,158.12l-0.09,0.11v-0.2l-1.52-1.561L229,165.38v3.351l20.88-4.021l2.34-4.11L249.82,158.12z M239.49,134.41l-3.09,7.95
		l13.33,13.699V135.6L239.49,134.41z M256.38,162.9l8.11,8.33l12.05-15.591L256.38,162.9z M281.26,137.18l-6.33,2.28l-0.07,0.12
		l-7.58,12.7l0.97,4.89l9.85-3.55l6.24-8.061L281.26,137.18z M282.49,136.46l-0.03,0.021l0.09,0.239l2.78,7.55l25.68-33.2
		L282.49,136.46z M266.94,157.62l-2.51-12.61l-5.24,0.98l-8.53,11.029l4.67,4.801l11.71-4.221L266.94,157.62z M265.78,144.75
		l1.1,5.51l3.85-6.439L265.78,144.75z M273.78,137.92l-2.68-7.32l-10.64,13.76l11.21-2.11v-0.01l1.98-3.32l0.31-0.52L273.78,137.92z
		 M281.11,117.64l-9.02,11.67l1.67,4.57l11.38-5.28L281.11,117.64z M311.1,100.22l-22.89,8.25l-6.1,7.89l4.29,11.66l7.29-3.38
		l0.02-0.01l21.85-19.45l2.15-2.78L311.1,100.22z M297.94,95.88l-8.17,10.56l19.22-6.92L297.94,95.88z M274.24,135.16l1,2.72
		l5.99-2.149l8.92-7.94L274.24,135.16z M261.58,81.88l-0.1,0.31l0.53-0.17L261.58,81.88z M261.58,81.88l-0.1,0.31l0.53-0.17
		L261.58,81.88z M245.47,73.58h-15.79v0.35H229v18.49l30.89-9.73L245.47,73.58z M261.98,84.02l-13.93,4.39l4.13,2.61h31.03
		L261.98,84.02z M245.69,89.15h-0.01L229,94.41v19.05l7.12,4.49l13.57-26.27L245.69,89.15z M229,115.69v9.41l4.57-2.2l1.68-3.26
		L229,115.69z M235.66,123.93l3.27,8.57l10.8,1.26v-16.59L235.66,123.93z M236.31,121.59l13.42-6.45V95.6L236.31,121.59z
		 M235.66,123.93l3.27,8.57l10.8,1.26v-16.59L235.66,123.93z M236.31,121.59l13.42-6.45V95.6L236.31,121.59z M236.31,121.59
		l13.42-6.45V95.6L236.31,121.59z"/>
	<path fill="#808080" d="M245.02,173.27l-1.12-5.92l5.03-0.97L245.02,173.27z M266.88,150.26l-1.1-5.51l4.95-0.93L266.88,150.26z
		 M281.23,135.73l-5.99,2.149l-1-2.72l15.91-7.37L281.23,135.73z"/>
	<polygon fill="#1A1A1A" points="274.33,139.18 274.26,139.21 273.96,138.4 274.04,138.27 274.08,138.3 274.02,138.32 	"/>
	<polygon fill="#1A1A1A" points="245.61,181.01 245.09,181.12 245.07,181.01 	"/>
	<polygon fill="#808080" points="493.27,110.83 481,123.95 481,116.02 	"/>
	<polygon fill="#808080" points="495.27,173.75 481,171.07 481,151.61 484.33,151.08 	"/>
	<polygon fill="#808080" points="501.73,148.33 501.73,174.96 497.71,174.21 486.4,150.76 	"/>
	<polygon fill="#808080" points="501.73,177 501.73,181.83 481,181.83 481,173.1 	"/>
	<polygon fill="#808080" points="489.82,136.21 489.79,136.33 489.75,136.23 	"/>
	<polygon fill="#808080" points="489.98,136.14 489.82,136.21 489.84,136.11 	"/>
	<polygon fill="#808080" points="491.76,136.89 491.66,137.14 491.72,136.87 	"/>
	<polygon fill="#808080" points="494.47,134.49 489.99,136.14 489.98,136.14 481,132.33 481,126.87 484.24,123.41 	"/>
	<polygon fill="#808080" points="491.66,137.14 491.52,137.7 491.4,137.75 	"/>
	<polygon fill="#808080" points="490.73,148.05 481,149.59 481,134.51 489.38,138.06 488.24,142.86 488.37,142.89 488.27,142.94 	
		"/>
	<polygon fill="#808080" points="501.73,142.35 501.73,146.31 492.8,147.72 490.35,142.65 491.52,137.7 495.94,136.07 	"/>
	<polygon fill="#808080" points="499.69,137.19 485.62,121.93 490.05,117.19 	"/>
	<polygon fill="#808080" points="501.73,107.25 501.73,136.82 491.51,115.63 497.79,108.92 	"/>
	<polygon fill="#808080" points="485.87,88.62 481.14,91.75 481,91.84 481,87.72 	"/>
	<polygon fill="#808080" points="501.73,73.75 501.73,78.14 488.28,87.03 481,85.68 481,73.75 	"/>
	<polygon fill="#808080" points="501.73,80.53 501.73,89.53 491.1,87.56 	"/>
	<polygon fill="#808080" points="488.12,110.83 481,113.85 481,96.05 	"/>
	<polygon fill="#808080" points="501.73,91.56 501.73,105.08 496.75,107.18 496.63,107.23 489.97,110.05 482.02,93.56 488.7,89.15 	
		"/>
	<polygon fill="#808080" points="523.95,95.68 517,98.62 517,94.39 	"/>
	<polygon fill="#808080" points="544.6,86.94 527.3,94.26 517,92.36 517,73.42 537.62,73.42 	"/>
	<polygon fill="#808080" points="563.26,77.04 560.95,80.02 545.98,86.36 539.39,73.6 543.01,73.6 543,73.66 	"/>
	<polygon fill="#808080" points="566.65,77.61 564.25,78.62 565.22,77.37 	"/>
	<polygon fill="#808080" points="565.93,73.6 564.34,75.65 552.11,73.6 	"/>
	<polygon fill="#808080" points="576.13,73.6 569.33,76.48 566.31,75.97 568.15,73.6 	"/>
	<polygon fill="#808080" points="535.66,92.9 537.2,96.1 530.87,94.93 	"/>
	<polygon fill="#808080" points="580.41,73.97 580.41,78.33 573.02,77.09 	"/>
	<polygon fill="#808080" points="548.41,94.33 538.57,94.33 537.5,92.12 545.52,88.73 	"/>
	<polygon fill="#808080" points="550.09,94.33 549.86,94.33 550,94.15 	"/>
	<polygon fill="#808080" points="555.58,86.96 550,94.15 546.9,88.14 553,85.56 	"/>
	<polygon fill="#808080" points="569.19,94.33 552.08,94.33 557.14,87.8 	"/>
	<polygon fill="#808080" points="558.44,83.26 556.51,85.75 554.78,84.81 	"/>
	<polygon fill="#808080" points="580.41,79.91 580.41,94.33 572.35,94.33 558.07,86.6 561.74,81.87 570.34,78.23 	"/>
	<polygon fill="#808080" points="528.46,121.94 519.93,132.94 519.73,133.21 517,131.74 517,100.79 520.54,99.29 	"/>
	<polygon fill="#808080" points="537.73,98.23 537.73,109.98 529.83,120.17 522.27,98.56 527.52,96.34 	"/>
	<polygon fill="#808080" points="537.73,112.85 537.73,126.44 526.58,127.23 	"/>
	<polygon fill="#808080" points="537.73,128.32 537.73,142.89 521.29,134.05 521.5,133.79 525.03,129.23 	"/>
	<polygon fill="#808080" points="580.41,161.1 580.41,165.84 571.59,161.1 	"/>
	<polygon fill="#808080" points="518.76,134.46 517,136.73 517,133.52 	"/>
	<polygon fill="#808080" points="518.95,154.71 517,155.91 517,150.93 	"/>
	<polygon fill="#808080" points="536.4,143.95 536.36,143.97 520.22,153.92 517,147.69 517,139.59 520.32,135.31 524.95,137.79 	"/>
	<polygon fill="#808080" points="528.49,173.2 517,180.03 517,157.75 519.67,156.1 519.84,156.43 	"/>
	<polygon fill="#808080" points="548.83,161.1 529.78,172.43 521.11,155.66 520.94,155.32 537.73,144.97 537.73,161.1 	"/>
	<polygon fill="#808080" points="550.06,170.82 536.5,170.24 543.79,165.91 	"/>
	<polygon fill="#808080" points="573.45,163.87 562,171.33 561.99,171.33 552.64,170.93 545.17,165.09 551.83,161.13 551.81,161.1 
		568.29,161.1 	"/>
	<polygon fill="#808080" points="580.41,167.61 580.41,179.4 564.09,172.21 575.33,164.88 	"/>
	<polygon fill="#808080" points="517.82,181.83 517.82,181.51 517.55,181.51 529.2,174.58 532.95,181.83 	"/>
	<polygon fill="#808080" points="564.15,181.83 534.63,181.83 530.49,173.82 533.75,171.88 533.74,172 552.6,172.8 	"/>
	<polygon fill="#808080" points="580.41,181.45 580.41,181.83 566.58,181.83 555.17,172.91 562.02,173.21 561.97,173.32 	"/>
	<path fill="#808080" d="M437.74,124.82v-0.01l-0.33-0.43l-4.86,0.02l-15.39,16.46l22.25-9.42L437.74,124.82z M442.27,122.07v2.28
		l-2.54,0.01h-0.04l0.03,0.13l1.56,6.16l21.72-9.19v-2.67L442.27,122.07z M437.74,124.82v-0.01l-0.33-0.43l-4.86,0.02l-15.39,16.46
		l22.25-9.42L437.74,124.82z M371.76,155.7l-5.01,6.479l12.07-5.109L371.76,155.7z M391,130.83l-17.97,23.229l8.86,1.721l10.69-4.53
		L391,130.83z M407.88,109l-1.47,1.9h0.65l0.01,2.9l3.7-1.02L407.88,109z M403.38,114.82l1.84-0.51v-1.87L403.38,114.82z
		 M416.78,97.49l-7.73,10l3.64,4.75l12.71-3.52L416.78,97.49z M457.17,73.83l-8.8,15.84l12.08,15.75l2.55-1.68V73.83H457.17z
		 M440.42,73.83l-0.88,4.33l7.6,9.91l7.91-14.24H440.42z M435.08,73.83l-10.3,13.33l11.99-4.58l1.76-8.75H435.08z M436.48,84.68
		l-13.89,5.3l-4.63,5.99l9.37,12.22l7.63-2.11l1.92-2.49L436.48,84.68z M447.39,91.44l-4.5,8.1l-0.62-0.34v18.24l16.63-10.99
		L447.39,91.44z M442.27,96.84l3.89-7l-7.1-9.27l-0.66,3.26l-0.09-0.02l-0.04-0.01l0.05,0.14v0.03l0.37,17.28l3.58-4.63V96.84z
		 M411.98,114.36l-4.9,1.36l0.12,26.98l5.54-0.03l11.51-12.32L411.98,114.36z M405.23,116.23l-3.74,1.03l-8.8,11.38l1.7,21.85
		l9.24-3.91l1.73-2.23L405.23,116.23z M426.62,110.31l-12.71,3.52l7.49,9.77l7.74-10L426.62,110.31z M422.06,124.45l3.47,4.53
		l4.27-4.57L422.06,124.45z M428.55,109.78l1.76,2.3l2.75-3.55L428.55,109.78z M460.12,108.04l-17.85,11.8v0.21l20.73-3.28v-4.98
		L460.12,108.04z M461.67,107.02l1.33,1.73v-2.61L461.67,107.02z M448.38,158.83l-0.53,0.57l0.64-0.16L448.38,158.83z
		 M441.77,132.62l6.61,26.21L463,143.2v-19.56L441.77,132.62z M451.43,158.51L463,155.61v-9.48L451.43,158.51z M448.76,176.97
		l6.01,4.29h7.55v-0.34H463v-21.75L448.76,176.97z M448.91,161.2l-6.74,7.21v3.84l4.96,3.55h0.01l14.16-17.7L448.91,161.2z
		 M442.17,174.72v6.54h9.15L442.17,174.72z M442.27,142.78v21.05h-0.1v1.65l4.59-4.91L442.27,142.78z M439.91,133.41l-21.83,9.229
		l24.12-0.13L439.91,133.41z M360.07,170.82L352,181.26h16.07L360.07,170.82z M393.35,159.89l-10.99-2.13h-0.01l-18.09,7.65
		l-3.02,3.899l9.17,11.95h6.68l13.25-17.43h-0.04L393.35,159.89z M385.42,156.46l9.2,1.78l6.52-8.431L385.42,156.46z"/>
	<polygon fill="#808080" points="132.6,85.8 129.93,89.1 131.89,85.42 	"/>
	<g>
		<polygon fill="#808080" points="128.109,93.115 126.259,96.583 126.778,98.43 126.778,98.329 126.815,98.329 126.804,98.282 
			127.782,94.555 128.125,93.095 		"/>
	</g>
	<g>
		<g>
			<g enable-background="new    ">
				<g>
					<path fill="#7F7F7F" d="M179.469,78.191l5.868,11.646L179.469,78.191z"/>
				</g>
				<g>
					<polygon fill="#7F7F7F" points="179.469,78.191 185.337,89.837 185.247,89.729 182.574,86.426 181.143,84.644 					"/>
				</g>
			</g>
		</g>
	</g>
	<g>
		<polygon fill="#808080" points="186.818,92.543 188.606,96.045 188.054,97.882 188.056,97.78 188.019,97.78 188.032,97.733 
			187.119,93.99 186.802,92.523 		"/>
	</g>
</g>
<g id="Icon">
	<g id="Pattern">
	</g>
	<g id="MoZaic">
	</g>
</g>
</svg>
