<?xml version="1.0" encoding="utf-8"?>
<!-- Generator: Adobe Illustrator 16.0.0, SVG Export Plug-In . SVG Version: 6.00 Build 0)  -->
<!DOCTYPE svg PUBLIC "-//W3C//DTD SVG 1.1//EN" "http://www.w3.org/Graphics/SVG/1.1/DTD/svg11.dtd">
<svg version="1.1" xmlns="http://www.w3.org/2000/svg" xmlns:xlink="http://www.w3.org/1999/xlink" x="0px" y="0px" width="223px"
	 height="293px" viewBox="0 0 223 293" enable-background="new 0 0 223 293" xml:space="preserve">
<g id="Background">
	<rect x="-4.87" y="-8.5" fill="#F2F2F2" width="233.87" height="307.584"/>
</g>
<g id="Pattern_1_">
</g>
<g id="mozaic">
</g>
<g id="Icon">
	<g id="Pattern">
		<polygon fill="#CAC8BC" points="95.129,204 90.335,201.344 85.608,204.116 85.674,209.545 90.47,212.201 95.197,209.429 		"/>
		<polygon fill="#CAC8BC" points="20.771,209.769 25.566,212.424 30.294,209.652 30.227,204.226 25.432,201.568 20.704,204.341 		
			"/>
		<polygon fill="#CAC8BC" points="31.556,209.638 36.351,212.295 41.079,209.522 41.012,204.094 36.216,201.438 31.487,204.21 		"/>
		<polygon fill="#CAC8BC" points="36.833,200.325 41.628,202.982 46.356,200.21 46.289,194.781 41.493,192.123 36.765,194.896 		"/>
		<polygon fill="#CAC8BC" points="42.342,209.647 47.136,212.303 51.865,209.533 51.798,204.104 47.002,201.446 42.274,204.22 		"/>
		<polygon fill="#CAC8BC" points="47.617,200.195 52.413,202.853 57.141,200.08 57.074,194.651 52.279,191.992 47.55,194.766 		"/>
		<polygon fill="#CAC8BC" points="52.894,190.882 57.69,193.54 62.418,190.767 62.351,185.338 57.555,182.682 52.828,185.453 		"/>
		<polygon fill="#CAC8BC" points="58.404,200.204 63.2,202.861 67.927,200.09 67.861,194.66 63.065,192.004 58.337,194.775 		"/>
		<polygon fill="#CAC8BC" points="31.179,190.726 35.974,193.381 40.703,190.61 40.635,185.18 35.839,182.522 31.111,185.297 		"/>
		<polygon fill="#CAC8BC" points="36.456,181.412 41.251,184.068 45.979,181.297 45.913,175.869 41.117,173.211 36.388,175.983 		
			"/>
		<polygon fill="#CAC8BC" points="41.965,190.734 46.759,193.392 51.487,190.619 51.42,185.189 46.625,182.534 41.897,185.306 		"/>
		<polygon fill="#CAC8BC" points="8.795,204.203 4,201.547 -0.727,204.318 -0.661,209.747 4.134,212.404 8.863,209.633 		"/>
		<polygon fill="#CAC8BC" points="14.141,200.319 14.073,194.893 9.278,192.233 4.549,195.008 4.616,200.435 9.413,203.092 		"/>
		<polygon fill="#CAC8BC" points="15.403,200.305 20.197,202.961 24.925,200.188 24.858,194.76 20.062,192.104 15.335,194.877 		"/>
		<polygon fill="#CAC8BC" points="20.679,190.992 25.475,193.649 30.203,190.876 30.135,185.447 25.341,182.791 20.613,185.563 		
			"/>
		<polygon fill="#CAC8BC" points="26.188,200.313 30.983,202.97 35.71,200.198 35.644,194.77 30.85,192.113 26.121,194.885 		"/>
		<polygon fill="#CAC8BC" points="8.419,185.292 3.624,182.632 -1.104,185.405 -1.037,190.835 3.758,193.491 8.486,190.719 		"/>
		<polygon fill="#CAC8BC" points="15.171,181.668 19.966,184.328 24.694,181.553 24.627,176.126 19.831,173.469 15.104,176.241 		
			"/>
		<polygon fill="#CAC8BC" points="25.957,181.68 30.752,184.336 35.479,181.563 35.413,176.136 30.618,173.478 25.89,176.25 		"/>
		<polygon fill="#CAC8BC" points="47.244,181.421 52.037,184.078 56.766,181.307 56.699,175.879 51.903,173.22 47.176,175.993 		"/>
		<polygon fill="#CAC8BC" points="58.029,181.432 62.825,184.088 67.552,181.316 67.485,175.887 62.69,173.23 57.961,176.004 		"/>
		<polygon fill="#CAC8BC" points="53.127,209.657 57.923,212.313 62.652,209.543 62.584,204.112 57.789,201.457 53.061,204.229 		
			"/>
		<polygon fill="#CAC8BC" points="64.147,209.384 68.943,212.04 73.672,209.269 73.604,203.839 68.808,201.184 64.08,203.955 		"/>
		<polygon fill="#CAC8BC" points="69.424,200.071 74.221,202.729 78.949,199.957 78.88,194.527 74.085,191.87 69.357,194.642 		"/>
		<polygon fill="#CAC8BC" points="74.935,209.395 79.73,212.049 84.457,209.277 84.39,203.85 79.596,201.193 74.867,203.964 		"/>
		<polygon fill="#CAC8BC" points="89.667,194.396 84.871,191.739 80.142,194.514 80.209,199.941 85.006,202.599 89.734,199.826 		
			"/>
		<polygon fill="#CAC8BC" points="94.945,185.084 90.149,182.427 85.421,185.199 85.488,190.628 90.284,193.284 95.013,190.513 		
			"/>
		<polygon fill="#CAC8BC" points="100.452,194.407 95.657,191.75 90.928,194.522 90.995,199.951 95.791,202.607 100.519,199.836 		
			"/>
		<polygon fill="#CAC8BC" points="63.771,190.471 68.566,193.128 73.295,190.355 73.228,184.927 68.432,182.27 63.705,185.04 		"/>
		<polygon fill="#CAC8BC" points="78.505,175.614 73.708,172.957 68.981,175.73 69.049,181.158 73.843,183.814 78.572,181.042 		"/>
		<polygon fill="#CAC8BC" points="74.557,190.479 79.353,193.137 84.081,190.364 84.013,184.937 79.217,182.278 74.49,185.052 		"/>
		<polygon fill="#CAC8BC" points="89.528,175.667 84.733,173.01 80.005,175.782 80.071,181.212 84.867,183.868 89.597,181.096 		"/>
		<polygon fill="#CAC8BC" points="100.382,175.667 95.587,173.01 90.859,175.782 90.926,181.212 95.722,183.868 100.45,181.096 		
			"/>
		<polygon fill="#CAC8BC" points="192.62,203.805 187.827,201.148 183.098,203.922 183.166,209.35 187.961,212.006 192.688,209.233 
					"/>
		<polygon fill="#CAC8BC" points="118.261,209.574 123.057,212.229 127.785,209.458 127.717,204.031 122.922,201.374 
			118.194,204.146 		"/>
		<polygon fill="#CAC8BC" points="129.046,209.442 133.842,212.101 138.57,209.329 138.503,203.898 133.707,201.242 
			128.978,204.015 		"/>
		<polygon fill="#CAC8BC" points="134.323,200.131 139.119,202.787 143.847,200.015 143.78,194.586 138.984,191.929 
			134.256,194.701 		"/>
		<polygon fill="#CAC8BC" points="139.833,209.452 144.627,212.107 149.355,209.338 149.289,203.909 144.493,201.251 
			139.765,204.023 		"/>
		<polygon fill="#CAC8BC" points="145.108,200.001 149.904,202.657 154.632,199.885 154.564,194.456 149.769,191.798 
			145.041,194.57 		"/>
		<polygon fill="#CAC8BC" points="150.385,190.688 155.181,193.345 159.909,190.571 159.841,185.143 155.046,182.486 
			150.318,185.259 		"/>
		<polygon fill="#CAC8BC" points="155.895,200.01 160.69,202.666 165.418,199.895 165.351,194.466 160.555,191.809 155.828,194.581 
					"/>
		<polygon fill="#CAC8BC" points="128.669,190.531 133.465,193.187 138.193,190.415 138.125,184.985 133.33,182.327 
			128.602,185.102 		"/>
		<polygon fill="#CAC8BC" points="133.947,181.218 138.742,183.874 143.47,181.102 143.403,175.675 138.607,173.017 
			133.879,175.788 		"/>
		<polygon fill="#CAC8BC" points="139.456,190.539 144.25,193.196 148.978,190.425 148.911,184.995 144.115,182.339 
			139.388,185.111 		"/>
		<polygon fill="#CAC8BC" points="106.286,204.009 101.49,201.352 96.763,204.123 96.83,209.552 101.625,212.21 106.353,209.438 		
			"/>
		<polygon fill="#CAC8BC" points="111.631,200.125 111.563,194.698 106.768,192.038 102.04,194.813 102.107,200.241 
			106.903,202.896 		"/>
		<polygon fill="#CAC8BC" points="117.072,204.018 112.277,201.36 107.549,204.134 107.617,209.561 112.412,212.219 
			117.139,209.445 		"/>
		<polygon fill="#CAC8BC" points="112.893,200.109 117.688,202.766 122.416,199.994 122.349,194.566 117.553,191.908 
			112.825,194.682 		"/>
		<polygon fill="#CAC8BC" points="118.17,190.797 122.966,193.455 127.692,190.682 127.625,185.252 122.832,182.596 
			118.103,185.368 		"/>
		<polygon fill="#CAC8BC" points="123.679,200.119 128.474,202.775 133.201,200.004 133.134,194.575 128.34,191.919 123.611,194.69 
					"/>
		<polygon fill="#CAC8BC" points="105.91,185.097 101.114,182.438 96.387,185.21 96.454,190.641 101.249,193.296 105.977,190.523 		
			"/>
		<polygon fill="#CAC8BC" points="101.731,181.326 106.527,183.983 111.255,181.211 111.187,175.783 106.392,173.126 
			101.664,175.898 		"/>
		<polygon fill="#CAC8BC" points="107.24,190.648 112.035,193.307 116.763,190.533 116.696,185.105 111.9,182.447 107.172,185.22 		
			"/>
		<polygon fill="#CAC8BC" points="112.662,181.474 117.457,184.133 122.185,181.358 122.118,175.931 117.321,173.273 
			112.595,176.047 		"/>
		<polygon fill="#CAC8BC" points="123.448,181.484 128.242,184.142 132.97,181.369 132.903,175.941 128.108,173.282 123.38,176.056 
					"/>
		<polygon fill="#CAC8BC" points="144.734,181.226 149.528,183.883 154.256,181.112 154.189,175.685 149.394,173.025 
			144.667,175.799 		"/>
		<polygon fill="#CAC8BC" points="155.52,181.236 160.315,183.893 165.043,181.121 164.976,175.692 160.18,173.036 155.452,175.808 
					"/>
		<polygon fill="#CAC8BC" points="150.617,209.463 155.414,212.119 160.142,209.349 160.074,203.918 155.279,201.262 
			150.551,204.033 		"/>
		<polygon fill="#CAC8BC" points="161.638,209.188 166.434,211.845 171.163,209.074 171.095,203.644 166.299,200.989 
			161.571,203.762 		"/>
		<polygon fill="#CAC8BC" points="166.915,199.876 171.711,202.535 176.439,199.762 176.371,194.333 171.576,191.676 
			166.848,194.446 		"/>
		<polygon fill="#CAC8BC" points="172.426,209.2 177.221,211.854 181.948,209.083 181.88,203.655 177.086,200.998 172.357,203.769 
					"/>
		<polygon fill="#CAC8BC" points="187.157,194.201 182.361,191.545 177.632,194.318 177.7,199.746 182.497,202.403 187.225,199.631 
					"/>
		<polygon fill="#CAC8BC" points="192.436,184.889 187.64,182.232 182.912,185.004 182.979,190.434 187.774,193.09 192.502,190.317 
					"/>
		<polygon fill="#CAC8BC" points="197.942,194.212 193.147,191.555 188.418,194.327 188.485,199.756 193.282,202.412 198.01,199.64 
					"/>
		<polygon fill="#CAC8BC" points="161.262,190.276 166.057,192.934 170.785,190.161 170.718,184.731 165.923,182.075 
			161.195,184.846 		"/>
		<polygon fill="#CAC8BC" points="175.995,175.42 171.199,172.763 166.472,175.535 166.539,180.963 171.333,183.619 
			176.062,180.847 		"/>
		<polygon fill="#CAC8BC" points="172.047,190.285 176.843,192.942 181.571,190.17 181.504,184.741 176.708,182.084 171.98,184.856 
					"/>
		<polygon fill="#CAC8BC" points="187.019,175.473 182.223,172.814 177.496,175.587 177.562,181.018 182.357,183.673 187.086,180.9 
					"/>
		<polygon fill="#CAC8BC" points="197.873,175.473 193.078,172.814 188.35,175.587 188.417,181.018 193.212,183.673 197.94,180.9 		
			"/>
		<polygon fill="#CAC8BC" points="122.822,250.78 118.014,248.117 113.274,250.895 113.342,256.338 118.149,259.001 122.89,256.223 
					"/>
		<polygon fill="#CAC8BC" points="144.591,250.937 139.785,248.274 135.044,251.053 135.112,256.497 139.92,259.16 144.66,256.38 		
			"/>
		<polygon fill="#CAC8BC" points="139.302,260.273 134.495,257.608 129.754,260.391 129.822,265.831 134.629,268.493 
			139.37,265.717 		"/>
		<polygon fill="#CAC8BC" points="133.778,250.928 128.972,248.265 124.231,251.044 124.299,256.486 129.106,259.149 
			133.846,256.37 		"/>
		<polygon fill="#CAC8BC" points="155.117,250.668 150.31,248.007 145.569,250.785 145.638,256.228 150.445,258.892 
			155.185,256.112 		"/>
		<polygon fill="#CAC8BC" points="167.409,256.387 172.217,259.049 176.956,256.269 176.888,250.828 172.082,248.164 
			167.341,250.943 		"/>
		<polygon fill="#CAC8BC" points="171.598,260.163 166.79,257.5 162.05,260.281 162.118,265.722 166.925,268.385 171.666,265.606 		
			"/>
		<polygon fill="#CAC8BC" points="166.075,250.819 161.268,248.154 156.526,250.935 156.594,256.375 161.403,259.039 
			166.142,256.261 		"/>
		<polygon fill="#CAC8BC" points="160.64,260.016 155.833,257.352 151.093,260.131 151.16,265.573 155.968,268.236 160.707,265.458 
					"/>
		<polygon fill="#CAC8BC" points="155.35,269.353 150.542,266.688 145.802,269.466 145.869,274.909 150.676,277.573 
			155.417,274.795 		"/>
		<polygon fill="#CAC8BC" points="149.827,260.006 145.019,257.343 140.281,260.121 140.348,265.563 145.153,268.228 
			149.894,265.448 		"/>
		<polygon fill="#CAC8BC" points="139.247,278.818 134.439,276.154 129.7,278.935 129.766,284.376 134.575,287.038 139.314,284.261 
					"/>
		<polygon fill="#CAC8BC" points="173.072,265.589 177.878,268.253 182.619,265.474 182.551,260.031 177.744,257.368 
			173.004,260.148 		"/>
		<polygon fill="#CAC8BC" points="172.04,284.286 171.972,278.844 167.165,276.181 162.423,278.96 162.492,284.4 167.299,287.065 		
			"/>
		<polygon fill="#CAC8BC" points="166.449,269.499 161.641,266.833 156.901,269.613 156.968,275.056 161.776,277.719 
			166.516,274.94 		"/>
		<polygon fill="#CAC8BC" points="123.264,275.043 123.196,269.6 118.391,266.936 113.65,269.716 113.718,275.158 118.526,277.821 
					"/>
		<polygon fill="#CAC8BC" points="117.675,260.254 112.867,257.592 108.127,260.37 108.195,265.811 113.003,268.476 
			117.742,265.696 		"/>
		<polygon fill="#CAC8BC" points="112.453,275.173 112.385,269.73 107.578,267.066 102.837,269.846 102.905,275.29 107.712,277.953 
					"/>
		<polygon fill="#CAC8BC" points="107.161,284.507 107.094,279.068 102.286,276.403 97.547,279.181 97.615,284.625 102.421,287.288 
					"/>
		<polygon fill="#CAC8BC" points="145.197,288.159 140.388,285.495 135.648,288.273 135.716,293.716 140.523,296.381 
			145.264,293.601 		"/>
		<polygon fill="#CAC8BC" points="198.617,250.789 193.808,248.124 189.068,250.904 189.137,256.347 193.943,259.01 198.683,256.23 
					"/>
		<polygon fill="#CAC8BC" points="80.666,256.592 85.474,259.257 90.214,256.478 90.146,251.035 85.339,248.372 80.6,251.149 		"/>
		<polygon fill="#CAC8BC" points="111.919,251.191 107.11,248.528 102.37,251.309 102.438,256.75 107.246,259.414 111.985,256.634 
					"/>
		<polygon fill="#CAC8BC" points="101.106,251.184 96.298,248.519 91.558,251.298 91.625,256.74 96.433,259.404 101.173,256.626 		
			"/>
		<polygon fill="#CAC8BC" points="48.132,256.518 52.939,259.182 57.679,256.402 57.612,250.961 52.805,248.298 48.064,251.075 		
			"/>
		<polygon fill="#CAC8BC" points="69.904,256.675 74.711,259.339 79.451,256.563 79.384,251.117 74.575,248.453 69.835,251.233 		
			"/>
		<polygon fill="#CAC8BC" points="64.612,266.011 69.419,268.675 74.159,265.896 74.091,260.454 69.285,257.79 64.545,260.569 		"/>
		<polygon fill="#CAC8BC" points="59.091,256.667 63.896,259.33 68.636,256.551 68.569,251.108 63.762,248.444 59.023,251.223 		"/>
		<polygon fill="#CAC8BC" points="53.801,266.142 58.609,268.807 63.347,266.027 63.278,260.584 58.474,257.921 53.733,260.701 		
			"/>
		<polygon fill="#CAC8BC" points="48.509,275.479 53.317,278.141 58.058,275.362 57.99,269.921 53.183,267.258 48.442,270.036 		"/>
		<polygon fill="#CAC8BC" points="42.986,266.133 47.794,268.797 52.534,266.017 52.466,260.574 47.659,257.912 42.919,260.69 		"/>
		<polygon fill="#CAC8BC" points="37.697,275.607 42.504,278.273 47.245,275.493 47.177,270.051 42.369,267.386 37.629,270.167 		
			"/>
		<polygon fill="#CAC8BC" points="32.407,284.945 37.215,287.607 41.955,284.83 41.887,279.385 37.08,276.724 32.339,279.503 		"/>
		<polygon fill="#CAC8BC" points="48.888,294.438 53.693,297.104 58.433,294.324 58.366,288.881 53.558,286.216 48.821,288.997 		
			"/>
		<polygon fill="#CAC8BC" points="86.096,266.032 90.904,268.696 95.645,265.916 95.576,260.476 90.769,257.811 86.029,260.591 		
			"/>
		<polygon fill="#CAC8BC" points="69.994,275.5 74.802,278.163 79.542,275.384 79.475,269.941 74.667,267.278 69.926,270.057 		"/>
		<polygon fill="#CAC8BC" points="64.702,284.836 69.511,287.499 74.25,284.72 74.183,279.277 69.375,276.613 64.635,279.392 		"/>
		<polygon fill="#CAC8BC" points="75.662,284.984 80.467,287.648 85.208,284.868 85.14,279.426 80.333,276.763 75.594,279.541 		"/>
		<polygon fill="#CAC8BC" points="25.239,256.513 25.172,251.071 20.365,248.406 15.626,251.187 15.694,256.627 20.5,259.294 		"/>
		<polygon fill="#CAC8BC" points="37.463,256.787 42.27,259.452 47.011,256.672 46.943,251.229 42.136,248.565 37.395,251.345 		"/>
		<polygon fill="#CAC8BC" points="26.651,256.778 31.458,259.441 36.196,256.664 36.129,251.22 31.323,248.557 26.583,251.336 		"/>
		<polygon fill="#CAC8BC" points="21.125,266.396 25.933,269.062 30.673,266.281 30.606,260.839 25.798,258.176 21.059,260.954 		
			"/>
		<polygon fill="#CAC8BC" points="19.859,266.272 19.791,260.829 14.983,258.166 10.246,260.945 10.313,266.388 15.119,269.052 		
			"/>
		<polygon fill="#CAC8BC" points="9.696,267.643 4.956,270.424 5.023,275.863 9.831,278.526 14.571,275.748 14.503,270.306 		"/>
		<polygon fill="#CAC8BC" points="9.212,279.643 4.405,276.979 -0.335,279.758 -0.268,285.199 4.54,287.864 9.279,285.084 		"/>
		<polygon fill="#CAC8BC" points="21.503,285.359 26.312,288.021 31.052,285.241 30.984,279.799 26.176,277.136 21.437,279.916 		
			"/>
		<polygon fill="#CAC8BC" points="3.691,270.296 -1.117,267.633 -5.856,270.412 -5.79,275.855 -0.981,278.518 3.758,275.737 		"/>
		<polygon fill="#CAC8BC" points="84.696,241.929 79.903,239.272 75.174,242.045 75.242,247.474 80.037,250.129 84.764,247.357 		
			"/>
		<polygon fill="#CAC8BC" points="10.337,247.698 15.133,250.354 19.861,247.581 19.793,242.154 14.998,239.497 10.27,242.27 		"/>
		<polygon fill="#CAC8BC" points="21.122,247.566 25.917,250.224 30.646,247.452 30.579,242.021 25.783,239.366 21.054,242.139 		
			"/>
		<polygon fill="#CAC8BC" points="26.399,238.255 31.194,240.911 35.923,238.14 35.856,232.71 31.06,230.052 26.332,232.824 		"/>
		<polygon fill="#CAC8BC" points="31.909,247.576 36.703,250.231 41.432,247.462 41.365,242.032 36.568,239.374 31.841,242.147 		
			"/>
		<polygon fill="#CAC8BC" points="37.184,238.124 41.98,240.781 46.708,238.009 46.64,232.58 41.845,229.922 37.117,232.693 		"/>
		<polygon fill="#CAC8BC" points="42.461,228.812 47.257,231.468 51.985,228.695 51.917,223.267 47.123,220.609 42.394,223.382 		
			"/>
		<polygon fill="#CAC8BC" points="47.971,238.133 52.767,240.789 57.494,238.019 57.428,232.59 52.631,229.933 47.903,232.705 		"/>
		<polygon fill="#CAC8BC" points="20.745,228.654 25.541,231.311 30.269,228.54 30.202,223.108 25.406,220.451 20.678,223.225 		"/>
		<polygon fill="#CAC8BC" points="26.022,219.341 30.818,221.997 35.546,219.226 35.479,213.798 30.683,211.14 25.956,213.911 		"/>
		<polygon fill="#CAC8BC" points="31.532,228.663 36.326,231.319 41.054,228.548 40.987,223.119 36.191,220.462 31.464,223.234 		
			"/>
		<polygon fill="#CAC8BC" points="3.708,238.249 3.64,232.821 -1.156,230.162 -5.883,232.936 -5.817,238.364 -1.021,241.02 		"/>
		<polygon fill="#CAC8BC" points="9.148,242.142 4.353,239.483 -0.375,242.257 -0.307,247.685 4.488,250.343 9.215,247.569 		"/>
		<polygon fill="#CAC8BC" points="10.247,228.921 15.042,231.578 19.769,228.805 19.701,223.375 14.908,220.72 10.179,223.492 		"/>
		<polygon fill="#CAC8BC" points="15.755,238.243 20.55,240.898 25.277,238.127 25.21,232.698 20.416,230.042 15.687,232.813 		"/>
		<polygon fill="#CAC8BC" points="-6.192,219.449 -1.396,222.106 3.331,219.335 3.263,213.906 -1.532,211.25 -6.26,214.021 		"/>
		<polygon fill="#CAC8BC" points="-0.684,228.773 4.111,231.43 8.84,228.656 8.772,223.229 3.977,220.57 -0.751,223.343 		"/>
		<polygon fill="#CAC8BC" points="4.738,219.598 9.533,222.256 14.261,219.482 14.193,214.055 9.397,211.397 4.671,214.17 		"/>
		<polygon fill="#CAC8BC" points="15.524,219.607 20.319,222.265 25.046,219.492 24.979,214.064 20.185,211.405 15.457,214.179 		
			"/>
		<polygon fill="#CAC8BC" points="36.81,219.35 41.604,222.006 46.332,219.235 46.266,213.808 41.47,211.149 36.743,213.922 		"/>
		<polygon fill="#CAC8BC" points="47.596,219.36 52.391,222.017 57.12,219.245 57.052,213.815 52.256,211.159 47.528,213.932 		"/>
		<polygon fill="#CAC8BC" points="42.694,247.586 47.49,250.243 52.218,247.472 52.15,242.041 47.355,239.385 42.627,242.156 		"/>
		<polygon fill="#CAC8BC" points="53.714,247.313 58.509,249.968 63.238,247.197 63.171,241.768 58.375,239.112 53.646,241.885 		
			"/>
		<polygon fill="#CAC8BC" points="58.991,237.999 63.787,240.658 68.515,237.885 68.447,232.456 63.652,229.8 58.923,232.57 		"/>
		<polygon fill="#CAC8BC" points="64.501,247.323 69.296,249.978 74.024,247.206 73.957,241.778 69.163,239.121 64.434,241.893 		
			"/>
		<polygon fill="#CAC8BC" points="79.233,232.326 74.438,229.668 69.708,232.442 69.776,237.869 74.572,240.527 79.3,237.754 		"/>
		<polygon fill="#CAC8BC" points="84.511,223.012 79.716,220.355 74.987,223.128 75.055,228.557 79.85,231.214 84.579,228.441 		"/>
		<polygon fill="#CAC8BC" points="90.018,232.335 85.223,229.678 80.495,232.45 80.562,237.88 85.358,240.536 90.086,237.765 		"/>
		<polygon fill="#CAC8BC" points="53.338,228.399 58.133,231.057 62.861,228.285 62.794,222.855 57.999,220.199 53.271,222.969 		
			"/>
		<polygon fill="#CAC8BC" points="68.071,213.543 63.274,210.886 58.547,213.659 58.615,219.087 63.409,221.743 68.138,218.971 		
			"/>
		<polygon fill="#CAC8BC" points="64.124,228.408 68.919,231.066 73.647,228.294 73.58,222.864 68.784,220.207 64.056,222.979 		"/>
		<polygon fill="#CAC8BC" points="79.095,213.597 74.299,210.939 69.571,213.711 69.638,219.142 74.434,221.797 79.163,219.024 		
			"/>
		<polygon fill="#CAC8BC" points="89.949,213.597 85.154,210.939 80.425,213.711 80.492,219.142 85.288,221.797 90.017,219.024 		
			"/>
		<polygon fill="#CAC8BC" points="182.187,241.733 177.393,239.077 172.665,241.85 172.732,247.279 177.528,249.935 
			182.254,247.163 		"/>
		<polygon fill="#CAC8BC" points="107.828,247.503 112.624,250.158 117.352,247.387 117.284,241.959 112.488,239.302 
			107.761,242.074 		"/>
		<polygon fill="#CAC8BC" points="118.612,247.371 123.408,250.028 128.136,247.257 128.069,241.828 123.273,239.172 
			118.544,241.943 		"/>
		<polygon fill="#CAC8BC" points="123.89,238.06 128.685,240.717 133.414,237.944 133.346,232.515 128.55,229.858 123.822,232.629 
					"/>
		<polygon fill="#CAC8BC" points="129.399,247.382 134.193,250.037 138.922,247.267 138.855,241.837 134.059,239.18 
			129.332,241.952 		"/>
		<polygon fill="#CAC8BC" points="134.674,237.929 139.47,240.587 144.198,237.814 144.131,232.385 139.335,229.727 134.607,232.5 
					"/>
		<polygon fill="#CAC8BC" points="139.951,228.616 144.748,231.273 149.475,228.501 149.408,223.072 144.613,220.415 
			139.884,223.187 		"/>
		<polygon fill="#CAC8BC" points="145.461,237.938 150.257,240.595 154.985,237.823 154.918,232.395 150.122,229.737 
			145.394,232.51 		"/>
		<polygon fill="#CAC8BC" points="118.235,228.459 123.031,231.115 127.76,228.344 127.692,222.914 122.896,220.257 118.168,223.03 
					"/>
		<polygon fill="#CAC8BC" points="123.513,219.146 128.308,221.803 133.037,219.03 132.969,213.604 128.173,210.944 
			123.445,213.717 		"/>
		<polygon fill="#CAC8BC" points="129.022,228.469 133.816,231.124 138.544,228.354 138.478,222.924 133.682,220.267 
			128.955,223.039 		"/>
		<polygon fill="#CAC8BC" points="95.853,241.938 91.057,239.281 86.33,242.053 86.397,247.48 91.191,250.138 95.92,247.366 		"/>
		<polygon fill="#CAC8BC" points="101.198,238.054 101.13,232.626 96.335,229.968 91.607,232.74 91.674,238.169 96.469,240.825 		
			"/>
		<polygon fill="#CAC8BC" points="106.639,241.946 101.843,239.289 97.116,242.063 97.184,247.49 101.979,250.147 106.706,247.375 
					"/>
		<polygon fill="#CAC8BC" points="102.459,238.038 107.254,240.695 111.982,237.923 111.916,232.494 107.119,229.838 
			102.392,232.61 		"/>
		<polygon fill="#CAC8BC" points="107.737,228.726 112.532,231.383 117.26,228.61 117.192,223.181 112.398,220.525 107.67,223.297 
					"/>
		<polygon fill="#CAC8BC" points="113.246,238.048 118.04,240.704 122.768,237.933 122.701,232.504 117.906,229.847 
			113.178,232.618 		"/>
		<polygon fill="#CAC8BC" points="95.476,223.025 90.681,220.366 85.953,223.14 86.021,228.569 90.815,231.226 95.543,228.452 		"/>
		<polygon fill="#CAC8BC" points="91.298,219.255 96.094,221.912 100.821,219.141 100.753,213.711 95.958,211.055 91.23,213.826 		
			"/>
		<polygon fill="#CAC8BC" points="96.806,228.578 101.602,231.235 106.33,228.463 106.263,223.035 101.468,220.376 96.739,223.148 
					"/>
		<polygon fill="#CAC8BC" points="102.228,219.402 107.023,222.062 111.751,219.287 111.684,213.859 106.888,211.202 
			102.161,213.975 		"/>
		<polygon fill="#CAC8BC" points="113.014,219.413 117.809,222.069 122.537,219.297 122.469,213.87 117.675,211.211 
			112.947,213.984 		"/>
		<polygon fill="#CAC8BC" points="134.3,219.154 139.094,221.812 143.822,219.04 143.756,213.612 138.959,210.954 134.233,213.728 
					"/>
		<polygon fill="#CAC8BC" points="145.085,219.165 149.881,221.822 154.609,219.051 154.542,213.62 149.747,210.964 
			145.019,213.736 		"/>
		<polygon fill="#CAC8BC" points="140.185,247.391 144.981,250.048 149.709,247.276 149.641,241.847 144.846,239.191 
			140.118,241.963 		"/>
		<polygon fill="#CAC8BC" points="151.204,247.118 156,249.773 160.729,247.002 160.661,241.573 155.865,238.918 151.137,241.689 		
			"/>
		<polygon fill="#CAC8BC" points="156.481,237.805 161.278,240.464 166.005,237.69 165.938,232.261 161.143,229.604 
			156.414,232.376 		"/>
		<polygon fill="#CAC8BC" points="161.992,247.128 166.787,249.783 171.514,247.012 171.447,241.583 166.652,238.927 
			161.924,241.698 		"/>
		<polygon fill="#CAC8BC" points="176.724,232.131 171.928,229.474 167.199,232.248 167.266,237.675 172.063,240.332 
			176.791,237.56 		"/>
		<polygon fill="#CAC8BC" points="182.002,222.817 177.206,220.161 172.478,222.934 172.546,228.361 177.341,231.019 
			182.069,228.246 		"/>
		<polygon fill="#CAC8BC" points="187.509,232.141 182.714,229.483 177.985,232.256 178.052,237.686 182.848,240.342 
			187.577,237.569 		"/>
		<polygon fill="#CAC8BC" points="150.829,228.205 155.624,230.862 160.352,228.09 160.285,222.66 155.489,220.004 150.761,222.774 
					"/>
		<polygon fill="#CAC8BC" points="165.562,213.348 160.765,210.691 156.038,213.464 156.106,218.893 160.9,221.548 165.629,218.775 
					"/>
		<polygon fill="#CAC8BC" points="161.614,228.214 166.41,230.871 171.137,228.099 171.07,222.67 166.274,220.013 161.546,222.785 
					"/>
		<polygon fill="#CAC8BC" points="176.585,213.401 171.79,210.744 167.062,213.516 167.128,218.946 171.924,221.603 176.653,218.83 
					"/>
		<polygon fill="#CAC8BC" points="187.44,213.401 182.644,210.744 177.916,213.516 177.983,218.946 182.779,221.603 187.507,218.83 
					"/>
		<polygon fill="#CAC8BC" points="94.734,166.617 89.94,163.961 85.213,166.733 85.279,172.161 90.075,174.818 94.802,172.047 		"/>
		<polygon fill="#CAC8BC" points="20.375,172.387 25.171,175.042 29.899,172.27 29.832,166.843 25.036,164.186 20.309,166.957 		"/>
		<polygon fill="#CAC8BC" points="31.16,172.255 35.956,174.912 40.684,172.141 40.617,166.712 35.821,164.054 31.092,166.826 		"/>
		<polygon fill="#CAC8BC" points="36.438,162.943 41.232,165.6 45.961,162.827 45.894,157.399 41.098,154.74 36.37,157.514 		"/>
		<polygon fill="#CAC8BC" points="41.947,172.264 46.741,174.92 51.47,172.151 51.402,166.721 46.607,164.063 41.879,166.837 		"/>
		<polygon fill="#CAC8BC" points="47.222,162.813 52.018,165.47 56.746,162.697 56.678,157.269 51.883,154.61 47.155,157.383 		"/>
		<polygon fill="#CAC8BC" points="52.499,153.5 57.295,156.156 62.023,153.385 61.955,147.955 57.16,145.298 52.432,148.07 		"/>
		<polygon fill="#CAC8BC" points="58.008,162.822 62.804,165.478 67.532,162.707 67.465,157.278 62.67,154.621 57.942,157.394 		"/>
		<polygon fill="#CAC8BC" points="30.783,153.343 35.579,155.998 40.308,153.227 40.24,147.797 35.444,145.14 30.716,147.914 		"/>
		<polygon fill="#CAC8BC" points="41.57,153.353 46.364,156.008 51.092,153.236 51.025,147.808 46.229,145.15 41.502,147.923 		"/>
		<polygon fill="#CAC8BC" points="8.4,166.821 3.604,164.164 -1.123,166.936 -1.056,172.364 3.738,175.021 8.467,172.25 		"/>
		<polygon fill="#CAC8BC" points="19.187,166.829 14.391,164.172 9.664,166.945 9.731,172.373 14.526,175.031 19.253,172.258 		"/>
		<polygon fill="#CAC8BC" points="25.793,162.931 30.588,165.588 35.315,162.815 35.249,157.386 30.454,154.731 25.726,157.503 		
			"/>
		<polygon fill="#CAC8BC" points="8.023,147.908 3.228,145.25 -1.5,148.023 -1.432,153.452 3.363,156.108 8.091,153.336 		"/>
		<polygon fill="#CAC8BC" points="9.354,153.461 14.149,156.118 18.877,153.346 18.811,147.918 14.015,145.26 9.287,148.032 		"/>
		<polygon fill="#CAC8BC" points="52.732,172.275 57.528,174.932 62.256,172.159 62.189,166.73 57.394,164.073 52.666,166.846 		"/>
		<polygon fill="#CAC8BC" points="63.752,172.001 68.548,174.656 73.277,171.886 73.209,166.457 68.413,163.801 63.685,166.572 		
			"/>
		<polygon fill="#CAC8BC" points="69.029,162.688 73.826,165.347 78.553,162.573 78.485,157.145 73.69,154.488 68.962,157.259 		"/>
		<polygon fill="#CAC8BC" points="74.54,172.011 79.334,174.666 84.062,171.896 83.995,166.467 79.201,163.811 74.472,166.581 		"/>
		<polygon fill="#CAC8BC" points="89.271,157.014 84.476,154.357 79.747,157.131 79.814,162.558 84.611,165.216 89.338,162.443 		
			"/>
		<polygon fill="#CAC8BC" points="94.549,147.701 89.754,145.044 85.025,147.816 85.093,153.246 89.888,155.902 94.618,153.131 		
			"/>
		<polygon fill="#CAC8BC" points="100.057,157.024 95.261,154.367 90.533,157.14 90.6,162.568 95.396,165.224 100.124,162.452 		"/>
		<polygon fill="#CAC8BC" points="63.376,153.088 68.171,155.746 72.9,152.974 72.833,147.543 68.037,144.888 63.309,147.658 		"/>
		<polygon fill="#CAC8BC" points="74.162,153.098 78.958,155.754 83.686,152.981 83.618,147.554 78.822,144.896 74.094,147.668 		
			"/>
		<polygon fill="#CAC8BC" points="192.225,166.422 187.431,163.766 182.703,166.538 182.77,171.967 187.566,174.624 
			192.292,171.852 		"/>
		<polygon fill="#CAC8BC" points="117.866,172.191 122.661,174.848 127.39,172.076 127.322,166.647 122.527,163.99 117.798,166.763 
					"/>
		<polygon fill="#CAC8BC" points="128.651,172.061 133.446,174.717 138.174,171.945 138.108,166.517 133.312,163.859 
			128.583,166.631 		"/>
		<polygon fill="#CAC8BC" points="133.928,162.748 138.723,165.404 143.452,162.632 143.385,157.204 138.588,154.546 
			133.86,157.318 		"/>
		<polygon fill="#CAC8BC" points="139.438,172.069 144.232,174.726 148.96,171.956 148.893,166.525 144.097,163.868 139.37,166.642 
					"/>
		<polygon fill="#CAC8BC" points="144.712,162.617 149.508,165.274 154.237,162.503 154.169,157.073 149.374,154.416 
			144.646,157.188 		"/>
		<polygon fill="#CAC8BC" points="149.99,153.305 154.786,155.963 159.514,153.189 159.446,147.761 154.651,145.104 
			149.923,147.875 		"/>
		<polygon fill="#CAC8BC" points="155.499,162.627 160.295,165.283 165.023,162.512 164.956,157.084 160.16,154.426 
			155.432,157.198 		"/>
		<polygon fill="#CAC8BC" points="128.274,153.147 133.07,155.804 137.798,153.032 137.73,147.603 132.935,144.945 128.206,147.72 
					"/>
		<polygon fill="#CAC8BC" points="139.06,153.157 143.854,155.813 148.583,153.041 148.516,147.613 143.72,144.955 138.993,147.728 
					"/>
		<polygon fill="#CAC8BC" points="105.89,166.626 101.095,163.969 96.368,166.741 96.435,172.17 101.229,174.826 105.958,172.055 		
			"/>
		<polygon fill="#CAC8BC" points="111.236,162.742 111.168,157.314 106.373,154.656 101.645,157.43 101.712,162.857 
			106.508,165.514 		"/>
		<polygon fill="#CAC8BC" points="116.676,166.635 111.881,163.978 107.154,166.75 107.222,172.179 112.017,174.836 
			116.744,172.063 		"/>
		<polygon fill="#CAC8BC" points="112.498,162.728 117.292,165.385 122.021,162.612 121.954,157.183 117.157,154.525 
			112.43,157.299 		"/>
		<polygon fill="#CAC8BC" points="117.775,153.415 122.57,156.071 127.297,153.298 127.23,147.87 122.437,145.214 117.708,147.986 
					"/>
		<polygon fill="#CAC8BC" points="123.283,162.735 128.078,165.393 132.806,162.621 132.739,157.192 127.945,154.536 
			123.216,157.308 		"/>
		<polygon fill="#CAC8BC" points="105.514,147.714 100.718,145.056 95.991,147.827 96.059,153.258 100.854,155.914 105.582,153.142 
					"/>
		<polygon fill="#CAC8BC" points="106.845,153.266 111.64,155.924 116.368,153.15 116.301,147.723 111.505,145.064 106.777,147.837 
					"/>
		<polygon fill="#CAC8BC" points="150.222,172.08 155.019,174.736 159.747,171.965 159.679,166.535 154.884,163.879 150.156,166.65 
					"/>
		<polygon fill="#CAC8BC" points="161.242,171.807 166.038,174.463 170.767,171.691 170.7,166.263 165.903,163.606 161.175,166.378 
					"/>
		<polygon fill="#CAC8BC" points="166.519,162.494 171.315,165.151 176.043,162.379 175.976,156.95 171.181,154.293 
			166.453,157.064 		"/>
		<polygon fill="#CAC8BC" points="172.03,171.816 176.826,174.473 181.552,171.701 181.485,166.271 176.691,163.616 
			171.962,166.386 		"/>
		<polygon fill="#CAC8BC" points="186.762,156.818 181.966,154.163 177.237,156.936 177.305,162.362 182.101,165.021 
			186.829,162.248 		"/>
		<polygon fill="#CAC8BC" points="192.04,147.506 187.245,144.849 182.516,147.621 182.583,153.051 187.378,155.707 
			192.107,152.936 		"/>
		<polygon fill="#CAC8BC" points="197.547,156.829 192.752,154.172 188.023,156.945 188.09,162.373 192.887,165.029 
			197.615,162.258 		"/>
		<polygon fill="#CAC8BC" points="160.867,152.893 165.662,155.551 170.39,152.778 170.323,147.349 165.527,144.693 
			160.799,147.463 		"/>
		<polygon fill="#CAC8BC" points="171.652,152.903 176.448,155.559 181.176,152.787 181.109,147.359 176.313,144.7 171.585,147.474 
					"/>
		<polygon fill="#CAC8BC" points="100.856,87.434 105.65,90.09 110.378,87.317 110.312,81.889 105.516,79.232 100.789,82.005 		"/>
		<polygon fill="#CAC8BC" points="175.215,81.665 170.419,79.01 165.691,81.781 165.759,87.208 170.554,89.865 175.282,87.093 		"/>
		<polygon fill="#CAC8BC" points="164.43,81.795 159.635,79.139 154.907,81.911 154.974,87.339 159.77,89.996 164.499,87.224 		"/>
		<polygon fill="#CAC8BC" points="159.153,91.108 154.358,88.451 149.629,91.224 149.697,96.652 154.493,99.31 159.221,96.536 		"/>
		<polygon fill="#CAC8BC" points="153.644,81.786 148.85,79.13 144.121,81.9 144.188,87.33 148.983,89.987 153.711,87.214 		"/>
		<polygon fill="#CAC8BC" points="148.369,91.238 143.573,88.581 138.845,91.354 138.912,96.782 143.707,99.441 148.436,96.668 		
			"/>
		<polygon fill="#CAC8BC" points="143.092,100.551 138.295,97.894 133.567,100.667 133.635,106.096 138.431,108.752 143.158,105.98 
					"/>
		<polygon fill="#CAC8BC" points="137.582,91.229 132.786,88.572 128.058,91.344 128.125,96.773 132.921,99.43 137.649,96.658 		"/>
		<polygon fill="#CAC8BC" points="164.807,100.708 160.012,98.053 155.283,100.823 155.351,106.254 160.146,108.91 164.875,106.137 
					"/>
		<polygon fill="#CAC8BC" points="159.53,110.021 154.734,107.365 150.006,110.137 150.073,115.564 154.869,118.223 159.598,115.45 
					"/>
		<polygon fill="#CAC8BC" points="154.021,100.699 149.227,98.042 144.499,100.814 144.565,106.244 149.361,108.899 
			154.088,106.128 		"/>
		<polygon fill="#CAC8BC" points="187.19,87.23 191.986,89.886 196.713,87.114 196.646,81.687 191.852,79.029 187.123,81.801 		"/>
		<polygon fill="#CAC8BC" points="181.845,91.113 181.913,96.541 186.708,99.2 191.436,96.426 191.37,90.999 186.573,88.342 		"/>
		<polygon fill="#CAC8BC" points="176.404,87.221 181.2,89.878 185.927,87.104 185.859,81.678 181.064,79.02 176.337,81.793 		"/>
		<polygon fill="#CAC8BC" points="180.583,91.129 175.789,88.473 171.061,91.245 171.127,96.673 175.924,99.33 180.651,96.557 		"/>
		<polygon fill="#CAC8BC" points="175.306,100.441 170.511,97.784 165.783,100.558 165.851,105.986 170.645,108.642 
			175.373,105.869 		"/>
		<polygon fill="#CAC8BC" points="169.798,91.12 165.002,88.463 160.275,91.234 160.342,96.664 165.136,99.32 169.865,96.549 		"/>
		<polygon fill="#CAC8BC" points="191.745,109.913 186.949,107.256 182.222,110.027 182.29,115.455 187.084,118.112 
			191.813,115.341 		"/>
		<polygon fill="#CAC8BC" points="186.236,100.59 181.441,97.932 176.713,100.705 176.78,106.133 181.576,108.791 186.304,106.018 
					"/>
		<polygon fill="#CAC8BC" points="180.815,109.765 176.02,107.105 171.292,109.881 171.359,115.307 176.155,117.965 
			180.882,115.192 		"/>
		<polygon fill="#CAC8BC" points="170.029,109.754 165.234,107.098 160.506,109.869 160.573,115.298 165.368,117.956 
			170.096,115.184 		"/>
		<polygon fill="#CAC8BC" points="148.742,110.013 143.949,107.355 139.22,110.127 139.287,115.555 144.083,118.213 148.81,115.44 
					"/>
		<polygon fill="#CAC8BC" points="137.957,110.002 133.161,107.346 128.434,110.117 128.5,115.546 133.296,118.203 138.025,115.43 
					"/>
		<polygon fill="#CAC8BC" points="142.858,81.776 138.063,79.12 133.334,81.891 133.402,87.321 138.197,89.977 142.925,87.205 		"/>
		<polygon fill="#CAC8BC" points="131.839,82.05 127.043,79.394 122.313,82.165 122.381,87.594 127.178,90.25 131.906,87.479 		"/>
		<polygon fill="#CAC8BC" points="126.562,91.362 121.765,88.704 117.037,91.477 117.105,96.906 121.901,99.563 126.629,96.791 		
			"/>
		<polygon fill="#CAC8BC" points="121.051,82.039 116.256,79.385 111.529,82.156 111.596,87.584 116.39,90.24 121.119,87.47 		"/>
		<polygon fill="#CAC8BC" points="106.319,97.037 111.115,99.694 115.844,96.92 115.777,91.492 110.98,88.835 106.252,91.607 		"/>
		<polygon fill="#CAC8BC" points="101.041,106.35 105.837,109.007 110.565,106.234 110.498,100.805 105.702,98.149 100.973,100.921 
					"/>
		<polygon fill="#CAC8BC" points="95.534,97.026 100.329,99.684 105.058,96.91 104.991,91.482 100.195,88.826 95.467,91.598 		"/>
		<polygon fill="#CAC8BC" points="132.214,100.963 127.419,98.305 122.691,101.077 122.758,106.507 127.554,109.164 
			132.281,106.393 		"/>
		<polygon fill="#CAC8BC" points="117.481,115.819 122.277,118.477 127.004,115.703 126.937,110.274 122.143,107.619 
			117.414,110.392 		"/>
		<polygon fill="#CAC8BC" points="121.429,100.954 116.633,98.297 111.905,101.069 111.973,106.497 116.769,109.155 
			121.496,106.382 		"/>
		<polygon fill="#CAC8BC" points="106.458,115.767 111.253,118.423 115.981,115.65 115.915,110.222 111.119,107.565 
			106.389,110.338 		"/>
		<polygon fill="#CAC8BC" points="95.604,115.767 100.398,118.423 105.127,115.65 105.06,110.222 100.264,107.565 95.536,110.338 		
			"/>
		<polygon fill="#CAC8BC" points="3.366,87.629 8.159,90.285 12.888,87.512 12.82,82.084 8.025,79.428 3.298,82.199 		"/>
		<polygon fill="#CAC8BC" points="77.724,81.859 72.929,79.203 68.201,81.975 68.269,87.402 73.064,90.06 77.792,87.288 		"/>
		<polygon fill="#CAC8BC" points="66.94,81.99 62.144,79.333 57.416,82.104 57.483,87.534 62.279,90.191 67.008,87.419 		"/>
		<polygon fill="#CAC8BC" points="61.663,91.303 56.867,88.646 52.139,91.419 52.206,96.848 57.002,99.505 61.73,96.732 		"/>
		<polygon fill="#CAC8BC" points="56.153,81.981 51.358,79.325 46.63,82.096 46.697,87.524 51.493,90.183 56.221,87.41 		"/>
		<polygon fill="#CAC8BC" points="50.877,91.433 46.082,88.775 41.354,91.549 41.421,96.978 46.217,99.636 50.945,96.863 		"/>
		<polygon fill="#CAC8BC" points="45.601,100.746 40.805,98.089 36.077,100.862 36.145,106.29 40.939,108.947 45.668,106.175 		"/>
		<polygon fill="#CAC8BC" points="40.091,91.424 35.296,88.768 30.567,91.539 30.635,96.968 35.431,99.624 40.158,96.852 		"/>
		<polygon fill="#CAC8BC" points="67.317,100.902 62.521,98.247 57.792,101.019 57.86,106.448 62.656,109.105 67.384,106.332 		"/>
		<polygon fill="#CAC8BC" points="62.039,110.216 57.244,107.56 52.516,110.332 52.583,115.759 57.378,118.417 62.107,115.646 		"/>
		<polygon fill="#CAC8BC" points="56.53,100.895 51.736,98.237 47.008,101.009 47.075,106.438 51.871,109.095 56.598,106.322 		"/>
		<polygon fill="#CAC8BC" points="89.7,87.425 94.496,90.081 99.223,87.31 99.156,81.882 94.361,79.224 89.633,81.996 		"/>
		<polygon fill="#CAC8BC" points="84.354,91.309 84.422,96.735 89.218,99.396 93.946,96.621 93.879,91.192 89.083,88.537 		"/>
		<polygon fill="#CAC8BC" points="78.914,87.416 83.709,90.073 88.437,87.3 88.369,81.872 83.574,79.215 78.847,81.988 		"/>
		<polygon fill="#CAC8BC" points="83.093,91.324 78.298,88.668 73.57,91.439 73.637,96.867 78.433,99.525 83.161,96.752 		"/>
		<polygon fill="#CAC8BC" points="77.816,100.637 73.02,97.979 68.293,100.752 68.36,106.182 73.154,108.837 77.883,106.064 		"/>
		<polygon fill="#CAC8BC" points="72.307,91.314 67.512,88.657 62.785,91.43 62.852,96.858 67.646,99.515 72.375,96.743 		"/>
		<polygon fill="#CAC8BC" points="90.076,106.337 94.872,108.996 99.599,106.224 99.532,100.793 94.737,98.138 90.009,100.91 		"/>
		<polygon fill="#CAC8BC" points="94.254,110.107 89.458,107.45 84.731,110.223 84.799,115.65 89.594,118.308 94.322,115.535 		"/>
		<polygon fill="#CAC8BC" points="88.746,100.785 83.951,98.127 79.223,100.9 79.29,106.328 84.085,108.985 88.813,106.213 		"/>
		<polygon fill="#CAC8BC" points="83.324,109.959 78.529,107.301 73.801,110.075 73.868,115.502 78.665,118.16 83.391,115.387 		"/>
		<polygon fill="#CAC8BC" points="72.538,109.949 67.744,107.291 63.016,110.063 63.083,115.492 67.877,118.151 72.605,115.378 		
			"/>
		<polygon fill="#CAC8BC" points="51.251,110.208 46.458,107.551 41.729,110.321 41.796,115.749 46.592,118.407 51.319,115.635 		
			"/>
		<polygon fill="#CAC8BC" points="40.466,110.197 35.671,107.541 30.943,110.313 31.01,115.74 35.806,118.397 40.534,115.626 		"/>
		<polygon fill="#CAC8BC" points="45.369,81.971 40.572,79.314 35.844,82.085 35.912,87.516 40.707,90.172 45.435,87.399 		"/>
		<polygon fill="#CAC8BC" points="34.348,82.244 29.552,79.589 24.823,82.359 24.891,87.789 29.687,90.444 34.415,87.672 		"/>
		<polygon fill="#CAC8BC" points="29.071,91.558 24.275,88.898 19.547,91.672 19.615,97.101 24.41,99.757 29.138,96.986 		"/>
		<polygon fill="#CAC8BC" points="23.56,82.233 18.765,79.578 14.038,82.35 14.105,87.778 18.899,90.436 23.628,87.665 		"/>
		<polygon fill="#CAC8BC" points="8.829,97.232 13.625,99.889 18.354,97.115 18.286,91.688 13.489,89.03 8.761,91.803 		"/>
		<polygon fill="#CAC8BC" points="3.55,106.545 8.346,109.201 13.074,106.43 13.006,101 8.211,98.344 3.483,101.116 		"/>
		<polygon fill="#CAC8BC" points="34.724,101.157 29.929,98.499 25.201,101.272 25.268,106.702 30.063,109.358 34.791,106.588 		"/>
		<polygon fill="#CAC8BC" points="19.991,116.014 24.787,118.671 29.514,115.898 29.447,110.47 24.653,107.814 19.924,110.587 		"/>
		<polygon fill="#CAC8BC" points="23.938,101.148 19.143,98.491 14.415,101.264 14.482,106.692 19.278,109.35 24.005,106.577 		"/>
		<polygon fill="#CAC8BC" points="-1.887,115.961 2.908,118.618 7.636,115.846 7.57,110.416 2.774,107.761 -1.955,110.533 		"/>
		<polygon fill="#CAC8BC" points="73.164,40.653 77.972,43.316 82.712,40.539 82.644,35.096 77.836,32.433 73.096,35.21 		"/>
		<polygon fill="#CAC8BC" points="51.395,40.496 56.201,43.159 60.941,40.381 60.874,34.937 56.065,32.273 51.326,35.054 		"/>
		<polygon fill="#CAC8BC" points="56.684,31.16 61.491,33.825 66.231,31.043 66.164,25.603 61.356,22.939 56.616,25.717 		"/>
		<polygon fill="#CAC8BC" points="62.208,40.506 67.014,43.169 71.754,40.39 71.687,34.947 66.879,32.284 62.14,35.063 		"/>
		<polygon fill="#CAC8BC" points="40.869,40.766 45.676,43.427 50.417,40.647 50.348,35.206 45.541,32.541 40.801,35.321 		"/>
		<polygon fill="#CAC8BC" points="28.577,35.047 23.769,32.385 19.03,35.164 19.098,40.605 23.904,43.269 28.645,40.49 		"/>
		<polygon fill="#CAC8BC" points="24.388,31.27 29.196,33.934 33.936,31.152 33.868,25.711 29.061,23.049 24.32,25.827 		"/>
		<polygon fill="#CAC8BC" points="29.911,40.614 34.718,43.279 39.459,40.499 39.392,35.059 34.583,32.394 29.844,35.173 		"/>
		<polygon fill="#CAC8BC" points="35.346,31.418 40.153,34.082 44.893,31.303 44.826,25.86 40.018,23.197 35.279,25.976 		"/>
		<polygon fill="#CAC8BC" points="40.636,22.081 45.444,24.746 50.184,21.967 50.117,16.524 45.31,13.86 40.569,16.639 		"/>
		<polygon fill="#CAC8BC" points="56.739,12.615 61.546,15.279 66.286,12.498 66.219,7.058 61.411,4.395 56.671,7.173 		"/>
		<polygon fill="#CAC8BC" points="22.914,25.845 18.107,23.18 13.367,25.96 13.435,31.402 18.242,34.065 22.981,31.285 		"/>
		<polygon fill="#CAC8BC" points="23.946,7.147 24.014,12.589 28.821,15.253 33.563,12.474 33.494,7.032 28.687,4.368 		"/>
		<polygon fill="#CAC8BC" points="29.537,21.935 34.345,24.601 39.085,21.82 39.018,16.378 34.209,13.715 29.47,16.493 		"/>
		<polygon fill="#CAC8BC" points="183.908,265.619 188.715,268.281 193.455,265.504 193.388,260.061 188.58,257.397 183.84,260.176 
					"/>
		<polygon fill="#CAC8BC" points="72.722,16.391 72.79,21.834 77.595,24.497 82.336,21.718 82.268,16.275 77.46,13.612 		"/>
		<polygon fill="#CAC8BC" points="78.311,31.179 83.119,33.842 87.858,31.063 87.791,25.622 82.983,22.958 78.244,25.737 		"/>
		<polygon fill="#CAC8BC" points="83.533,16.261 83.601,21.703 88.409,24.367 93.148,21.588 93.081,16.144 88.273,13.48 		"/>
		<polygon fill="#CAC8BC" points="94.347,16.271 94.414,21.712 99.221,24.376 103.961,21.597 103.894,16.154 99.086,13.491 		"/>
		<polygon fill="#CAC8BC" points="77.868,6.775 77.935,12.219 82.741,14.882 87.48,12.103 87.413,6.661 82.605,3.997 		"/>
		<polygon fill="#CAC8BC" points="50.789,3.274 55.598,5.938 60.338,3.16 60.27,-2.282 55.462,-4.947 50.722,-2.168 		"/>
		<polygon fill="#CAC8BC" points="115.32,34.842 110.512,32.177 105.771,34.956 105.84,40.398 110.646,43.062 115.386,40.284 		"/>
		<polygon fill="#CAC8BC" points="84.067,40.241 88.875,42.905 93.616,40.125 93.548,34.684 88.74,32.02 84,34.8 		"/>
		<polygon fill="#CAC8BC" points="94.88,40.25 99.688,42.915 104.428,40.136 104.36,34.693 99.553,32.029 94.813,34.808 		"/>
		<polygon fill="#CAC8BC" points="147.854,34.916 143.046,32.252 138.307,35.03 138.374,40.473 143.181,43.136 147.922,40.358 		"/>
		<polygon fill="#CAC8BC" points="126.082,34.758 121.274,32.095 116.535,34.871 116.602,40.316 121.411,42.98 126.15,40.2 		"/>
		<polygon fill="#CAC8BC" points="136.895,34.767 132.09,32.104 127.35,34.883 127.417,40.325 132.224,42.989 136.962,40.211 		"/>
		<polygon fill="#CAC8BC" points="147.477,15.955 142.668,13.292 137.928,16.071 137.996,21.513 142.803,24.176 147.544,21.396 		
			"/>
		<polygon fill="#CAC8BC" points="153,25.301 148.191,22.637 143.452,25.417 143.52,30.859 148.327,33.521 153.067,30.743 		"/>
		<polygon fill="#CAC8BC" points="158.289,15.825 153.481,13.16 148.741,15.94 148.809,21.383 153.617,24.048 158.357,21.267 		"/>
		<polygon fill="#CAC8BC" points="163.579,6.488 158.771,3.825 154.031,6.604 154.099,12.049 158.906,14.71 163.646,11.93 		"/>
		<polygon fill="#CAC8BC" points="147.098,-3.005 142.293,-5.671 137.553,-2.891 137.62,2.552 142.428,5.218 147.165,2.437 		"/>
		<polygon fill="#CAC8BC" points="109.889,25.401 105.082,22.737 100.341,25.517 100.41,30.958 105.217,33.622 109.957,30.843 		"/>
		<polygon fill="#CAC8BC" points="125.992,15.934 121.184,13.271 116.444,16.049 116.511,21.492 121.319,24.155 126.06,21.377 		"/>
		<polygon fill="#CAC8BC" points="131.284,6.597 126.475,3.935 121.735,6.714 121.803,12.156 126.611,14.82 131.351,12.042 		"/>
		<polygon fill="#CAC8BC" points="120.324,6.449 115.519,3.785 110.778,6.565 110.846,12.008 115.653,14.67 120.392,11.893 		"/>
		<polygon fill="#CAC8BC" points="170.747,34.921 170.814,40.361 175.621,43.027 180.359,40.247 180.292,34.806 175.486,32.14 		"/>
		<polygon fill="#CAC8BC" points="158.522,34.646 153.716,31.981 148.975,34.761 149.042,40.204 153.85,42.868 158.59,40.089 		"/>
		<polygon fill="#CAC8BC" points="169.335,34.654 164.528,31.992 159.79,34.77 159.857,40.214 164.663,42.877 169.403,40.098 		"/>
		<polygon fill="#CAC8BC" points="174.86,25.036 170.053,22.371 165.313,25.152 165.38,30.594 170.188,33.258 174.927,30.479 		"/>
		<polygon fill="#CAC8BC" points="176.127,25.161 176.195,30.604 181.002,33.268 185.74,30.488 185.673,25.046 180.867,22.382 		"/>
		<polygon fill="#CAC8BC" points="186.29,23.791 191.03,21.009 190.963,15.569 186.155,12.907 181.415,15.686 181.482,21.127 		"/>
		<polygon fill="#CAC8BC" points="186.774,11.791 191.581,14.455 196.321,11.676 196.254,6.234 191.446,3.569 186.707,6.35 		"/>
		<polygon fill="#CAC8BC" points="174.483,6.074 169.674,3.412 164.934,6.191 165.002,11.635 169.81,14.297 174.549,11.518 		"/>
		<polygon fill="#CAC8BC" points="111.29,49.505 116.083,52.161 120.812,49.389 120.744,43.96 115.949,41.305 111.222,44.076 		"/>
		<polygon fill="#CAC8BC" points="185.649,43.735 180.853,41.08 176.125,43.852 176.193,49.279 180.988,51.937 185.716,49.164 		"/>
		<polygon fill="#CAC8BC" points="174.864,43.866 170.068,41.21 165.339,43.981 165.407,49.411 170.203,52.067 174.932,49.295 		"/>
		<polygon fill="#CAC8BC" points="169.586,53.179 164.792,50.522 160.063,53.294 160.13,58.724 164.926,61.382 169.654,58.608 		"/>
		<polygon fill="#CAC8BC" points="164.077,43.857 159.283,41.201 154.554,43.971 154.621,49.401 159.417,52.06 164.145,49.286 		"/>
		<polygon fill="#CAC8BC" points="158.802,53.31 154.006,50.652 149.278,53.424 149.346,58.854 154.141,61.512 158.869,58.74 		"/>
		<polygon fill="#CAC8BC" points="153.524,62.621 148.729,59.966 144.001,62.738 144.068,68.167 148.863,70.824 153.592,68.052 		
			"/>
		<polygon fill="#CAC8BC" points="148.015,53.301 143.219,50.645 138.492,53.415 138.558,58.844 143.354,61.501 148.083,58.729 		
			"/>
		<polygon fill="#CAC8BC" points="175.241,62.779 170.445,60.123 165.716,62.894 165.784,68.325 170.58,70.981 175.308,68.209 		"/>
		<polygon fill="#CAC8BC" points="169.963,72.093 165.168,69.437 160.439,72.208 160.507,77.636 165.303,80.294 170.03,77.522 		"/>
		<polygon fill="#CAC8BC" points="164.454,62.771 159.66,60.114 154.932,62.886 154.999,68.314 159.794,70.972 164.521,68.199 		"/>
		<polygon fill="#CAC8BC" points="197.624,49.302 202.419,51.957 207.147,49.186 207.08,43.758 202.285,41.101 197.557,43.872 		"/>
		<polygon fill="#CAC8BC" points="192.278,53.184 192.346,58.612 197.142,61.271 201.869,58.498 201.803,53.069 197.006,50.413 		
			"/>
		<polygon fill="#CAC8BC" points="186.838,49.292 191.633,51.95 196.36,49.177 196.293,43.749 191.498,41.091 186.771,43.864 		"/>
		<polygon fill="#CAC8BC" points="191.017,53.2 186.222,50.543 181.494,53.316 181.561,58.744 186.357,61.401 191.084,58.628 		"/>
		<polygon fill="#CAC8BC" points="185.739,62.513 180.944,59.855 176.217,62.629 176.285,68.059 181.078,70.714 185.807,67.941 		
			"/>
		<polygon fill="#CAC8BC" points="180.231,53.19 175.436,50.534 170.708,53.307 170.776,58.735 175.57,61.392 180.298,58.62 		"/>
		<polygon fill="#CAC8BC" points="198,68.214 202.796,70.872 207.523,68.1 207.456,62.67 202.661,60.014 197.933,62.785 		"/>
		<polygon fill="#CAC8BC" points="202.178,71.984 197.382,69.327 192.655,72.099 192.723,77.527 197.518,80.184 202.246,77.412 		
			"/>
		<polygon fill="#CAC8BC" points="196.67,62.66 191.875,60.004 187.146,62.777 187.214,68.204 192.009,70.862 196.737,68.09 		"/>
		<polygon fill="#CAC8BC" points="191.248,71.836 186.453,69.178 181.725,71.951 181.792,77.379 186.588,80.036 191.315,77.264 		
			"/>
		<polygon fill="#CAC8BC" points="180.462,71.826 175.667,69.168 170.939,71.94 171.007,77.369 175.801,80.027 180.529,77.255 		"/>
		<polygon fill="#CAC8BC" points="159.176,72.084 154.381,69.428 149.654,72.198 149.72,77.626 154.516,80.283 159.243,77.512 		"/>
		<polygon fill="#CAC8BC" points="148.39,72.073 143.595,69.417 138.866,72.188 138.934,77.617 143.729,80.274 148.458,77.502 		"/>
		<polygon fill="#CAC8BC" points="153.292,43.848 148.496,41.19 143.768,43.962 143.835,49.393 148.63,52.048 153.359,49.276 		"/>
		<polygon fill="#CAC8BC" points="142.272,44.121 137.477,41.466 132.748,44.236 132.815,49.665 137.611,52.321 142.339,49.549 		
			"/>
		<polygon fill="#CAC8BC" points="136.995,53.435 132.199,50.774 127.471,53.549 127.539,58.978 132.333,61.633 137.062,58.862 		
			"/>
		<polygon fill="#CAC8BC" points="131.484,44.11 126.689,41.455 121.961,44.227 122.029,49.655 126.823,52.313 131.552,49.541 		"/>
		<polygon fill="#CAC8BC" points="116.752,59.107 121.548,61.766 126.278,58.991 126.21,53.564 121.414,50.906 116.685,53.679 		"/>
		<polygon fill="#CAC8BC" points="111.475,68.421 116.27,71.078 120.999,68.306 120.931,62.877 116.136,60.22 111.407,62.992 		"/>
		<polygon fill="#CAC8BC" points="105.968,59.099 110.763,61.755 115.491,58.982 115.424,53.554 110.628,50.897 105.899,53.669 		
			"/>
		<polygon fill="#CAC8BC" points="142.647,63.034 137.853,60.376 133.125,63.148 133.191,68.578 137.987,71.234 142.715,68.464 		
			"/>
		<polygon fill="#CAC8BC" points="127.915,77.891 132.711,80.548 137.438,77.774 137.371,72.347 132.577,69.69 127.848,72.463 		"/>
		<polygon fill="#CAC8BC" points="131.862,63.025 127.067,60.367 122.339,63.14 122.406,68.568 127.202,71.227 131.93,68.454 		"/>
		<polygon fill="#CAC8BC" points="116.891,77.837 121.687,80.494 126.415,77.722 126.348,72.292 121.552,69.637 116.823,72.409 		
			"/>
		<polygon fill="#CAC8BC" points="106.037,77.837 110.832,80.494 115.561,77.722 115.494,72.292 110.698,69.637 105.969,72.409 		
			"/>
		<polygon fill="#CAC8BC" points="13.799,49.7 18.593,52.356 23.321,49.584 23.254,44.154 18.458,41.499 13.732,44.271 		"/>
		<polygon fill="#CAC8BC" points="88.158,43.931 83.362,41.275 78.634,44.046 78.702,49.475 83.498,52.132 88.225,49.359 		"/>
		<polygon fill="#CAC8BC" points="77.374,44.062 72.578,41.405 67.85,44.177 67.917,49.604 72.712,52.262 77.441,49.49 		"/>
		<polygon fill="#CAC8BC" points="72.096,53.374 67.301,50.717 62.572,53.489 62.64,58.919 67.436,61.575 72.164,58.804 		"/>
		<polygon fill="#CAC8BC" points="66.586,44.052 61.792,41.396 57.063,44.166 57.131,49.597 61.927,52.254 66.654,49.481 		"/>
		<polygon fill="#CAC8BC" points="61.311,53.505 56.516,50.847 51.788,53.619 51.855,59.049 56.65,61.707 61.378,58.934 		"/>
		<polygon fill="#CAC8BC" points="56.035,62.816 51.238,60.16 46.511,62.933 46.578,68.361 51.373,71.019 56.101,68.247 		"/>
		<polygon fill="#CAC8BC" points="50.524,53.495 45.729,50.839 41.001,53.61 41.068,59.039 45.864,61.696 50.592,58.924 		"/>
		<polygon fill="#CAC8BC" points="77.75,62.975 72.955,60.318 68.226,63.09 68.294,68.52 73.089,71.176 77.818,68.402 		"/>
		<polygon fill="#CAC8BC" points="72.473,72.288 67.678,69.631 62.949,72.402 63.017,77.83 67.813,80.489 72.541,77.717 		"/>
		<polygon fill="#CAC8BC" points="66.964,62.965 62.17,60.31 57.441,63.08 57.508,68.509 62.304,71.167 67.031,68.395 		"/>
		<polygon fill="#CAC8BC" points="100.133,49.496 104.929,52.152 109.656,49.38 109.589,43.953 104.794,41.296 100.066,44.067 		"/>
		<polygon fill="#CAC8BC" points="94.788,53.379 94.855,58.808 99.651,61.466 104.379,58.693 104.312,53.265 99.517,50.607 		"/>
		<polygon fill="#CAC8BC" points="89.347,49.487 94.143,52.145 98.87,49.371 98.802,43.943 94.007,41.286 89.28,44.059 		"/>
		<polygon fill="#CAC8BC" points="93.526,53.395 88.731,50.738 84.003,53.511 84.07,58.939 88.867,61.596 93.594,58.823 		"/>
		<polygon fill="#CAC8BC" points="88.249,62.708 83.454,60.051 78.726,62.823 78.793,68.253 83.587,70.908 88.316,68.136 		"/>
		<polygon fill="#CAC8BC" points="82.74,53.386 77.946,50.729 73.218,53.501 73.285,58.93 78.08,61.587 82.808,58.815 		"/>
		<polygon fill="#CAC8BC" points="100.51,68.408 105.305,71.067 110.033,68.294 109.965,62.864 105.17,60.208 100.442,62.98 		"/>
		<polygon fill="#CAC8BC" points="104.688,72.178 99.892,69.521 95.165,72.293 95.232,77.722 100.027,80.379 104.755,77.607 		"/>
		<polygon fill="#CAC8BC" points="99.18,62.855 94.384,60.198 89.656,62.971 89.723,68.398 94.518,71.058 99.247,68.284 		"/>
		<polygon fill="#CAC8BC" points="93.758,72.03 88.962,69.372 84.234,72.146 84.302,77.574 89.098,80.231 93.825,77.459 		"/>
		<polygon fill="#CAC8BC" points="82.972,72.021 78.177,69.363 73.449,72.136 73.517,77.563 78.311,80.223 83.039,77.449 		"/>
		<polygon fill="#CAC8BC" points="61.686,72.279 56.892,69.622 52.164,72.394 52.23,77.821 57.026,80.479 61.753,77.705 		"/>
		<polygon fill="#CAC8BC" points="50.9,72.268 46.104,69.611 41.376,72.383 41.444,77.813 46.239,80.47 50.967,77.697 		"/>
		<polygon fill="#CAC8BC" points="55.801,44.043 51.005,41.386 46.277,44.157 46.345,49.587 51.14,52.242 55.868,49.471 		"/>
		<polygon fill="#CAC8BC" points="44.782,44.315 39.986,41.66 35.257,44.432 35.325,49.859 40.121,52.516 44.849,49.744 		"/>
		<polygon fill="#CAC8BC" points="39.504,53.629 34.708,50.97 29.98,53.743 30.048,59.173 34.843,61.828 39.572,59.057 		"/>
		<polygon fill="#CAC8BC" points="33.994,44.306 29.199,41.649 24.472,44.421 24.539,49.851 29.333,52.507 34.062,49.735 		"/>
		<polygon fill="#CAC8BC" points="19.262,59.303 24.058,61.96 28.788,59.186 28.72,53.759 23.923,51.102 19.195,53.873 		"/>
		<polygon fill="#CAC8BC" points="13.984,68.616 18.78,71.272 23.508,68.5 23.44,63.071 18.645,60.415 13.917,63.188 		"/>
		<polygon fill="#CAC8BC" points="8.477,59.293 13.272,61.95 18,59.177 17.933,53.748 13.138,51.092 8.409,53.864 		"/>
		<polygon fill="#CAC8BC" points="45.157,63.229 40.362,60.57 35.634,63.344 35.701,68.773 40.497,71.43 45.225,68.658 		"/>
		<polygon fill="#CAC8BC" points="30.424,78.086 35.221,80.742 39.948,77.97 39.88,72.541 35.086,69.886 30.357,72.658 		"/>
		<polygon fill="#CAC8BC" points="34.372,63.22 29.576,60.563 24.849,63.335 24.916,68.764 29.711,71.421 34.439,68.648 		"/>
		<polygon fill="#CAC8BC" points="19.4,78.032 24.196,80.689 28.924,77.917 28.857,72.487 24.062,69.831 19.333,72.604 		"/>
		<polygon fill="#CAC8BC" points="8.546,78.032 13.342,80.689 18.07,77.917 18.003,72.487 13.207,69.831 8.479,72.604 		"/>
		<polygon fill="#CAC8BC" points="101.251,124.816 106.045,127.472 110.773,124.699 110.707,119.272 105.911,116.615 
			101.184,119.387 		"/>
		<polygon fill="#CAC8BC" points="175.611,119.047 170.814,116.392 166.086,119.164 166.154,124.591 170.95,127.247 
			175.677,124.476 		"/>
		<polygon fill="#CAC8BC" points="164.826,119.179 160.03,116.521 155.302,119.292 155.369,124.722 160.165,127.38 164.894,124.607 
					"/>
		<polygon fill="#CAC8BC" points="159.548,128.49 154.753,125.834 150.024,128.606 150.092,134.034 154.888,136.693 159.616,133.92 
					"/>
		<polygon fill="#CAC8BC" points="154.039,119.17 149.245,116.514 144.516,119.282 144.583,124.713 149.379,127.37 154.106,124.597 
					"/>
		<polygon fill="#CAC8BC" points="148.764,128.621 143.968,125.964 139.24,128.736 139.308,134.165 144.103,136.823 
			148.831,134.051 		"/>
		<polygon fill="#CAC8BC" points="143.487,137.934 138.69,135.276 133.962,138.049 134.031,143.479 138.826,146.135 
			143.554,143.363 		"/>
		<polygon fill="#CAC8BC" points="137.978,128.611 133.182,125.956 128.454,128.727 128.521,134.155 133.316,136.813 
			138.044,134.04 		"/>
		<polygon fill="#CAC8BC" points="165.203,138.09 160.407,135.436 155.678,138.207 155.746,143.636 160.542,146.294 165.27,143.52 
					"/>
		<polygon fill="#CAC8BC" points="154.416,138.081 149.622,135.425 144.894,138.196 144.96,143.626 149.756,146.283 
			154.483,143.511 		"/>
		<polygon fill="#CAC8BC" points="187.586,124.612 192.381,127.27 197.109,124.498 197.042,119.069 192.248,116.412 
			187.518,119.184 		"/>
		<polygon fill="#CAC8BC" points="182.24,128.496 182.308,133.925 187.104,136.583 191.832,133.809 191.765,128.382 
			186.969,125.725 		"/>
		<polygon fill="#CAC8BC" points="176.799,124.604 181.595,127.261 186.322,124.488 186.255,119.061 181.459,116.401 
			176.732,119.176 		"/>
		<polygon fill="#CAC8BC" points="180.979,128.511 176.184,125.854 171.456,128.627 171.522,134.056 176.319,136.713 
			181.046,133.939 		"/>
		<polygon fill="#CAC8BC" points="175.702,137.824 170.906,135.167 166.179,137.94 166.246,143.368 171.04,146.025 175.768,143.253 
					"/>
		<polygon fill="#CAC8BC" points="170.193,128.503 165.398,125.846 160.67,128.618 160.737,134.047 165.532,136.702 170.26,133.931 
					"/>
		<polygon fill="#CAC8BC" points="187.962,143.525 192.757,146.184 197.485,143.41 197.417,137.981 192.623,135.325 
			187.895,138.098 		"/>
		<polygon fill="#CAC8BC" points="186.631,137.972 181.836,135.315 177.108,138.088 177.175,143.516 181.971,146.174 
			186.699,143.401 		"/>
		<polygon fill="#CAC8BC" points="143.253,119.158 138.458,116.502 133.73,119.274 133.797,124.703 138.592,127.36 143.32,124.588 
					"/>
		<polygon fill="#CAC8BC" points="132.234,119.433 127.438,116.776 122.709,119.547 122.777,124.977 127.573,127.633 
			132.301,124.861 		"/>
		<polygon fill="#CAC8BC" points="126.957,128.745 122.16,126.087 117.433,128.86 117.5,134.288 122.296,136.945 127.024,134.175 		
			"/>
		<polygon fill="#CAC8BC" points="121.446,119.423 116.651,116.768 111.924,119.538 111.991,124.967 116.785,127.623 
			121.514,124.853 		"/>
		<polygon fill="#CAC8BC" points="106.715,134.42 111.51,137.076 116.239,134.303 116.172,128.876 111.375,126.218 106.647,128.99 
					"/>
		<polygon fill="#CAC8BC" points="101.437,143.732 106.232,146.39 110.96,143.617 110.893,138.188 106.098,135.531 101.368,138.303 
					"/>
		<polygon fill="#CAC8BC" points="95.929,134.409 100.725,137.066 105.453,134.294 105.386,128.865 100.59,126.21 95.862,128.981 		
			"/>
		<polygon fill="#CAC8BC" points="132.609,138.346 127.814,135.688 123.086,138.46 123.153,143.89 127.949,146.546 132.677,143.775 
					"/>
		<polygon fill="#CAC8BC" points="121.824,138.336 117.028,135.68 112.3,138.451 112.368,143.88 117.164,146.538 121.892,143.766 		
			"/>
		<polygon fill="#CAC8BC" points="78.12,119.242 73.325,116.586 68.596,119.357 68.664,124.786 73.459,127.442 78.187,124.67 		"/>
		<polygon fill="#CAC8BC" points="67.335,119.373 62.54,116.716 57.812,119.487 57.878,124.917 62.674,127.574 67.403,124.803 		"/>
		<polygon fill="#CAC8BC" points="62.058,128.686 57.263,126.029 52.534,128.802 52.601,134.229 57.397,136.888 62.125,134.115 		
			"/>
		<polygon fill="#CAC8BC" points="56.548,119.364 51.754,116.708 47.025,119.478 47.093,124.908 51.889,127.565 56.616,124.792 		
			"/>
		<polygon fill="#CAC8BC" points="51.273,128.816 46.478,126.159 41.749,128.931 41.817,134.36 46.612,137.018 51.34,134.245 		"/>
		<polygon fill="#CAC8BC" points="45.996,138.129 41.2,135.471 36.472,138.244 36.54,143.673 41.335,146.33 46.063,143.559 		"/>
		<polygon fill="#CAC8BC" points="40.487,128.807 35.691,126.15 30.963,128.922 31.03,134.35 35.826,137.008 40.554,134.235 		"/>
		<polygon fill="#CAC8BC" points="67.712,138.285 62.916,135.63 58.188,138.401 58.256,143.831 63.051,146.488 67.78,143.714 		"/>
		<polygon fill="#CAC8BC" points="90.096,124.808 94.891,127.465 99.618,124.692 99.551,119.264 94.757,116.607 90.028,119.379 		
			"/>
		<polygon fill="#CAC8BC" points="84.75,128.691 84.817,134.119 89.613,136.777 94.341,134.004 94.274,128.576 89.478,125.92 		"/>
		<polygon fill="#CAC8BC" points="79.31,124.799 84.105,127.455 88.832,124.684 88.764,119.255 83.969,116.597 79.242,119.37 		"/>
		<polygon fill="#CAC8BC" points="83.488,128.706 78.693,126.049 73.965,128.821 74.032,134.251 78.829,136.908 83.556,134.135 		
			"/>
		<polygon fill="#CAC8BC" points="78.211,138.019 73.416,135.362 68.688,138.135 68.755,143.563 73.549,146.22 78.278,143.447 		"/>
		<polygon fill="#CAC8BC" points="72.703,128.697 67.908,126.041 63.18,128.813 63.247,134.24 68.041,136.897 72.77,134.126 		"/>
		<polygon fill="#CAC8BC" points="90.472,143.72 95.268,146.378 99.995,143.606 99.927,138.176 95.132,135.52 90.404,138.292 		"/>
		<polygon fill="#CAC8BC" points="89.141,138.167 84.346,135.51 79.618,138.283 79.685,143.71 84.48,146.369 89.209,143.597 		"/>
		<polygon fill="#CAC8BC" points="45.764,119.354 40.967,116.697 36.239,119.469 36.307,124.898 41.102,127.555 45.83,124.783 		"/>
		<polygon fill="#CAC8BC" points="34.744,119.627 29.948,116.971 25.219,119.742 25.286,125.171 30.083,127.827 34.811,125.056 		
			"/>
		<polygon fill="#CAC8BC" points="29.466,128.939 24.67,126.282 19.942,129.055 20.01,134.483 24.805,137.141 29.533,134.369 		"/>
		<polygon fill="#CAC8BC" points="23.956,119.617 19.161,116.961 14.434,119.732 14.5,125.162 19.294,127.817 24.023,125.048 		"/>
		<polygon fill="#CAC8BC" points="-1.561,134.604 3.234,137.262 7.962,134.488 7.896,129.06 3.099,126.404 -1.629,129.176 		"/>
		<polygon fill="#CAC8BC" points="35.119,138.541 30.324,135.883 25.596,138.655 25.663,144.084 30.459,146.74 35.186,143.971 		"/>
		<polygon fill="#CAC8BC" points="24.334,138.53 19.538,135.874 14.81,138.646 14.877,144.074 19.673,146.733 24.4,143.96 		"/>
		<polygon fill="#CAC8BC" points="204.129,203.536 199.333,200.88 194.606,203.651 194.673,209.08 199.467,211.737 204.196,208.966 
					"/>
		<polygon fill="#CAC8BC" points="214.915,203.546 210.12,200.889 205.393,203.662 205.46,209.089 210.255,211.747 214.982,208.974 
					"/>
		<polygon fill="#CAC8BC" points="221.521,199.646 226.317,202.303 231.044,199.531 230.978,194.103 226.183,191.446 
			221.454,194.218 		"/>
		<polygon fill="#CAC8BC" points="199.575,180.854 204.37,183.511 209.097,180.739 209.03,175.311 204.235,172.654 199.506,175.426 
					"/>
		<polygon fill="#CAC8BC" points="205.083,190.177 209.878,192.835 214.606,190.062 214.539,184.634 209.744,181.975 
			205.016,184.748 		"/>
		<polygon fill="#CAC8BC" points="221.291,181.013 226.085,183.669 230.813,180.896 230.746,175.469 225.951,172.811 
			221.224,175.583 		"/>
		<polygon fill="#CAC8BC" points="220.573,255.846 220.505,250.404 215.698,247.739 210.96,250.52 211.028,255.96 215.833,258.627 
					"/>
		<polygon fill="#CAC8BC" points="221.984,256.111 226.792,258.774 231.529,255.997 231.462,250.553 226.656,247.89 
			221.917,250.669 		"/>
		<polygon fill="#CAC8BC" points="215.192,265.605 215.125,260.162 210.317,257.499 205.579,260.278 205.646,265.721 
			210.453,268.385 		"/>
		<polygon fill="#CAC8BC" points="205.029,266.976 200.29,269.757 200.356,275.196 205.165,277.859 209.904,275.081 
			209.837,269.639 		"/>
		<polygon fill="#CAC8BC" points="204.546,278.976 199.738,276.312 194.999,279.091 195.065,284.532 199.874,287.197 
			204.613,284.417 		"/>
		<polygon fill="#CAC8BC" points="216.836,284.692 221.646,287.354 226.385,284.574 226.317,279.132 221.51,276.469 216.77,279.249 
					"/>
		<polygon fill="#CAC8BC" points="199.024,269.629 194.217,266.966 189.477,269.745 189.544,275.188 194.352,277.851 
			199.092,275.07 		"/>
		<polygon fill="#CAC8BC" points="205.67,247.031 210.466,249.687 215.195,246.914 215.126,241.487 210.331,238.83 205.604,241.603 
					"/>
		<polygon fill="#CAC8BC" points="216.456,246.899 221.251,249.557 225.979,246.785 225.912,241.354 221.117,238.699 
			216.388,241.472 		"/>
		<polygon fill="#CAC8BC" points="221.733,237.588 226.528,240.244 231.256,237.473 231.189,232.043 226.393,229.385 
			221.666,232.157 		"/>
		<polygon fill="#CAC8BC" points="216.079,227.987 220.874,230.644 225.603,227.873 225.535,222.441 220.74,219.784 
			216.011,222.558 		"/>
		<polygon fill="#CAC8BC" points="221.355,218.674 226.151,221.33 230.88,218.559 230.813,213.131 226.017,210.473 221.289,213.244 
					"/>
		<polygon fill="#CAC8BC" points="193.695,241.465 188.9,238.81 184.172,241.58 184.24,247.009 189.034,249.666 193.763,246.895 		
			"/>
		<polygon fill="#CAC8BC" points="199.041,237.582 198.973,232.154 194.178,229.495 189.45,232.269 189.517,237.697 
			194.313,240.353 		"/>
		<polygon fill="#CAC8BC" points="204.481,241.475 199.686,238.816 194.959,241.59 195.026,247.018 199.821,249.676 
			204.549,246.902 		"/>
		<polygon fill="#CAC8BC" points="200.303,237.565 205.097,240.224 209.825,237.45 209.758,232.022 204.962,229.365 
			200.235,232.139 		"/>
		<polygon fill="#CAC8BC" points="205.58,228.254 210.375,230.911 215.103,228.138 215.035,222.708 210.241,220.053 
			205.513,222.825 		"/>
		<polygon fill="#CAC8BC" points="193.319,222.553 188.523,219.895 183.796,222.667 183.864,228.097 188.659,230.753 
			193.387,227.98 		"/>
		<polygon fill="#CAC8BC" points="189.141,218.782 193.937,221.439 198.664,218.668 198.597,213.239 193.802,210.583 
			189.073,213.354 		"/>
		<polygon fill="#CAC8BC" points="200.072,218.931 204.866,221.589 209.595,218.815 209.527,213.388 204.731,210.73 
			200.004,213.503 		"/>
		<polygon fill="#CAC8BC" points="215.708,171.72 220.505,174.375 225.233,171.603 225.165,166.176 220.37,163.519 215.642,166.29 
					"/>
		<polygon fill="#CAC8BC" points="203.733,166.154 198.938,163.497 194.21,166.269 194.278,171.697 199.072,174.354 
			203.801,171.583 		"/>
		<polygon fill="#CAC8BC" points="209.079,162.271 209.011,156.842 204.216,154.184 199.488,156.958 199.555,162.385 
			204.351,165.042 		"/>
		<polygon fill="#CAC8BC" points="214.52,166.162 209.725,163.505 204.998,166.278 205.064,171.706 209.859,174.364 
			214.587,171.591 		"/>
		<polygon fill="#CAC8BC" points="215.618,152.942 220.413,155.6 225.141,152.826 225.074,147.398 220.279,144.741 215.551,147.514 
					"/>
		<polygon fill="#CAC8BC" points="221.126,162.264 225.921,164.921 230.649,162.148 230.582,156.719 225.787,154.064 
			221.059,156.836 		"/>
		<polygon fill="#CAC8BC" points="203.357,147.241 198.562,144.583 193.834,147.356 193.902,152.785 198.696,155.441 
			203.425,152.669 		"/>
		<polygon fill="#CAC8BC" points="198.699,86.962 203.493,89.618 208.221,86.845 208.154,81.417 203.358,78.761 198.631,81.532 		
			"/>
		<polygon fill="#CAC8BC" points="229.682,81.577 224.886,78.922 220.157,81.692 220.225,87.122 225.021,89.777 229.749,87.005 		
			"/>
		<polygon fill="#CAC8BC" points="224.405,90.891 219.608,88.231 214.88,91.005 214.948,96.434 219.743,99.09 224.471,96.319 		"/>
		<polygon fill="#CAC8BC" points="218.894,81.566 214.098,78.911 209.371,81.683 209.439,87.111 214.233,89.769 218.962,86.998 		
			"/>
		<polygon fill="#CAC8BC" points="198.884,105.878 203.679,108.534 208.408,105.763 208.34,100.333 203.545,97.677 198.816,100.449 
					"/>
		<polygon fill="#CAC8BC" points="215.324,115.347 220.12,118.004 224.848,115.231 224.78,109.803 219.986,107.147 215.257,109.92 
					"/>
		<polygon fill="#CAC8BC" points="193.446,115.294 198.242,117.951 202.97,115.179 202.903,109.749 198.107,107.094 
			193.379,109.866 		"/>
		<polygon fill="#CAC8BC" points="230.077,118.96 225.281,116.304 220.552,119.075 220.62,124.504 225.416,127.16 230.144,124.389 
					"/>
		<polygon fill="#CAC8BC" points="56.799,138.438 52.003,135.781 47.275,138.554 47.343,143.982 52.138,146.64 56.866,143.868 		"/>
		<polygon fill="#CAC8BC" points="204.557,133.948 209.353,136.604 214.083,133.83 214.015,128.404 209.218,125.745 204.49,128.519 
					"/>
		<polygon fill="#CAC8BC" points="199.279,143.261 204.075,145.917 208.803,143.146 208.736,137.716 203.941,135.06 
			199.212,137.831 		"/>
		<polygon fill="#CAC8BC" points="193.772,133.938 198.567,136.595 203.296,133.821 203.229,128.393 198.433,125.737 
			193.705,128.509 		"/>
		<polygon fill="#CAC8BC" points="230.453,137.874 225.658,135.216 220.929,137.988 220.996,143.417 225.792,146.073 
			230.52,143.304 		"/>
		<polygon fill="#CAC8BC" points="219.667,137.863 214.871,135.207 210.144,137.979 210.21,143.407 215.007,146.066 
			219.734,143.293 		"/>
		<polygon fill="#CAC8BC" points="203.178,58.596 207.972,61.252 212.699,58.479 212.633,53.051 207.837,50.395 203.11,53.167 		"/>
		<polygon fill="#CAC8BC" points="228.883,62.524 224.086,59.866 219.358,62.639 219.427,68.068 224.222,70.726 228.95,67.954 		"/>
		<polygon fill="#CAC8BC" points="203.362,77.512 208.158,80.169 212.886,77.396 212.819,71.968 208.023,69.312 203.294,72.083 		
			"/>
		<polygon fill="#CAC8BC" points="217.641,6.004 212.833,3.339 208.093,6.118 208.161,11.561 212.968,14.224 217.708,11.446 		"/>
		<polygon fill="#CAC8BC" points="228.403,5.921 223.596,3.257 218.856,6.033 218.923,11.479 223.732,14.143 228.472,11.362 		"/>
		<polygon fill="#CAC8BC" points="212.211,-3.437 207.403,-6.101 202.663,-3.32 202.731,2.12 207.539,4.785 212.278,2.005 		"/>
		<polygon fill="#CAC8BC" points="213.611,20.667 218.404,23.323 223.133,20.551 223.065,15.122 218.27,12.467 213.543,15.238 		"/>
		<polygon fill="#CAC8BC" points="213.796,39.584 218.591,42.24 223.32,39.468 223.252,34.039 218.457,31.382 213.729,34.154 		"/>
		<polygon fill="#CAC8BC" points="219.212,48.999 224.008,51.656 228.736,48.885 228.669,43.454 223.873,40.799 219.145,43.571 		
			"/>
		<polygon fill="#CAC8BC" points="202.455,20.658 207.25,23.314 211.978,20.543 211.91,15.115 207.116,12.458 202.387,15.229 		"/>
		<polygon fill="#CAC8BC" points="202.831,39.57 207.626,42.229 212.354,39.456 212.287,34.026 207.492,31.37 202.764,34.144 		"/>
		<polygon fill="#CAC8BC" points="111.092,25.542 111.159,30.986 115.967,33.649 120.705,30.87 120.637,25.427 115.832,22.765 		"/>
		<polygon fill="#CAC8BC" points="121.904,25.553 121.972,30.995 126.779,33.658 131.517,30.879 131.45,25.438 126.645,22.774 		"/>
	</g>
	<g id="MoZaic">
		<rect x="20.806" y="36.652" fill="#FF8F09" width="27.694" height="36.348"/>
		<g>
			<g>
				<path fill="#FF8F09" d="M22.029,251.449v-39.111L134.822,73.031H34.773V36.703h157.178v33.691L74.324,215.268h122.168v36.182
					H22.029z"/>
			</g>
		</g>
		<polygon fill="#292928" points="192.5,173.188 192.5,163.993 172.677,163.993 172.677,163.914 163.048,163.914 163.048,211.856 
			163.43,211.856 163.43,212 192.5,212 192.5,202.805 172.677,202.805 172.677,173.188 		"/>
		<rect x="146.325" y="164.058" fill="#292928" width="9.63" height="47.942"/>
		<g>
			<path fill="#292928" d="M20.918,126.178v-49.99h15.024l9.021,34.1l8.919-34.1h15.058v49.99h-9.327V86.827l-9.869,39.351H40.08
				l-9.835-39.351v39.351H20.918z"/>
		</g>
		<path fill="#292928" d="M117.577,76.08h-4.175H73.435v0.163h-0.319v50.328h1.454h8.238h3.361L125,76.08H117.577z M82.807,115.86
			V84.276h24.291L82.807,115.86z"/>
		<path fill="#292928" d="M135.965,162.811h-7.951h-3.244l-37.481,48.471h7.166h4.029h0.126l5.978-7.868h-0.019l7.37-9.53
			l16.076-0.085v9.615h-0.045v7.868h9.091v-0.156h0.309v-48.314H135.965z M118.303,185.653l9.712-12.562v12.509L118.303,185.653z"/>
	</g>
</g>
</svg>
