<?xml version="1.0" encoding="UTF-8" standalone="no"?>
<!-- Generator: Adobe Illustrator 18.1.1, SVG Export Plug-In . SVG Version: 6.00 Build 0)  -->

<svg
   xmlns:dc="http://purl.org/dc/elements/1.1/"
   xmlns:cc="http://creativecommons.org/ns#"
   xmlns:rdf="http://www.w3.org/1999/02/22-rdf-syntax-ns#"
   xmlns:svg="http://www.w3.org/2000/svg"
   xmlns="http://www.w3.org/2000/svg"
   xmlns:sodipodi="http://sodipodi.sourceforge.net/DTD/sodipodi-0.dtd"
   xmlns:inkscape="http://www.inkscape.org/namespaces/inkscape"
   version="1.1"
   id="Capa_1"
   x="0px"
   y="0px"
   viewBox="0 0 493.0475 493.16002"
   xml:space="preserve"
   sodipodi:docname="jupiter-with-satellite.svg"
   width="493.04749"
   height="493.16"
   inkscape:version="0.92.1 r15371"><metadata
   id="metadata45"><rdf:RDF><cc:Work
       rdf:about=""><dc:format>image/svg+xml</dc:format><dc:type
         rdf:resource="http://purl.org/dc/dcmitype/StillImage" /></cc:Work></rdf:RDF></metadata><defs
   id="defs43" /><sodipodi:namedview
   pagecolor="#ffffff"
   bordercolor="#666666"
   borderopacity="1"
   objecttolerance="10"
   gridtolerance="10"
   guidetolerance="10"
   inkscape:pageopacity="0"
   inkscape:pageshadow="2"
   inkscape:window-width="1536"
   inkscape:window-height="801"
   id="namedview41"
   showgrid="false"
   inkscape:zoom="0.38562218"
   inkscape:cx="-121.54471"
   inkscape:cy="246.58001"
   inkscape:window-x="-8"
   inkscape:window-y="-8"
   inkscape:window-maximized="1"
   inkscape:current-layer="g8" />
<g
   id="g8"
   transform="translate(-118.9515,-59.419)">
	<path
   d="M 539.776,131.64 C 493.205,85.067 431.282,59.419 365.417,59.419 c -65.865,0 -127.785,25.649 -174.359,72.221 -96.142,96.142 -96.142,252.575 0,348.718 46.573,46.573 108.494,72.221 174.359,72.221 65.865,0 127.786,-25.648 174.359,-72.221 46.574,-46.573 72.223,-108.494 72.223,-174.359 0,-65.865 -25.647,-127.786 -72.223,-174.359 z M 375.169,405.983 c -12.849,11.452 -28.27,18.565 -40.247,18.565 -3.901,0 -9.259,-0.794 -12.626,-4.57 -3.823,-4.287 -4.311,-11.821 -1.337,-20.669 3.484,-10.375 11.047,-21.12 21.292,-30.252 12.849,-11.452 28.27,-18.565 40.247,-18.565 3.901,0 9.259,0.794 12.626,4.568 9.699,10.882 -2.733,35.57 -19.955,50.923 z m -59.521,27.38 c 5.126,3.72 11.674,5.68 19.274,5.68 15.617,0 34.268,-8.313 49.89,-22.24 23.566,-21.006 33.496,-48.135 25.096,-65.431 0.069,-0.069 0.138,-0.134 0.205,-0.203 l 0.245,-0.245 c 56.354,-56.355 104.89,-119.767 140.932,-183.964 9.652,12.849 17.879,26.565 24.597,40.957 -35.262,61.327 -80.521,119.83 -134.614,173.92 -54.098,54.099 -112.607,99.362 -173.935,134.623 -14.394,-6.719 -28.111,-14.945 -40.961,-24.599 30.178,-16.937 60.136,-36.571 89.271,-58.498 z M 466.754,97.09 c -35.38,61.735 -80.828,120.58 -135.241,174.991 -54.389,54.389 -113.209,99.824 -174.915,135.197 -5.757,-11.897 -10.44,-24.186 -14.05,-36.725 56.493,-34.46 110.419,-77.182 160.338,-127.099 49.957,-49.957 92.703,-103.921 127.17,-160.452 12.628,3.642 24.897,8.353 36.698,14.088 z m -265.444,44.8 c 43.835,-43.835 102.116,-67.977 164.109,-67.977 7.242,0 14.43,0.342 21.555,0.995 -31.234,48.087 -68.655,94.211 -111.341,137.176 -2.821,2.839 -2.807,7.429 0.034,10.25 1.413,1.404 3.262,2.107 5.108,2.107 1.863,0 3.725,-0.714 5.142,-2.14 44.565,-44.857 84.642,-94.977 116.958,-145.384 4.187,0.676 8.346,1.459 12.472,2.359 -33.458,54.163 -74.692,105.911 -122.709,153.927 -47.981,47.981 -99.69,89.192 -153.82,122.642 -16.314,-74.713 4.517,-155.981 62.492,-213.955 z m -37.988,278.24 c 62.996,-36.051 123.004,-82.362 178.439,-137.797 55.457,-55.457 101.781,-115.487 137.837,-178.506 18.062,10.238 34.849,22.985 49.928,38.064 4.164,4.164 8.148,8.46 11.953,12.874 -35.656,64.768 -84.421,128.944 -141.318,185.854 -4.865,-3.019 -10.834,-4.622 -17.665,-4.622 -15.617,0 -34.269,8.313 -49.892,22.24 -12.097,10.783 -21.113,23.731 -25.389,36.457 -3.457,10.294 -3.575,19.665 -0.495,27.248 -30.198,22.709 -61.277,42.902 -92.54,60.113 -4.414,-3.803 -8.708,-7.786 -12.872,-11.95 -15.228,-15.229 -27.882,-32.071 -37.986,-49.975 z m 366.205,49.976 c -43.835,43.835 -102.116,67.977 -164.109,67.977 -15.161,0 -30.098,-1.453 -44.659,-4.276 18.864,-11.87 37.661,-24.833 55.998,-38.625 3.2,-2.406 3.841,-6.951 1.435,-10.149 -2.406,-3.2 -6.952,-3.84 -10.149,-1.435 -19.855,14.934 -46.393,32.45 -67.363,45.368 -5.606,-1.62 -11.142,-3.448 -16.596,-5.487 58.968,-35.049 115.237,-79.19 167.435,-131.388 52.192,-52.19 96.333,-108.454 131.381,-167.423 2.049,5.485 3.887,11.051 5.512,16.69 -23.941,38.799 -55.866,83.002 -87.51,118.944 -2.645,3.004 -2.356,7.585 0.649,10.228 1.379,1.212 3.086,1.808 4.787,1.808 2.009,0 4.012,-0.832 5.443,-2.459 30.673,-34.837 58.031,-71.308 81.446,-108.536 2.821,14.559 4.276,29.493 4.276,44.652 10e-4,61.995 -24.139,120.276 -67.976,164.111 z"
   id="path2"
   inkscape:connector-curvature="0" />
	
	<path
   d="m 337.815,406.147 c -4.829,-5.418 0.615,-18.151 12.159,-28.441 11.544,-10.29 24.817,-14.24 29.646,-8.822 4.829,5.417 -0.615,18.151 -12.159,28.441 -11.545,10.29 -24.817,14.24 -29.646,8.822 z"
   id="path6"
   inkscape:connector-curvature="0" />
</g>
<g
   id="g10"
   transform="translate(-118.9515,-59.419)">
</g>
<g
   id="g12"
   transform="translate(-118.9515,-59.419)">
</g>
<g
   id="g14"
   transform="translate(-118.9515,-59.419)">
</g>
<g
   id="g16"
   transform="translate(-118.9515,-59.419)">
</g>
<g
   id="g18"
   transform="translate(-118.9515,-59.419)">
</g>
<g
   id="g20"
   transform="translate(-118.9515,-59.419)">
</g>
<g
   id="g22"
   transform="translate(-118.9515,-59.419)">
</g>
<g
   id="g24"
   transform="translate(-118.9515,-59.419)">
</g>
<g
   id="g26"
   transform="translate(-118.9515,-59.419)">
</g>
<g
   id="g28"
   transform="translate(-118.9515,-59.419)">
</g>
<g
   id="g30"
   transform="translate(-118.9515,-59.419)">
</g>
<g
   id="g32"
   transform="translate(-118.9515,-59.419)">
</g>
<g
   id="g34"
   transform="translate(-118.9515,-59.419)">
</g>
<g
   id="g36"
   transform="translate(-118.9515,-59.419)">
</g>
<g
   id="g38"
   transform="translate(-118.9515,-59.419)">
</g>
</svg>