<?xml version="1.0" encoding="UTF-8" standalone="no"?>
<!-- Generator: Adobe Illustrator 18.0.0, SVG Export Plug-In . SVG Version: 6.00 Build 0)  -->

<svg
   xmlns:dc="http://purl.org/dc/elements/1.1/"
   xmlns:cc="http://creativecommons.org/ns#"
   xmlns:rdf="http://www.w3.org/1999/02/22-rdf-syntax-ns#"
   xmlns:svg="http://www.w3.org/2000/svg"
   xmlns="http://www.w3.org/2000/svg"
   xmlns:sodipodi="http://sodipodi.sourceforge.net/DTD/sodipodi-0.dtd"
   xmlns:inkscape="http://www.inkscape.org/namespaces/inkscape"
   version="1.1"
   id="Capa_1"
   x="0px"
   y="0px"
   viewBox="0 0 272.04324 272.17001"
   xml:space="preserve"
   sodipodi:docname="uranus-with-satellite.svg"
   inkscape:version="0.92.1 r15371"
   width="272.04324"
   height="272.17001"><metadata
   id="metadata61"><rdf:RDF><cc:Work
       rdf:about=""><dc:format>image/svg+xml</dc:format><dc:type
         rdf:resource="http://purl.org/dc/dcmitype/StillImage" /></cc:Work></rdf:RDF></metadata><defs
   id="defs59" /><sodipodi:namedview
   pagecolor="#ffffff"
   bordercolor="#666666"
   borderopacity="1"
   objecttolerance="10"
   gridtolerance="10"
   guidetolerance="10"
   inkscape:pageopacity="0"
   inkscape:pageshadow="2"
   inkscape:window-width="1536"
   inkscape:window-height="801"
   id="namedview57"
   showgrid="false"
   inkscape:zoom="0.69664401"
   inkscape:cx="-68.159453"
   inkscape:cy="136.0855"
   inkscape:window-x="-8"
   inkscape:window-y="-8"
   inkscape:window-maximized="1"
   inkscape:current-layer="Capa_1" />
<g
   id="g24"
   transform="translate(-66.724,-33.299)">
	<path
   d="M 298.973,73.157 C 273.271,47.454 239.096,33.299 202.746,33.299 c -36.35,0 -70.523,14.155 -96.227,39.858 -53.06,53.06 -53.06,139.394 0,192.454 25.703,25.703 59.877,39.858 96.227,39.858 36.35,0 70.524,-14.155 96.227,-39.858 53.059,-53.061 53.059,-139.395 0,-192.454 z m -5.657,186.796 c -11.681,11.681 -25.225,20.819 -39.956,27.156 17.744,-11.698 34.215,-26.208 48.558,-42.92 1.438,-1.676 1.246,-4.202 -0.43,-5.64 -1.678,-1.44 -4.202,-1.247 -5.641,0.43 -20.23,23.57 -48.084,44.664 -75.601,57.302 -5.753,0.781 -11.595,1.188 -17.501,1.188 -4.154,0 -8.276,-0.2 -12.359,-0.589 17.939,-6.343 34.995,-14.887 50.872,-25.52 1.836,-1.229 2.327,-3.714 1.098,-5.549 -1.229,-1.835 -3.712,-2.328 -5.549,-1.098 -19.625,13.143 -41.113,22.987 -63.873,29.279 -5.029,-1.193 -9.966,-2.688 -14.791,-4.477 4.071,-0.974 8.123,-2.079 12.128,-3.313 2.111,-0.651 3.296,-2.89 2.645,-5.001 -0.649,-2.11 -2.89,-3.294 -5,-2.645 -7.405,2.282 -14.973,4.095 -22.518,5.427 -11.638,-5.838 -22.419,-13.502 -31.997,-22.834 4.553,-0.896 9.091,-1.914 13.555,-3.076 2.138,-0.556 3.421,-2.74 2.864,-4.878 -0.555,-2.138 -2.736,-3.42 -4.878,-2.864 -5.959,1.55 -12.05,2.85 -18.137,3.902 C 96.417,242.502 88.55,229.31 83.208,215.361 c 7.844,-2.009 15.644,-4.451 23.246,-7.289 2.069,-0.772 3.121,-3.077 2.348,-5.146 -0.772,-2.069 -3.079,-3.122 -5.146,-2.348 -7.545,2.817 -15.292,5.233 -23.078,7.202 -1.7,-5.44 -3.033,-10.971 -3.992,-16.555 17.341,-5.604 33.99,-13.242 49.518,-22.786 1.882,-1.157 2.47,-3.62 1.313,-5.502 -1.158,-1.881 -3.62,-2.47 -5.503,-1.313 -14.584,8.964 -30.193,16.189 -46.445,21.555 -0.793,-7.386 -0.95,-14.826 -0.465,-22.234 8.314,-3.591 16.365,-7.688 23.955,-12.209 1.897,-1.13 2.521,-3.585 1.39,-5.483 -1.13,-1.898 -3.585,-2.521 -5.483,-1.39 -6.041,3.597 -12.387,6.918 -18.932,9.917 1.118,-8.127 3.015,-16.165 5.69,-23.995 12.924,-7.601 26.339,-17.69 37.186,-27.603 1.631,-1.49 1.745,-4.02 0.255,-5.651 -1.491,-1.632 -4.021,-1.745 -5.651,-0.254 -8.4,7.676 -17.365,14.679 -26.729,20.916 6.137,-13.178 14.632,-25.519 25.492,-36.379 24.192,-24.192 56.357,-37.516 90.57,-37.516 4.656,0 9.271,0.255 13.836,0.743 -1.347,4.072 -2.817,8.13 -4.393,12.113 -0.813,2.054 0.193,4.378 2.248,5.191 0.482,0.191 0.98,0.282 1.471,0.282 1.593,0 3.099,-0.958 3.721,-2.529 1.813,-4.582 3.485,-9.26 5.002,-13.947 5.613,0.961 11.128,2.297 16.52,3.984 -6.004,23.81 -15.831,46.266 -29.255,66.792 -1.209,1.849 -0.69,4.328 1.158,5.537 0.676,0.442 1.435,0.653 2.186,0.653 1.305,0 2.584,-0.638 3.352,-1.811 13.785,-21.077 23.913,-44.115 30.148,-68.536 14.147,5.434 27.287,13.409 38.866,23.679 -2.015,11.874 -5.07,23.73 -9.118,35.272 -0.731,2.084 0.365,4.367 2.45,5.099 0.438,0.154 0.885,0.227 1.324,0.227 1.651,0 3.197,-1.03 3.774,-2.677 3.599,-10.259 6.438,-20.76 8.495,-31.309 16.699,17.153 27.627,37.862 32.781,59.675 -6.798,23.85 -17.03,45.879 -30.438,65.486 -1.247,1.823 -0.779,4.313 1.044,5.56 0.69,0.472 1.477,0.699 2.254,0.699 1.276,0 2.531,-0.61 3.306,-1.743 11.018,-16.112 19.958,-33.794 26.699,-52.727 3.538,36.789 -8.748,74.828 -36.862,102.942 z"
   id="path2"
   inkscape:connector-curvature="0" />
	
	<path
   d="m 197.27,216.666 c -1.811,1.267 -2.251,3.761 -0.984,5.571 0.778,1.112 2.02,1.707 3.281,1.707 0.791,0 1.592,-0.235 2.289,-0.723 22.879,-16.008 42.555,-36.287 58.479,-60.273 4.438,-6.686 8.573,-13.669 12.288,-20.754 1.025,-1.957 0.271,-4.375 -1.686,-5.4 -1.952,-1.025 -4.374,-0.272 -5.4,1.685 -3.587,6.843 -7.58,13.587 -11.866,20.044 -15.37,23.149 -34.347,42.711 -56.401,58.143 z"
   id="path6"
   inkscape:connector-curvature="0" />
	<path
   d="m 164.66,235.919 c -4.826,2.292 -9.791,4.417 -14.757,6.314 -2.063,0.789 -3.098,3.101 -2.309,5.164 0.609,1.594 2.127,2.573 3.737,2.573 0.475,0 0.957,-0.085 1.427,-0.265 5.16,-1.972 10.319,-4.179 15.333,-6.561 1.996,-0.948 2.845,-3.334 1.897,-5.329 -0.946,-1.994 -3.333,-2.842 -5.328,-1.896 z"
   id="path8"
   inkscape:connector-curvature="0" />
	<path
   d="m 240.418,146.561 c 1.275,-1.804 0.846,-4.3 -0.958,-5.575 -1.803,-1.275 -4.3,-0.845 -5.575,0.958 -30.046,42.51 -72.305,73.713 -118.993,87.863 -2.114,0.641 -3.309,2.874 -2.668,4.988 0.523,1.728 2.11,2.841 3.826,2.841 0.385,0 0.775,-0.056 1.162,-0.173 48.383,-14.663 92.138,-46.946 123.206,-90.902 z"
   id="path10"
   inkscape:connector-curvature="0" />
	<path
   d="m 131.021,125.104 c 22.662,-18.894 41.814,-42.449 55.387,-68.119 1.032,-1.953 0.286,-4.373 -1.667,-5.406 -1.954,-1.035 -4.373,-0.286 -5.405,1.667 -13.09,24.758 -31.568,47.481 -53.438,65.714 -1.696,1.415 -1.926,3.937 -0.511,5.634 0.791,0.949 1.929,1.438 3.074,1.438 0.903,0 1.811,-0.304 2.56,-0.928 z"
   id="path12"
   inkscape:connector-curvature="0" />
	<path
   d="m 304.583,162.73 c 0.537,0.244 1.1,0.359 1.653,0.359 1.52,0 2.974,-0.872 3.644,-2.346 0.838,-1.843 1.658,-3.714 2.44,-5.563 0.861,-2.034 -0.091,-4.381 -2.125,-5.242 -2.035,-0.861 -4.382,0.09 -5.242,2.125 -0.755,1.784 -1.548,3.59 -2.356,5.37 -0.914,2.012 -0.025,4.383 1.986,5.297 z"
   id="path14"
   inkscape:connector-curvature="0" />
	<path
   d="m 301.081,169.845 c -1.931,-1.072 -4.365,-0.374 -5.438,1.557 -5.468,9.855 -11.719,19.443 -18.58,28.495 -25.229,33.293 -57.633,58.594 -93.705,73.166 -2.049,0.828 -3.038,3.159 -2.211,5.207 0.629,1.558 2.128,2.503 3.71,2.503 0.499,0 1.007,-0.094 1.497,-0.292 37.412,-15.114 70.983,-41.308 97.085,-75.752 7.089,-9.353 13.548,-19.26 19.2,-29.446 1.071,-1.932 0.374,-4.366 -1.558,-5.438 z"
   id="path16"
   inkscape:connector-curvature="0" />
	<path
   d="m 190.943,141.11 c -4.038,4.545 -8.354,8.994 -12.827,13.222 -1.605,1.518 -1.678,4.049 -0.16,5.655 0.787,0.833 1.846,1.252 2.908,1.252 0.985,0 1.974,-0.362 2.746,-1.093 4.643,-4.387 9.122,-9.004 13.313,-13.723 1.468,-1.652 1.318,-4.18 -0.334,-5.647 -1.651,-1.466 -4.179,-1.318 -5.646,0.334 z"
   id="path18"
   inkscape:connector-curvature="0" />
	<path
   d="m 161.323,130.713 c -1.609,1.514 -1.688,4.045 -0.174,5.654 0.787,0.837 1.85,1.26 2.915,1.26 0.982,0 1.967,-0.36 2.739,-1.086 18.801,-17.681 32.125,-35.242 40.733,-53.688 0.934,-2.001 0.068,-4.382 -1.934,-5.316 -2.001,-0.934 -4.382,-0.069 -5.316,1.933 -8.17,17.509 -20.915,34.271 -38.963,51.243 z"
   id="path20"
   inkscape:connector-curvature="0" />
	<path
   d="m 148.218,142.343 c -3.322,2.801 -6.804,5.649 -10.644,8.706 -1.729,1.376 -2.014,3.893 -0.638,5.621 0.789,0.992 1.955,1.508 3.132,1.508 0.873,0 1.752,-0.285 2.488,-0.871 3.899,-3.104 7.438,-5.999 10.817,-8.849 1.689,-1.424 1.904,-3.948 0.479,-5.637 -1.422,-1.687 -3.947,-1.902 -5.634,-0.478 z"
   id="path22"
   inkscape:connector-curvature="0" />
</g>
<g
   id="g26"
   transform="translate(-66.724,-33.299)">
</g>
<g
   id="g28"
   transform="translate(-66.724,-33.299)">
</g>
<g
   id="g30"
   transform="translate(-66.724,-33.299)">
</g>
<g
   id="g32"
   transform="translate(-66.724,-33.299)">
</g>
<g
   id="g34"
   transform="translate(-66.724,-33.299)">
</g>
<g
   id="g36"
   transform="translate(-66.724,-33.299)">
</g>
<g
   id="g38"
   transform="translate(-66.724,-33.299)">
</g>
<g
   id="g40"
   transform="translate(-66.724,-33.299)">
</g>
<g
   id="g42"
   transform="translate(-66.724,-33.299)">
</g>
<g
   id="g44"
   transform="translate(-66.724,-33.299)">
</g>
<g
   id="g46"
   transform="translate(-66.724,-33.299)">
</g>
<g
   id="g48"
   transform="translate(-66.724,-33.299)">
</g>
<g
   id="g50"
   transform="translate(-66.724,-33.299)">
</g>
<g
   id="g52"
   transform="translate(-66.724,-33.299)">
</g>
<g
   id="g54"
   transform="translate(-66.724,-33.299)">
</g>
</svg>