<?xml version="1.0" encoding="UTF-8" standalone="no"?>
<!-- Generator: Adobe Illustrator 18.0.0, SVG Export Plug-In . SVG Version: 6.00 Build 0)  -->

<svg
   xmlns:dc="http://purl.org/dc/elements/1.1/"
   xmlns:cc="http://creativecommons.org/ns#"
   xmlns:rdf="http://www.w3.org/1999/02/22-rdf-syntax-ns#"
   xmlns:svg="http://www.w3.org/2000/svg"
   xmlns="http://www.w3.org/2000/svg"
   xmlns:sodipodi="http://sodipodi.sourceforge.net/DTD/sodipodi-0.dtd"
   xmlns:inkscape="http://www.inkscape.org/namespaces/inkscape"
   version="1.1"
   id="Capa_1"
   x="0px"
   y="0px"
   viewBox="0 0 272.17002 272.17002"
   xml:space="preserve"
   sodipodi:docname="earth-and-moon.svg"
   width="272.17001"
   height="272.17001"
   inkscape:version="0.92.1 r15371"><metadata
   id="metadata43"><rdf:RDF><cc:Work
       rdf:about=""><dc:format>image/svg+xml</dc:format><dc:type
         rdf:resource="http://purl.org/dc/dcmitype/StillImage" /></cc:Work></rdf:RDF></metadata><defs
   id="defs41" /><sodipodi:namedview
   pagecolor="#ffffff"
   bordercolor="#666666"
   borderopacity="1"
   objecttolerance="10"
   gridtolerance="10"
   guidetolerance="10"
   inkscape:pageopacity="0"
   inkscape:pageshadow="2"
   inkscape:window-width="1536"
   inkscape:window-height="801"
   id="namedview39"
   showgrid="false"
   inkscape:zoom="0.75616063"
   inkscape:cx="-41.25547"
   inkscape:cy="136.0845"
   inkscape:window-x="-8"
   inkscape:window-y="-8"
   inkscape:window-maximized="1"
   inkscape:current-layer="g6" />
<g
   id="g6"
   transform="translate(-39.933,-19.966)">
	<path
   d="m 176.018,19.966 c -75.038,0 -136.085,61.047 -136.085,136.085 0,75.038 61.048,136.085 136.085,136.085 75.037,0 136.085,-61.048 136.085,-136.085 0,-75.037 -61.048,-136.085 -136.085,-136.085 z M 300.279,124.962 277.78,123.68 c -1.66,-0.094 -3.2,0.845 -3.878,2.359 -0.678,1.515 -0.351,3.291 0.824,4.464 l 7.51,7.504 c 1.412,1.412 2.143,3.288 2.058,5.283 -0.086,1.996 -0.976,3.804 -2.505,5.09 -3.653,3.072 -5.787,4.683 -6.991,5.52 -2.502,-2.6 -7.928,-9.22 -15.849,-19.869 l 2.317,-7.889 c 1.165,-3.967 -0.649,-8.237 -4.313,-10.152 L 225.465,99.532 c -0.963,-0.503 -2.088,-0.593 -3.117,-0.25 l -16.802,5.597 c -0.129,0.042 -0.271,0.019 -0.381,-0.066 l -7.203,-5.6 c -0.047,-0.037 -0.173,-0.135 -0.158,-0.354 0.009,-0.121 0.055,-0.199 0.103,-0.25 l 23.65,-9.68 c 1.453,-0.595 2.423,-1.983 2.482,-3.552 0.059,-1.569 -0.805,-3.026 -2.208,-3.728 l -16.519,-8.259 9.453,-12.493 c 3.28,-4.333 8.5,-6.826 13.911,-6.678 l 8.011,0.224 -3.093,2.857 c -1.586,1.465 -1.723,3.924 -0.31,5.557 l 10.305,11.899 c 0.718,0.829 1.745,1.327 2.84,1.377 1.098,0.053 2.164,-0.352 2.955,-1.111 l 13.522,-12.987 c 18.007,16.655 31.235,38.4 37.373,62.927 z m -43.405,49.354 c 0.429,1.609 1.81,2.784 3.467,2.949 l 6.865,0.687 0.089,0.135 -20.902,65.844 c -0.287,0.904 -1.117,1.512 -2.066,1.512 h -9.432 c -1.038,0 -1.933,-0.739 -2.128,-1.758 L 221.829,186.81 c -0.319,-1.66 -1.648,-2.94 -3.319,-3.198 l -20.329,-3.131 -14.311,-32.585 28.614,-13.285 35.524,6.459 z M 250.437,51.863 c 2.189,1.568 4.324,3.205 6.408,4.904 l -9.963,9.569 -5.012,-5.788 c -0.001,10e-4 8.366,-8.012 8.567,-8.685 z M 140.058,35.219 c 0.071,0.66 0.031,1.88 -0.928,2.976 -0.763,0.871 -1.347,1.883 -1.885,2.908 l -13.581,25.871 c -0.788,1.501 -2.323,2.461 -4.017,2.513 l -8.33,0.257 c -2.495,0.077 -5.043,0.729 -7.575,1.937 -0.93,0.444 -2.034,0.494 -3.027,0.141 -0.696,-0.249 -1.648,-0.803 -2.225,-2.028 0,0 -5.213,-11.354 -5.192,-11.451 13.297,-11.274 28.915,-19.887 46.027,-25.013 0.393,0.547 0.658,1.185 0.733,1.889 z m -69.355,48.02 -0.395,8.635 c -0.281,6.139 4.289,11.415 10.405,12.012 3.309,0.323 6.328,2.051 8.285,4.741 1.842,2.532 2.499,5.559 1.849,8.524 -0.361,1.649 -1.013,3.209 -1.938,4.637 l -11.877,18.334 c -4.927,7.604 -6.923,16.787 -5.766,25.668 l -23.317,-8.529 c -0.004,-0.404 -0.015,-0.806 -0.015,-1.211 -0.002,-27.027 8.421,-52.122 22.769,-72.811 z m 105.315,200.897 c -67.308,0 -122.657,-52.187 -127.709,-118.223 l 26.988,9.871 c 0,0 21.17,31.134 23.359,35.329 1.415,2.711 11.932,28.97 11.932,28.97 0.504,1.238 0.883,2.521 1.165,3.828 1.456,6.742 7.777,25.58 33.543,32.021 0.322,0.081 0.648,0.12 0.97,0.12 1.61,0 3.14,-0.974 3.761,-2.626 0.444,-1.182 0.225,-2.511 -0.427,-3.592 -18.101,-30 4.417,-52.269 5.378,-53.197 0.828,-0.791 1.278,-1.898 1.235,-3.042 l -1.19,-32.129 c -0.077,-2.088 -1.749,-3.765 -3.837,-3.849 l -28.746,-1.15 -19.364,-11.391 c -0.86,-0.506 -1.877,-0.673 -2.853,-0.466 l -20.188,4.25 c -2.283,-8.217 -0.95,-17.196 3.71,-24.389 l 11.877,-18.334 c 1.449,-2.237 2.472,-4.685 3.039,-7.276 1.128,-5.153 -0.036,-10.599 -3.195,-14.941 -3.294,-4.528 -8.375,-7.44 -13.944,-7.993 -1.876,-0.186 -3.312,-1.741 -3.226,-3.624 l 0.918,-20.039 c 2.462,-2.841 5.053,-5.568 7.752,-8.182 l 4.286,9.117 c 1.364,2.898 3.771,5.084 6.775,6.157 1.301,0.464 2.669,0.694 4.034,0.694 1.766,0 3.526,-0.386 5.126,-1.149 1.525,-0.728 2.999,-1.118 4.378,-1.161 l 8.33,-0.257 c 4.577,-0.141 8.724,-2.736 10.852,-6.791 l 13.39,-25.507 c 0.383,-0.73 0.801,-1.445 1.318,-2.087 1.974,-2.445 2.898,-5.55 2.557,-8.732 -0.117,-1.097 -0.393,-2.145 -0.783,-3.138 9.256,-2.134 18.893,-3.263 28.788,-3.263 24.323,0 47.084,6.816 66.474,18.637 L 228.9,46.223 c -8.01,-0.212 -15.678,3.458 -20.514,9.848 l -12.284,16.233 c -0.431,0.569 -0.751,1.229 -0.847,1.937 -0.241,1.773 0.678,3.404 2.174,4.153 l 12.942,6.471 c 0,0 -16.164,6.628 -16.313,6.712 -2.958,1.681 -4.652,4.992 -4.175,8.494 0.305,2.239 1.59,4.231 3.374,5.618 l 6.997,5.44 c 2.224,1.731 5.148,2.233 7.821,1.34 l 15.189,-5.06 29.983,15.671 c 0.293,0.153 0.436,0.491 0.343,0.808 0,0 -2.673,9.233 -2.716,9.569 l -38.208,-6.947 c -0.812,-0.148 -1.65,-0.04 -2.399,0.307 l -33.319,15.469 c -1.974,0.917 -2.853,3.244 -1.978,5.236 l 16.769,38.183 c 0.55,1.252 1.702,2.137 3.054,2.345 l 19.712,3.036 10.405,54.107 c 0.919,4.778 5.119,8.247 9.985,8.247 h 9.432 c 4.45,0 8.344,-2.85 9.691,-7.091 l 20.902,-65.844 c 0.856,-2.696 0.263,-5.63 -1.642,-7.811 -1.398,-1.601 -3.423,-2.519 -5.538,-2.731 l -3.849,-0.385 -6.475,-24.283 c 13.195,17.299 14.967,17.315 16.972,17.315 1.756,0 3.579,-0.564 12.55,-8.109 3.219,-2.707 5.168,-6.668 5.349,-10.87 0.181,-4.2 -1.421,-8.313 -4.396,-11.285 l -0.084,-0.084 14.228,0.811 c 1.356,7.456 2.068,15.134 2.068,22.975 0,70.629 -57.459,128.088 -128.085,128.088 z M 138.247,264.96 c -13.574,-6.561 -17.636,-18.63 -18.792,-23.374 -0.289,-1.185 -1.596,-4.859 -1.596,-4.859 l -9.814,-24.089 c -0.662,-1.804 -2.995,-6.804 -4.906,-9.513 l -18.096,-27.144 15.312,-3.224 18.892,11.113 c 0.569,0.334 1.211,0.523 1.87,0.55 l 26.048,1.042 0.992,26.77 c -4.777,5.391 -20.547,25.993 -9.91,52.728 z"
   id="path2"
   inkscape:connector-curvature="0" />
	
</g>
<g
   id="g8"
   transform="translate(-39.933,-19.966)">
</g>
<g
   id="g10"
   transform="translate(-39.933,-19.966)">
</g>
<g
   id="g12"
   transform="translate(-39.933,-19.966)">
</g>
<g
   id="g14"
   transform="translate(-39.933,-19.966)">
</g>
<g
   id="g16"
   transform="translate(-39.933,-19.966)">
</g>
<g
   id="g18"
   transform="translate(-39.933,-19.966)">
</g>
<g
   id="g20"
   transform="translate(-39.933,-19.966)">
</g>
<g
   id="g22"
   transform="translate(-39.933,-19.966)">
</g>
<g
   id="g24"
   transform="translate(-39.933,-19.966)">
</g>
<g
   id="g26"
   transform="translate(-39.933,-19.966)">
</g>
<g
   id="g28"
   transform="translate(-39.933,-19.966)">
</g>
<g
   id="g30"
   transform="translate(-39.933,-19.966)">
</g>
<g
   id="g32"
   transform="translate(-39.933,-19.966)">
</g>
<g
   id="g34"
   transform="translate(-39.933,-19.966)">
</g>
<g
   id="g36"
   transform="translate(-39.933,-19.966)">
</g>
</svg>