<?xml version="1.0" encoding="UTF-8" standalone="no"?>
<!-- Generator: Adobe Illustrator 18.0.0, SVG Export Plug-In . SVG Version: 6.00 Build 0)  -->

<svg
   xmlns:dc="http://purl.org/dc/elements/1.1/"
   xmlns:cc="http://creativecommons.org/ns#"
   xmlns:rdf="http://www.w3.org/1999/02/22-rdf-syntax-ns#"
   xmlns:svg="http://www.w3.org/2000/svg"
   xmlns="http://www.w3.org/2000/svg"
   xmlns:sodipodi="http://sodipodi.sourceforge.net/DTD/sodipodi-0.dtd"
   xmlns:inkscape="http://www.inkscape.org/namespaces/inkscape"
   version="1.1"
   id="Capa_1"
   x="0px"
   y="0px"
   viewBox="0 0 272.17 272.17"
   xml:space="preserve"
   sodipodi:docname="mars-with-satellite.svg"
   width="272.17001"
   height="272.17001"
   inkscape:version="0.92.1 r15371"><metadata
   id="metadata43"><rdf:RDF><cc:Work
       rdf:about=""><dc:format>image/svg+xml</dc:format><dc:type
         rdf:resource="http://purl.org/dc/dcmitype/StillImage" /></cc:Work></rdf:RDF></metadata><defs
   id="defs41" /><sodipodi:namedview
   pagecolor="#ffffff"
   bordercolor="#666666"
   borderopacity="1"
   objecttolerance="10"
   gridtolerance="10"
   guidetolerance="10"
   inkscape:pageopacity="0"
   inkscape:pageshadow="2"
   inkscape:window-width="1536"
   inkscape:window-height="801"
   id="namedview39"
   showgrid="false"
   inkscape:zoom="0.74916113"
   inkscape:cx="-15.912826"
   inkscape:cy="157.50949"
   inkscape:window-x="-8"
   inkscape:window-y="-8"
   inkscape:window-maximized="1"
   inkscape:current-layer="g6" />
<g
   id="g6"
   transform="translate(-14.578,-42.849)">
	<path
   d="m 150.663,42.849 c -75.037,0 -136.085,61.047 -136.085,136.085 0,75.038 61.048,136.085 136.085,136.085 75.037,0 136.085,-61.048 136.085,-136.085 0,-75.037 -61.048,-136.085 -136.085,-136.085 z m 94.519,49.737 C 215.47,98.072 194.155,95.67 181.775,85.417 166.119,72.442 142.824,62.802 112.41,56.684 c 12.085,-3.79 24.935,-5.835 38.253,-5.835 37.388,0 71.082,16.104 94.519,41.737 z M 49.864,99.992 c 7.659,4.116 14.848,7.336 20.496,9.16 l 1.405,0.455 c 11.474,3.718 26.173,8.48 38.353,8.48 9.974,0 18.259,-3.194 21.701,-12.769 1.564,-4.354 1.492,-8.272 -0.214,-11.644 -3.639,-7.188 -13.464,-10.107 -25.902,-13.801 -2.913,-0.865 -5.924,-1.76 -8.986,-2.75 -4.31,-1.395 -10.33,-3.021 -17.181,-4.657 5.813,-3.896 11.958,-7.332 18.388,-10.249 35.034,5.547 62.249,15.687 78.747,29.361 9.52,7.883 23.149,11.833 40.721,11.833 9.978,0 21.246,-1.291 33.734,-3.842 3.017,3.811 5.819,7.799 8.394,11.942 -7.815,0.09 -15.483,0.207 -23.256,0.357 -32.772,0.63 -51.646,9.594 -69.899,18.262 -16.304,7.742 -31.704,15.056 -56.158,15.056 -19.363,0 -45.543,-6.853 -75.875,-19.812 4.196,-9.082 9.42,-17.595 15.532,-25.382 z M 71.002,78.711 c 9.393,2.083 17.789,4.256 23.251,6.023 3.154,1.021 6.213,1.929 9.171,2.808 9.751,2.896 18.96,5.631 21.043,9.745 0.436,0.861 0.892,2.351 -0.177,5.326 -4.637,12.897 -27.272,6.767 -50.06,-0.616 L 72.82,101.54 C 67.967,99.972 61.794,97.234 55.123,93.723 59.98,88.283 65.292,83.259 71.002,78.711 Z M 23.02,168.333 c 35.942,5.647 57.003,15.954 59.452,29.178 0.284,1.535 -0.071,2.922 -1.119,4.364 -2.927,4.03 -13.653,11.492 -52.407,16.946 -4.126,-12.559 -6.367,-25.966 -6.367,-39.887 -0.001,-3.57 0.153,-7.104 0.441,-10.601 z m 23.365,84.896 c 22.439,-3.993 52.181,-14.162 77.357,-39.338 42.857,-42.857 53.898,-42.857 78.089,-42.857 9.532,0 21.889,5.026 34.971,10.348 13.57,5.52 27.555,11.194 41.059,12.592 -0.781,6.647 -2.069,13.141 -3.832,19.44 -9.441,0.149 -18.893,-1.263 -28.848,-2.765 -23.035,-3.475 -49.144,-7.414 -80.863,8.749 -36.661,18.676 -56.554,50.852 -67.026,75.957 -20.42,-9.398 -37.963,-24.01 -50.907,-42.126 z m 68.931,48.827 c -3.62,-1.041 -7.173,-2.242 -10.656,-3.586 9.935,-23.833 28.755,-54.35 63.288,-71.943 29.436,-14.998 53.129,-11.422 76.039,-7.966 9.394,1.417 18.359,2.748 27.51,2.855 -2.915,8.266 -6.65,16.149 -11.117,23.543 -29.036,-6.441 -59.028,-1.667 -89.203,14.214 -24.231,12.752 -43.497,30.024 -55.861,42.883 z m 35.347,4.963 c -9.027,0 -17.837,-0.944 -26.341,-2.729 11.947,-11.958 29.304,-26.84 50.581,-38.037 27.413,-14.427 54.562,-19.154 80.787,-14.093 -23.175,33.139 -61.609,54.859 -105.027,54.859 z M 278.55,186.003 c -12.347,-1.311 -25.739,-6.745 -38.734,-12.031 -13.827,-5.625 -26.889,-10.938 -37.985,-10.938 -27.418,0 -40.278,1.733 -83.745,45.2 -25.043,25.043 -54.972,34.354 -76.548,37.691 -3.79,-6.151 -7.074,-12.644 -9.795,-19.422 31.269,-4.529 49.643,-11.06 56.083,-19.926 2.324,-3.201 3.193,-6.839 2.513,-10.521 -3.943,-21.297 -37.42,-31.136 -66.412,-35.676 1.399,-9.598 3.865,-18.853 7.275,-27.643 31.702,13.558 58.277,20.448 79.003,20.448 26.258,0 42.448,-7.689 59.59,-15.83 17.488,-8.305 35.571,-16.893 66.622,-17.49 9.222,-0.177 18.305,-0.308 27.659,-0.402 9.362,17.782 14.672,38.016 14.672,59.47 0,2.373 -0.07,4.729 -0.198,7.07 z"
   id="path2"
   inkscape:connector-curvature="0" />
	
</g>
<g
   id="g8"
   transform="translate(-14.578,-42.849)">
</g>
<g
   id="g10"
   transform="translate(-14.578,-42.849)">
</g>
<g
   id="g12"
   transform="translate(-14.578,-42.849)">
</g>
<g
   id="g14"
   transform="translate(-14.578,-42.849)">
</g>
<g
   id="g16"
   transform="translate(-14.578,-42.849)">
</g>
<g
   id="g18"
   transform="translate(-14.578,-42.849)">
</g>
<g
   id="g20"
   transform="translate(-14.578,-42.849)">
</g>
<g
   id="g22"
   transform="translate(-14.578,-42.849)">
</g>
<g
   id="g24"
   transform="translate(-14.578,-42.849)">
</g>
<g
   id="g26"
   transform="translate(-14.578,-42.849)">
</g>
<g
   id="g28"
   transform="translate(-14.578,-42.849)">
</g>
<g
   id="g30"
   transform="translate(-14.578,-42.849)">
</g>
<g
   id="g32"
   transform="translate(-14.578,-42.849)">
</g>
<g
   id="g34"
   transform="translate(-14.578,-42.849)">
</g>
<g
   id="g36"
   transform="translate(-14.578,-42.849)">
</g>
</svg>