<?xml version="1.0" encoding="UTF-8" standalone="no"?>
<!-- Generator: Adobe Illustrator 18.0.0, SVG Export Plug-In . SVG Version: 6.00 Build 0)  -->

<svg
   xmlns:dc="http://purl.org/dc/elements/1.1/"
   xmlns:cc="http://creativecommons.org/ns#"
   xmlns:rdf="http://www.w3.org/1999/02/22-rdf-syntax-ns#"
   xmlns:svg="http://www.w3.org/2000/svg"
   xmlns="http://www.w3.org/2000/svg"
   xmlns:sodipodi="http://sodipodi.sourceforge.net/DTD/sodipodi-0.dtd"
   xmlns:inkscape="http://www.inkscape.org/namespaces/inkscape"
   version="1.1"
   id="Capa_1"
   x="0px"
   y="0px"
   viewBox="0 0 272.17001 272.17001"
   xml:space="preserve"
   sodipodi:docname="venus-with-satellite.svg"
   width="272.17001"
   height="272.17001"
   inkscape:version="0.92.1 r15371"><metadata
   id="metadata43"><rdf:RDF><cc:Work
       rdf:about=""><dc:format>image/svg+xml</dc:format><dc:type
         rdf:resource="http://purl.org/dc/dcmitype/StillImage" /></cc:Work></rdf:RDF></metadata><defs
   id="defs41" /><sodipodi:namedview
   pagecolor="#ffffff"
   bordercolor="#666666"
   borderopacity="1"
   objecttolerance="10"
   gridtolerance="10"
   guidetolerance="10"
   inkscape:pageopacity="0"
   inkscape:pageshadow="2"
   inkscape:window-width="1536"
   inkscape:window-height="801"
   id="namedview39"
   showgrid="false"
   inkscape:zoom="0.72525674"
   inkscape:cx="-54.610822"
   inkscape:cy="136.085"
   inkscape:window-x="-8"
   inkscape:window-y="-8"
   inkscape:window-maximized="1"
   inkscape:current-layer="g6" />
<g
   id="g6"
   transform="translate(-53.232,-26.616)">
	<path
   d="m 189.317,26.616 c -75.038,0 -136.085,61.048 -136.085,136.085 0,75.037 61.047,136.085 136.085,136.085 75.038,0 136.085,-61.047 136.085,-136.085 0,-75.038 -61.048,-136.085 -136.085,-136.085 z m 114.537,78.799 c -19.285,81.007 -76.736,147.79 -154.087,179.114 -5.259,-1.711 -10.371,-3.751 -15.309,-6.102 80.857,-31.451 141.937,-101.332 162.187,-185.549 2.629,4.029 5.038,8.214 7.209,12.537 z M 163.18,139.149 c 26.371,-28.772 46.301,-63.476 57.841,-100.56 13.174,3.367 25.536,8.784 36.729,15.887 -19.382,87.483 -83.595,159.155 -168.504,188.074 -8.839,-11.054 -15.885,-23.598 -20.7,-37.19 35.734,-14.765 68.396,-37.583 94.634,-66.211 z M 66.097,197.717 C 64.659,192.664 63.525,187.485 62.714,182.201 125,152.771 174.179,99.363 198.318,34.937 c 5.041,0.352 10.001,0.997 14.865,1.918 -11.221,35.723 -30.474,69.147 -55.901,96.888 -25.304,27.609 -56.763,49.647 -91.185,63.974 z M 189.317,34.616 c 0.192,0 0.382,0.006 0.573,0.007 -23.415,60.543 -69.7,110.809 -128.17,139.196 -0.317,-3.665 -0.488,-7.372 -0.488,-11.118 0,-70.626 57.458,-128.085 128.085,-128.085 z M 94.827,249.08 c 85.048,-30.115 149.458,-102 170.022,-189.755 9.626,7.052 18.236,15.411 25.562,24.818 -18.383,87.024 -81.532,159.278 -165.428,189.276 -11.251,-6.562 -21.416,-14.787 -30.156,-24.339 z m 67.417,38.818 c 71.824,-32.367 125.65,-94.933 146.817,-170.653 4.421,11.608 7.2,24.017 8.052,36.946 -20.52,57.053 -60.724,105.217 -113.336,135.774 -4.748,0.536 -9.571,0.821 -14.46,0.821 -9.287,0 -18.342,-1.002 -27.073,-2.888 z m 63.449,-2.382 c 39.622,-27.44 71.097,-65.121 90.95,-108.895 -5.626,51.82 -42.283,94.456 -90.95,108.895 z"
   id="path2"
   inkscape:connector-curvature="0" />
	
</g>
<g
   id="g8"
   transform="translate(-53.232,-26.616)">
</g>
<g
   id="g10"
   transform="translate(-53.232,-26.616)">
</g>
<g
   id="g12"
   transform="translate(-53.232,-26.616)">
</g>
<g
   id="g14"
   transform="translate(-53.232,-26.616)">
</g>
<g
   id="g16"
   transform="translate(-53.232,-26.616)">
</g>
<g
   id="g18"
   transform="translate(-53.232,-26.616)">
</g>
<g
   id="g20"
   transform="translate(-53.232,-26.616)">
</g>
<g
   id="g22"
   transform="translate(-53.232,-26.616)">
</g>
<g
   id="g24"
   transform="translate(-53.232,-26.616)">
</g>
<g
   id="g26"
   transform="translate(-53.232,-26.616)">
</g>
<g
   id="g28"
   transform="translate(-53.232,-26.616)">
</g>
<g
   id="g30"
   transform="translate(-53.232,-26.616)">
</g>
<g
   id="g32"
   transform="translate(-53.232,-26.616)">
</g>
<g
   id="g34"
   transform="translate(-53.232,-26.616)">
</g>
<g
   id="g36"
   transform="translate(-53.232,-26.616)">
</g>
</svg>