<?xml version="1.0" standalone="no"?>
<!DOCTYPE svg PUBLIC "-//W3C//DTD SVG 20010904//EN"
 "http://www.w3.org/TR/2001/REC-SVG-20010904/DTD/svg10.dtd">
<svg version="1.0" xmlns="http://www.w3.org/2000/svg"
 width="260.000000pt" height="260.000000pt" viewBox="0 0 260.000000 260.000000"
 preserveAspectRatio="xMidYMid meet">
<metadata>
Created by potrace 1.11, written by Peter Selinger 2001-2013
</metadata>
<g transform="translate(0.000000,260.000000) scale(0.100000,-0.100000)"
fill="#000000" stroke="none">
<path d="M477 1648 c-78 -17 -138 -64 -179 -139 -22 -43 -23 -52 -23 -304 l0
-259 1025 -1 1025 0 2 244 c1 217 -1 250 -17 293 -42 110 -125 169 -242 170
-154 2 -291 -125 -297 -276 -1 -14 -4 -16 -14 -7 -26 21 -102 43 -152 43 -97
1 -210 -74 -254 -168 -7 -16 -17 -36 -21 -44 -4 -9 -11 -30 -14 -48 -9 -37
-26 -53 -26 -22 0 36 -57 147 -99 193 -55 60 -106 83 -196 91 -27 3 -114 -22
-142 -40 -21 -13 -23 -13 -24 3 -2 62 -37 138 -87 189 -65 67 -177 102 -265
82z"/>
</g>
</svg>
