<?xml version="1.0" encoding="iso-8859-1"?>
<!-- Generator: Adobe Illustrator 18.0.0, SVG Export Plug-In . SVG Version: 6.00 Build 0)  -->
<!DOCTYPE svg PUBLIC "-//W3C//DTD SVG 1.1//EN" "http://www.w3.org/Graphics/SVG/1.1/DTD/svg11.dtd">
<svg version="1.1" id="Capa_1" xmlns="http://www.w3.org/2000/svg" xmlns:xlink="http://www.w3.org/1999/xlink" x="0px" y="0px"
	 viewBox="0 0 359.256 359.256" style="enable-background:new 0 0 359.256 359.256;" xml:space="preserve">
<g>
	<path d="M179.628,43.543c-76.35,0-138.465,62.115-138.465,138.465c0,76.35,62.115,138.465,138.465,138.465
		s138.465-62.115,138.465-138.465C318.093,105.658,255.978,43.543,179.628,43.543z M179.628,312.473
		c-71.939,0-130.465-58.526-130.465-130.465c0-71.938,58.526-130.465,130.465-130.465s130.465,58.526,130.465,130.465
		C310.093,253.947,251.567,312.473,179.628,312.473z"/>
	<path d="M358.143,197.248l-11.549-12.04c-11.109-11.581-12.839-29.118-4.207-42.646l8.565-13.423
		c0.622-0.976,0.792-2.172,0.465-3.282c-0.327-1.11-1.118-2.023-2.17-2.506l-16.881-7.74c-13.998-6.417-22.149-21.531-19.821-36.754
		l2.272-14.86c0.171-1.118-0.14-2.256-0.854-3.133s-1.768-1.409-2.897-1.467l-19.76-1c-14.447-0.731-27.043-10.502-31.346-24.313
		l-4.686-15.044c-0.327-1.049-1.07-1.917-2.056-2.401c-0.987-0.484-2.127-0.542-3.157-0.159l-18.257,6.788
		c-3.88,1.443-7.942,2.174-12.073,2.174c-9.333,0-18.409-3.843-24.902-10.542L182.501,2.178c-0.753-0.777-1.79-1.216-2.873-1.216
		s-2.119,0.439-2.873,1.216L164.427,14.9c-6.493,6.7-15.569,10.542-24.9,10.542h-0.001c-4.132,0-8.194-0.731-12.074-2.174
		l-18.257-6.788c-1.03-0.384-2.171-0.326-3.157,0.159c-0.986,0.484-1.729,1.352-2.056,2.401l-4.686,15.044
		C94.993,47.894,82.397,57.665,67.95,58.396l-19.76,1c-1.13,0.058-2.183,0.59-2.897,1.467s-1.025,2.015-0.854,3.133l2.272,14.86
		c2.328,15.223-5.823,30.337-19.821,36.754l-16.881,7.74c-1.052,0.482-1.843,1.396-2.17,2.506c-0.327,1.11-0.157,2.307,0.465,3.282
		l8.565,13.423c8.632,13.528,6.902,31.065-4.207,42.646l-11.549,12.04c-0.805,0.839-1.205,1.986-1.096,3.143
		c0.109,1.157,0.715,2.21,1.662,2.884l14.458,10.296c12.874,9.168,17.917,25.879,12.264,40.639l-5.445,14.215
		c-0.41,1.069-0.341,2.263,0.188,3.278s1.468,1.755,2.579,2.033l18.857,4.71c14.585,3.643,25.105,16.166,26.178,31.161l1.08,15.104
		c0.079,1.109,0.617,2.136,1.484,2.833c0.867,0.697,1.981,0.999,3.085,0.84l19.736-2.89c1.664-0.244,3.357-0.368,5.034-0.368
		c12.134,0,23.538,6.478,29.759,16.905l8.541,14.313c0.556,0.931,1.465,1.597,2.521,1.844c1.055,0.247,2.167,0.056,3.078-0.53
		l15.8-10.162c5.604-3.605,12.089-5.51,18.753-5.51s13.148,1.905,18.753,5.51l15.799,10.162c0.65,0.418,1.403,0.636,2.164,0.636
		c0.305,0,0.612-0.035,0.915-0.106c1.055-0.248,1.965-0.914,2.521-1.844l8.541-14.313c6.222-10.427,17.625-16.905,29.759-16.905
		c1.676,0,3.37,0.124,5.034,0.368l19.736,2.89c1.101,0.159,2.218-0.144,3.085-0.84c0.867-0.697,1.405-1.723,1.484-2.833l1.08-15.104
		c1.072-14.995,11.592-27.518,26.178-31.161l18.857-4.71c1.111-0.278,2.05-1.018,2.579-2.033s0.597-2.209,0.188-3.278l-5.444-14.215
		c-5.653-14.759-0.61-31.47,12.263-40.639l14.458-10.296c0.947-0.674,1.553-1.727,1.662-2.884
		C359.347,199.234,358.947,198.087,358.143,197.248z M338.478,207.054c-15.845,11.284-22.051,31.852-15.093,50.017l3.829,9.998
		l-14.476,3.616c-17.951,4.484-30.899,19.896-32.219,38.352l-0.773,10.807l-15.474-2.266c-2.046-0.299-4.13-0.452-6.193-0.452
		c-14.936,0-28.972,7.972-36.629,20.805l-6.421,10.76l-12.32-7.924c-6.898-4.437-14.879-6.782-23.081-6.782
		s-16.183,2.345-23.081,6.782l-12.32,7.924l-6.421-10.76c-7.658-12.833-21.693-20.805-36.629-20.805
		c-2.063,0-4.146,0.152-6.193,0.452l-15.474,2.266l-0.773-10.807c-1.32-18.456-14.268-33.868-32.219-38.352l-14.476-3.616
		l3.83-9.998c6.958-18.165,0.75-38.732-15.094-50.017l-10.687-7.61l8.344-8.698c13.673-14.254,15.802-35.838,5.178-52.488
		l-6.094-9.55l12.705-5.825c17.229-7.899,27.26-26.5,24.395-45.236l-1.603-10.484l15.339-0.776
		c17.781-0.901,33.285-12.926,38.579-29.924l3.431-11.013l14.299,5.316c4.775,1.775,9.775,2.676,14.861,2.676c0.001,0,0,0,0.002,0
		c11.483,0,22.654-4.729,30.646-12.975l9.456-9.757l9.456,9.757c7.992,8.246,19.162,12.975,30.647,12.975
		c5.085,0,10.085-0.9,14.861-2.676l14.299-5.316l3.431,11.013c5.294,16.998,20.798,29.023,38.579,29.924l15.339,0.776l-1.604,10.484
		c-2.865,18.735,7.167,37.337,24.395,45.236l12.705,5.825l-6.094,9.55c-10.625,16.65-8.495,38.234,5.178,52.488l8.344,8.698
		L338.478,207.054z"/>
</g>
</svg>
